<?xml version="1.0" encoding="utf-8"?>
<!-- Generator: Adobe Illustrator 23.0.2, SVG Export Plug-In . SVG Version: 6.00 Build 0)  -->
<svg version="1.1" id="Layer_1" xmlns="http://www.w3.org/2000/svg" xmlns:xlink="http://www.w3.org/1999/xlink" x="0px" y="0px"
	 viewBox="0 0 2500.5 2473.7" style="enable-background:new 0 0 2500.5 2473.7;" xml:space="preserve">
<style type="text/css">
	.st0{fill:none;stroke:#FFFFFF;stroke-width:89;stroke-miterlimit:10;}
	.st1{fill:#FFFFFF;}
</style>
<circle class="st0" cx="1250.4" cy="1237" r="1178.8"/>
<path class="st1" d="M807.3,1694l0.2,0.1l-84.3,146.1c-30.8,53.3-99,71.6-152.3,40.8c-53.3-30.8-71.6-99-40.8-152.3l62.1-107.6
	l6-10.3c10.6-15.3,36.9-41.7,89.5-36.8c0,0,123.7,13.4,132.6,77.7C820.4,1651.6,821.6,1672.8,807.3,1694L807.3,1694z M2003.6,1320.8
	h-263c-17.9-1.2-25.7-7.6-28.8-11.3l-0.2-0.3l-281.6-487.7l-0.4,0.2l-16.9-24.2c-27.7-42.3-71.6,65.9-71.6,65.9
	c-52.5,120.6,7.4,257.7,28.3,299.2l391.1,677.3c30.8,53.3,99,71.6,152.3,40.8c53.3-30.8,71.6-99,40.8-152.3l-97.8-169.4
	c-1.9-4.1-5.2-15.2,14.9-15.3h132.9c61.6,0,111.5-49.9,111.5-111.5S2065.2,1320.8,2003.6,1320.8L2003.6,1320.8z M1492.8,1472.4
	c0,0,14,71.4-40.3,71.4h-54.3v0h-918c-61.6,0-111.5-49.9-111.5-111.5s49.9-111.5,111.5-111.5h250c40.4-2.3,49.9-25.6,49.9-25.6
	l0.2,0.1l326.3-565.2l-0.1,0c5.9-10.9,1-21.2,0.1-22.9L998.9,520.6c-30.8-53.3-12.5-121.5,40.8-152.3
	c53.3-30.8,121.5-12.5,152.3,40.8l50,86.6l49.9-86.4c30.8-53.3,99-71.6,152.3-40.8c53.3,30.8,71.6,99,40.8,152.3l-454,786.4
	c-2,4.8-2.6,12.3,12.2,13.6h271.4l0,0C1314.5,1320.8,1471.4,1325.9,1492.8,1472.4z"/>
</svg>
