<?xml version="1.0" encoding="utf-8"?>
<!-- Generator: Adobe Illustrator 24.2.0, SVG Export Plug-In . SVG Version: 6.00 Build 0)  -->
<svg version="1.1" id="Layer_2" xmlns="http://www.w3.org/2000/svg" xmlns:xlink="http://www.w3.org/1999/xlink" x="0px" y="0px"
	 viewBox="0 0 1244.7 350.7" style="enable-background:new 0 0 1244.7 350.7;" xml:space="preserve">
<style type="text/css">
	.st0{fill:#FFFFFF;}
	.st1{fill:#FFFFFF;stroke:#000000;stroke-width:13;stroke-miterlimit:10;}
</style>
<g>
	<path class="st0" d="M450.55,198.5l-14.7-34.3h-51.4l-15.1,34.2h-22.1l62.8-138.2l62.7,138.2L450.55,198.5L450.55,198.5z
		 M392.35,146.3h36.1l-13.3-30.3c-0.8-1.9-1.6-4.2-2.4-6.7s-1.7-5.3-2.5-8.4c-0.7,2.9-1.5,5.6-2.3,8.1s-1.6,4.8-2.4,6.9
		L392.35,146.3z"/>
	<path class="st0" d="M490.25,112.4v48.5c0,8.4,1.7,14.3,5,18c3.4,3.6,8.8,5.4,16.4,5.4c7.6,0,13-1.8,16.4-5.4c3.4-3.6,5-9.6,5-18
		v-48.5h19.2V155c0,16.5-3.2,28.4-9.7,35.9s-16.7,11.2-30.8,11.2c-14.3,0-24.7-3.7-31.2-11.1c-6.4-7.4-9.7-19.4-9.7-36v-42.6
		L490.25,112.4L490.25,112.4z"/>
	<path class="st0" d="M626.25,57.7h19.2v140.8h-19.2v-11.2c-3.4,5-7.4,8.7-12,11.1c-4.6,2.4-9.8,3.6-15.7,3.6
		c-11.9,0-21.2-4.2-28-12.5s-10.2-19.7-10.2-34.2c0-13.7,3.5-24.8,10.4-33.3c7-8.4,16.1-12.7,27.3-12.7c6.8,0,12.7,1.5,17.6,4.4
		c4.9,2.9,8.4,7.2,10.7,12.7L626.25,57.7L626.25,57.7z M626.75,155.2c0-8.9-2-15.8-6.1-20.8c-4-5-9.7-7.4-17-7.4s-13,2.6-17.1,7.7
		c-4.2,5.1-6.2,12.2-6.2,21.3s2,16.2,6,21.2s9.7,7.4,17,7.4c7,0,12.6-2.7,16.9-8C624.65,171.1,626.75,164,626.75,155.2z"/>
	<path class="st0" d="M658.55,75.2c0-3.3,1.2-6.2,3.6-8.6s5.2-3.6,8.5-3.6c3.4,0,6.3,1.2,8.5,3.5c2.3,2.3,3.4,5.3,3.4,8.8
		s-1.2,6.5-3.5,8.9s-5.1,3.6-8.5,3.6c-3.3,0-6.2-1.2-8.5-3.7C659.75,81.5,658.55,78.5,658.55,75.2z M661.15,198.5v-86.1h19.2v86.1
		H661.15z"/>
	<path class="st0" d="M689.75,155.5c0-6.3,1.2-12.2,3.5-17.8s5.7-10.6,10.1-14.9c4.3-4.3,9.3-7.6,14.9-9.9
		c5.6-2.3,11.5-3.5,17.6-3.5c6.3,0,12.3,1.2,17.8,3.5c5.6,2.3,10.6,5.7,15,10.2c4.4,4.4,7.8,9.4,10.1,15s3.5,11.4,3.5,17.5
		c0,6.4-1.1,12.3-3.4,17.9c-2.3,5.6-5.6,10.5-10,14.8c-4.6,4.5-9.7,8-15.3,10.3s-11.5,3.5-17.7,3.5c-6.1,0-11.9-1.2-17.5-3.5
		s-10.6-5.7-15-10.1c-4.4-4.5-7.8-9.5-10.1-15.1C690.95,167.8,689.75,161.8,689.75,155.5z M761.95,155.7c0-8-2.5-14.8-7.5-20.3
		s-11.2-8.3-18.4-8.3s-13.3,2.8-18.4,8.3c-5,5.5-7.6,12.3-7.6,20.3s2.5,14.8,7.6,20.3c5,5.5,11.2,8.3,18.4,8.3s13.3-2.8,18.4-8.3
		C759.45,170.5,761.95,163.7,761.95,155.7z"/>
</g>
<path class="st0" d="M772.65,68.8V57.4h90.6v11.4h-38.9v129.6h-12.8V68.8H772.65z"/>
<path class="st0" d="M862.95,198.4V57.6h11.3v72.7c3.5-5.1,7.7-9,12.8-11.6c5-2.6,10.8-3.9,17.4-3.9c9.6,0,17.1,2.5,22.5,7.6
	s8,12.2,8,21.3v54.7h-11.9v-49.7c0-8.1-1.8-14-5.3-17.9c-3.5-3.9-9.1-5.9-16.5-5.9c-9.1,0-15.7,2.5-20,7.6s-6.4,13-6.4,23.8v42
	h-11.9L862.95,198.4L862.95,198.4z"/>
<path class="st0" d="M945.65,159c0-13.2,3.8-23.9,11.5-32s17.7-12.2,30.1-12.2c11.8,0,21.3,3.7,28.4,11.2
	c7.1,7.5,10.7,17.5,10.7,29.9v2.5h-67.9c0.3,10.4,3.1,18.6,8.3,24.5s12.2,8.9,20.9,8.9c6.3,0,11.8-1.6,16.6-4.8s8.7-8.1,11.9-14.5
	l10.9,5.6c-4.4,8.2-9.7,14.2-16,18s-14.1,5.8-23.3,5.8c-12.5,0-22.7-4-30.4-11.9C949.45,182.2,945.65,171.8,945.65,159z
	 M959.15,148.9h53.1c-0.6-7.4-3.2-13.1-7.8-17.2c-4.6-4.1-10.9-6.1-18.8-6.1c-7.2,0-13.2,2.1-18.1,6.4
	C962.75,136.2,959.95,141.9,959.15,148.9z"/>
<path class="st0" d="M1031.05,158.3c0-5.9,1.2-11.4,3.5-16.7s5.6-9.9,9.9-14c4.4-4.1,9.3-7.3,14.9-9.4s11.5-3.3,17.6-3.3
	c6.3,0,12.3,1.1,18,3.3s10.7,5.3,15.2,9.4c4.4,4.1,7.8,8.8,10.2,14.1c2.3,5.3,3.5,10.8,3.5,16.6s-1.2,11.3-3.5,16.6
	c-2.3,5.2-5.7,9.9-10,13.9c-4.5,4.2-9.6,7.5-15.4,9.8c-5.7,2.3-11.7,3.4-18,3.4c-6.1,0-11.9-1.1-17.5-3.4
	c-5.6-2.3-10.7-5.5-15.2-9.8c-4.3-4-7.6-8.6-9.8-13.8C1032.15,169.8,1031.05,164.2,1031.05,158.3z M1043.85,158.4
	c0,9.3,3.2,17.1,9.7,23.5s14.4,9.6,23.8,9.6s17.3-3.2,23.8-9.6c6.5-6.4,9.8-14.2,9.8-23.5c0-9.4-3.2-17.3-9.7-23.6
	c-6.5-6.4-14.5-9.5-23.9-9.5s-17.3,3.2-23.8,9.5C1047.15,141.2,1043.85,149.1,1043.85,158.4z"/>
<path class="st0" d="M1135.45,198.4v-80.6h11.8v16c4.4-6.9,8.7-11.8,12.9-14.7c4.2-2.9,9.1-4.3,14.7-4.3c1.7,0,3.4,0.1,5.1,0.4
	s3.4,0.7,5.1,1.3l-3.9,10.4c-1.3-0.4-2.6-0.7-4-0.9s-2.7-0.4-4-0.4c-7.1,0-13.2,3.2-18.3,9.5c-5,6.3-7.6,14.2-7.6,23.6v39.7H1135.45
	z"/>
<path class="st0" d="M1173.15,117.8h12.6l24.5,63l22.5-63h12.6l-44.2,121.1h-12.2l14.9-41.1L1173.15,117.8z"/>
<path class="st1" d="M100.75,33.86c278.9-113.4,266.4,292.5,78.5,302.8C49.65,343.76-74.45,105.16,100.75,33.86z"/>
<path d="M250.75,235.66c27.5-13.2,30.4-135.1-40-154.9c-59.2-16.7-103.3,10.8-126.4,49.1c-10,16.6-33.4,63.7,14,112.4
	c49.7,51,95.3,41.7,73-2.8c-21.3-42.5-24-54.1-15.6-67.6c15.9-25.6,34.7-2.9,52.8,26.9C225.25,226.06,233.85,243.76,250.75,235.66"
	/>
<path class="st0" d="M636.31,284.28c-5.13,3.22-11.81,5.34-18.5,5.34c-20.52,0-24.1-19.13-24.1-31.37c0-11.5,3.46-31.65,23.27-31.65
	c8.95,0,15.51,4.23,19.93,9.84l-7.04,3.31c-2.86-3.96-7.04-7.36-13.37-7.36c-13.25,0-14.44,18.77-14.44,26.04
	c0,21.07,7.99,25.39,15.87,25.39c3.34,0,7.64-1.1,10.38-2.85v-18.49H613.4v-5.52h22.91V284.28z"/>
<path class="st0" d="M663.97,227.43h21.48c7.88,0,17.78,5.24,17.78,16.28c0,7.54-3.94,14.72-13.72,17.3l16.47,26.31l-7.16,2.67
	l-17.9-28.52h-8.95v27.32h-7.99V227.43z M671.96,255.95h11.69c6.92,0,11.22-3.96,11.22-12.24c0-8-5.01-10.76-13.13-10.76h-9.79
	V255.95z"/>
<path class="st0" d="M734.63,232.95h-10.74v-5.52h29.59v5.52h-10.86v50.32h10.86v5.52h-29.59v-5.52h10.74V232.95z"/>
<path class="st0" d="M773.99,232.95v-5.52h21c15.99,0,25.42,5.43,25.42,30.73c0,13.52-0.95,30.63-25.18,30.63h-21.24v-5.52h6.44
	v-50.32H773.99z M788.43,283.27h6.56c9.67,0,17.06-1.93,17.06-25.12c0-23.37-8.11-25.21-15.16-25.21h-8.47V283.27z"/>
<path class="st0" d="M867.64,241.41c-1.31-4.51-4.18-9.02-10.98-9.02c-7.52,0-10.5,4.69-10.5,9.84c0,4.97,1.31,6.53,13.84,12.33
	c9.79,4.51,16.47,8.28,16.47,17.76c0,9.66-6.68,17.29-20.05,17.29c-14.08,0-19.21-7.18-20.41-16.93l8-0.83
	c1.07,6.81,2.98,11.96,12.65,11.96c6.92,0,11.81-3.59,11.81-10.95c0-8.1-6.8-10.86-15.04-14.54c-9.19-4.14-15.27-7.08-15.27-16.1
	c0-8.28,7.16-15.64,18.5-15.64c11.22,0,16.71,6.16,18.73,13.89L867.64,241.41z"/>
</svg>
