<?xml version="1.0" encoding="utf-8"?>
<!-- Generator: Adobe Illustrator 24.2.0, SVG Export Plug-In . SVG Version: 6.00 Build 0)  -->
<svg version="1.1" id="Layer_2_1_" xmlns="http://www.w3.org/2000/svg" xmlns:xlink="http://www.w3.org/1999/xlink" x="0px" y="0px"
	 viewBox="0 0 1244.7 350.7" style="enable-background:new 0 0 1244.7 350.7;" xml:space="preserve">
<style type="text/css">
	.st0{fill:#FFFFFF;}
	.st1{fill:#050414;stroke:#FFFFFF;stroke-width:13;stroke-miterlimit:10;}
	.st2{fill:none;stroke:#FFFFFF;stroke-width:13;stroke-miterlimit:10;}
</style>
<g>
	<path class="st0" d="M531.4,270.5l-5.1,24l-7.1,0l11.9-55.7h16.3c3.5,0,6,0.2,7.7,0.5c1.6,0.4,3.4,1.3,5.5,2.9c2,1.6,3,4.4,3,8.4
		c0,1.1-0.3,3.2-1,6.2c-0.6,3-2.8,6-6.3,9.1c-3.6,3.1-7.7,4.6-12.4,4.6L531.4,270.5z M532.7,264.1h9c7.9,0,12.3-1.9,13.1-5.7
		c0.8-3.8,1.2-6.1,1.2-6.8c0-4.3-3.4-6.4-10.2-6.4l-9,0L532.7,264.1z"/>
	<path class="st0" d="M574.7,294.5l1.4-6.4h7.8l9.1-42.9h-7.8l1.4-6.4h22.8l-1.4,6.4l-7.8,0l-9.1,42.9l7.8,0l-1.4,6.4H574.7z"/>
	<path class="st0" d="M651.3,279.3h-19.6l-8.7,16.6l-6.6-2.5l29.2-54.7h9.2l5.8,54.7l-7.5,2.4L651.3,279.3z M650.9,272.9l-2.5-25.7
		l-13.2,25.7H650.9z"/>
	<path class="st0" d="M672.7,294.5l11.9-55.7h8.1l9.7,34.2c0.6,2.4,1.3,6.7,2,12.7c0.8-5.6,1.5-10,2.2-13.4l7.3-33.6l6.4,0
		l-11.8,55.7l-8.1,0l-9.5-34.2c-0.4-1.4-0.7-3.1-1.1-5.1c-0.4-2-0.8-4.5-1.2-7.6c-0.3,2.1-0.5,3.9-0.7,5.4c-0.2,1.5-0.7,4.2-1.5,8.1
		l-7.2,33.5L672.7,294.5z"/>
	<path class="st0" d="M754.8,237.8c4.9,0,8.5,1.6,11.1,4.7c2.5,3.1,3.8,7.6,3.8,13.4c0,3.1-0.7,8-2,14.5c-1.4,6.5-4.3,12.3-8.9,17.4
		c-4.6,5.1-10,7.7-16.2,7.7c-4.9,0-8.5-1.6-11.1-4.7c-2.5-3.1-3.8-7.6-3.8-13.5c0-1.4,0.1-2.9,0.2-4.5c0.1-1.6,0.8-5.2,2-11
		c1.2-5.7,4.2-11.2,8.8-16.3C743.3,240.3,748.7,237.8,754.8,237.8z M753.3,244.5c-4,0-7.4,1.9-10.3,5.6c-2.9,3.7-4.9,8.3-6.1,13.7
		c-1.2,5.4-1.8,9.7-1.8,12.9c0,8,2.9,12,8.8,12c4,0,7.5-1.9,10.4-5.7c2.9-3.8,5-8.4,6.2-14c1.2-5.5,1.8-9.7,1.8-12.6
		C762.2,248.5,759.3,244.5,753.3,244.5z"/>
	<path class="st0" d="M815.4,294.5l11.9-55.7l7.2,0l-5.1,24l2.6,0l24.6-25.4l4.5,4.3l-23.6,23.4l16.3,26.2l-6.5,4.6l-16.7-27.7
		l-2.5,0l-5.5,26.3L815.4,294.5z"/>
	<path class="st0" d="M867.2,294.5l11.9-55.7h34.7l-1.4,6.4h-27.5l-3.5,16.8H904l-1.4,6.4h-22.7l-4.1,19.7h27.5l-1.4,6.4H867.2z"/>
	<path class="st0" d="M940.6,266.1l20.9-28.8l5.9,3.6L942.7,273l-4.6,21.5l-7.2,0l4.6-21.6l-11.2-32l7.6-3.6L940.6,266.1z"/>
	<path class="st0" d="M972.1,278.9l6.8-2c0,7.9,3.2,11.9,9.6,11.9c3.1,0,5.8-0.9,8.1-2.6c2.3-1.7,3.6-3.5,4-5.5
		c0.4-2,0.6-3.3,0.6-4.1c0-1.5-0.6-2.8-1.9-3.9c-1.2-1.1-3.9-2.6-8-4.4c-4.1-1.9-6.9-3.4-8.5-4.7c-2.4-1.6-3.5-4.1-3.5-7.3
		c0-0.5,0-0.9,0.1-1.3c0-0.4,0.4-1.9,1-4.7c0.6-2.7,2.7-5.5,6.3-8.3c3.6-2.8,7.8-4.2,12.7-4.2c9.3,0,13.9,4.7,13.9,14l-7.3,2
		c0-6.3-2.8-9.4-8.3-9.4c-2.6,0-4.9,0.7-6.9,2.1c-2,1.4-3.1,2.9-3.4,4.4c-0.3,1.5-0.5,2.5-0.5,2.9c0,1.9,0.5,3.3,1.4,4.1
		c1,0.8,1.7,1.3,2.3,1.6c0.6,0.3,2.9,1.4,6.9,3.2c4,1.9,6.9,3.7,8.7,5.5c1.7,1.8,2.6,4,2.6,6.7c0,1.1-0.4,3.4-1.1,6.6
		c-0.7,3.3-3,6.4-6.8,9.4s-8.4,4.5-13.7,4.5C977.1,295.5,972.1,289.9,972.1,278.9z"/>
</g>
<path class="st1" d="M100.4,33.9c278.9-113.4,266.4,292.5,78.5,302.8C49.3,343.8-74.8,105.2,100.4,33.9z"/>
<path class="st0" d="M250.4,235.7c27.5-13.2,30.4-135.1-40-154.9C151.2,64.1,107.1,91.6,84,129.9c-10,16.6-33.4,63.7,14,112.4
	c49.7,51,95.3,41.7,73-2.8c-21.3-42.5-24-54.1-15.6-67.6c15.9-25.6,34.7-2.9,52.8,26.9C224.9,226.1,233.5,243.8,250.4,235.7"/>
<path class="st2" d="M100.4,33.9c278.9-113.4,266.4,292.5,78.5,302.8C49.3,343.8-74.8,105.2,100.4,33.9z"/>
<g>
	<path class="st0" d="M450.2,198.3L435.5,164h-51.4L369,198.2h-22.1L409.7,60l62.7,138.2L450.2,198.3L450.2,198.3z M392,146.1h36.1
		l-13.3-30.3c-0.8-1.9-1.6-4.2-2.4-6.7s-1.7-5.3-2.5-8.4c-0.7,2.9-1.5,5.6-2.3,8.1s-1.6,4.8-2.4,6.9L392,146.1z"/>
	<path class="st0" d="M489.9,112.2v48.5c0,8.4,1.7,14.3,5,18c3.4,3.6,8.8,5.4,16.4,5.4c7.6,0,13-1.8,16.4-5.4c3.4-3.6,5-9.6,5-18
		v-48.5h19.2v42.6c0,16.5-3.2,28.4-9.7,35.9s-16.7,11.2-30.8,11.2c-14.3,0-24.7-3.7-31.2-11.1c-6.4-7.4-9.7-19.4-9.7-36v-42.6
		L489.9,112.2L489.9,112.2z"/>
	<path class="st0" d="M625.9,57.5h19.2v140.8h-19.2v-11.2c-3.4,5-7.4,8.7-12,11.1c-4.6,2.4-9.8,3.6-15.7,3.6
		c-11.9,0-21.2-4.2-28-12.5S560,169.6,560,155.1c0-13.7,3.5-24.8,10.4-33.3c7-8.4,16.1-12.7,27.3-12.7c6.8,0,12.7,1.5,17.6,4.4
		c4.9,2.9,8.4,7.2,10.7,12.7L625.9,57.5L625.9,57.5z M626.4,155c0-8.9-2-15.8-6.1-20.8c-4-5-9.7-7.4-17-7.4s-13,2.6-17.1,7.7
		c-4.2,5.1-6.2,12.2-6.2,21.3s2,16.2,6,21.2s9.7,7.4,17,7.4c7,0,12.6-2.7,16.9-8C624.3,170.9,626.4,163.8,626.4,155z"/>
	<path class="st0" d="M658.2,75c0-3.3,1.2-6.2,3.6-8.6c2.4-2.4,5.2-3.6,8.5-3.6c3.4,0,6.3,1.2,8.5,3.5c2.3,2.3,3.4,5.3,3.4,8.8
		s-1.2,6.5-3.5,8.9s-5.1,3.6-8.5,3.6c-3.3,0-6.2-1.2-8.5-3.7C659.4,81.3,658.2,78.3,658.2,75z M660.8,198.3v-86.1H680v86.1H660.8z"
		/>
	<path class="st0" d="M689.4,155.3c0-6.3,1.2-12.2,3.5-17.8s5.7-10.6,10.1-14.9c4.3-4.3,9.3-7.6,14.9-9.9c5.6-2.3,11.5-3.5,17.6-3.5
		c6.3,0,12.3,1.2,17.8,3.5c5.6,2.3,10.6,5.7,15,10.2c4.4,4.4,7.8,9.4,10.1,15s3.5,11.4,3.5,17.5c0,6.4-1.1,12.3-3.4,17.9
		c-2.3,5.6-5.6,10.5-10,14.8c-4.6,4.5-9.7,8-15.3,10.3s-11.5,3.5-17.7,3.5c-6.1,0-11.9-1.2-17.5-3.5s-10.6-5.7-15-10.1
		c-4.4-4.5-7.8-9.5-10.1-15.1C690.6,167.6,689.4,161.6,689.4,155.3z M761.6,155.5c0-8-2.5-14.8-7.5-20.3s-11.2-8.3-18.4-8.3
		s-13.3,2.8-18.4,8.3c-5,5.5-7.6,12.3-7.6,20.3s2.5,14.8,7.6,20.3c5,5.5,11.2,8.3,18.4,8.3s13.3-2.8,18.4-8.3
		C759.1,170.3,761.6,163.5,761.6,155.5z"/>
</g>
<path class="st0" d="M772.3,68.6V57.2h90.6v11.4H824v129.6h-12.8V68.6H772.3z"/>
<path class="st0" d="M862.6,198.2V57.4h11.3v72.7c3.5-5.1,7.7-9,12.8-11.6c5-2.6,10.8-3.9,17.4-3.9c9.6,0,17.1,2.5,22.5,7.6
	s8,12.2,8,21.3v54.7h-11.9v-49.7c0-8.1-1.8-14-5.3-17.9c-3.5-3.9-9.1-5.9-16.5-5.9c-9.1,0-15.7,2.5-20,7.6s-6.4,13-6.4,23.8v42
	h-11.9L862.6,198.2L862.6,198.2z"/>
<path class="st0" d="M945.3,158.8c0-13.2,3.8-23.9,11.5-32s17.7-12.2,30.1-12.2c11.8,0,21.3,3.7,28.4,11.2
	c7.1,7.5,10.7,17.5,10.7,29.9v2.5h-67.9c0.3,10.4,3.1,18.6,8.3,24.5s12.2,8.9,20.9,8.9c6.3,0,11.8-1.6,16.6-4.8s8.7-8.1,11.9-14.5
	l10.9,5.6c-4.4,8.2-9.7,14.2-16,18s-14.1,5.8-23.3,5.8c-12.5,0-22.7-4-30.4-11.9C949.1,182,945.3,171.6,945.3,158.8z M958.8,148.7
	h53.1c-0.6-7.4-3.2-13.1-7.8-17.2c-4.6-4.1-10.9-6.1-18.8-6.1c-7.2,0-13.2,2.1-18.1,6.4C962.4,136,959.6,141.7,958.8,148.7z"/>
<path class="st0" d="M1030.7,158.1c0-5.9,1.2-11.4,3.5-16.7s5.6-9.9,9.9-14c4.4-4.1,9.3-7.3,14.9-9.4s11.5-3.3,17.6-3.3
	c6.3,0,12.3,1.1,18,3.3s10.7,5.3,15.2,9.4c4.4,4.1,7.8,8.8,10.2,14.1c2.3,5.3,3.5,10.8,3.5,16.6s-1.2,11.3-3.5,16.6
	c-2.3,5.2-5.7,9.9-10,13.9c-4.5,4.2-9.6,7.5-15.4,9.8c-5.7,2.3-11.7,3.4-18,3.4c-6.1,0-11.9-1.1-17.5-3.4
	c-5.6-2.3-10.7-5.5-15.2-9.8c-4.3-4-7.6-8.6-9.8-13.8C1031.8,169.6,1030.7,164,1030.7,158.1z M1043.5,158.2c0,9.3,3.2,17.1,9.7,23.5
	s14.4,9.6,23.8,9.6s17.3-3.2,23.8-9.6c6.5-6.4,9.8-14.2,9.8-23.5c0-9.4-3.2-17.3-9.7-23.6c-6.5-6.4-14.5-9.5-23.9-9.5
	s-17.3,3.2-23.8,9.5C1046.8,141,1043.5,148.9,1043.5,158.2z"/>
<path class="st0" d="M1135.1,198.2v-80.6h11.8v16c4.4-6.9,8.7-11.8,12.9-14.7c4.2-2.9,9.1-4.3,14.7-4.3c1.7,0,3.4,0.1,5.1,0.4
	s3.4,0.7,5.1,1.3l-3.9,10.4c-1.3-0.4-2.6-0.7-4-0.9s-2.7-0.4-4-0.4c-7.1,0-13.2,3.2-18.3,9.5c-5,6.3-7.6,14.2-7.6,23.6v39.7H1135.1z
	"/>
<path class="st0" d="M1172.8,117.6h12.6l24.5,63l22.5-63h12.6l-44.2,121.1h-12.2l14.9-41.1L1172.8,117.6z"/>
</svg>
