<?xml version="1.0" encoding="utf-8"?>
<!-- Generator: Adobe Illustrator 23.0.2, SVG Export Plug-In . SVG Version: 6.00 Build 0)  -->
<svg version="1.1" id="Layer_1" xmlns="http://www.w3.org/2000/svg" xmlns:xlink="http://www.w3.org/1999/xlink" x="0px" y="0px"
	 viewBox="0 0 329 350.7" style="enable-background:new 0 0 329 350.7;" xml:space="preserve">
<style type="text/css">
	.st0{fill:none;stroke:#000000;stroke-width:13;stroke-miterlimit:10;}
</style>
<path d="M250.1,236.9c27.5-13.2,30.4-135.1-40-154.9c-59.2-16.7-103.3,10.8-126.4,49.1c-10,16.6-33.4,63.7,14,112.4
	c49.7,51,95.3,41.7,73-2.8c-21.3-42.5-24-54.1-15.6-67.6c15.9-25.6,34.7-2.9,52.8,26.9C224.6,227.3,233.2,245,250.1,236.9"/>
<path class="st0" d="M100.1,35.1C379-78.3,366.5,327.6,178.6,337.9C49,345-75.1,106.4,100.1,35.1z"/>
<g>
	<path d="M368.7,199.4h-22.1"/>
</g>
</svg>
