<?xml version="1.0" encoding="utf-8"?>
<!-- Generator: Adobe Illustrator 23.0.2, SVG Export Plug-In . SVG Version: 6.00 Build 0)  -->
<svg version="1.1" id="Layer_1" xmlns="http://www.w3.org/2000/svg" xmlns:xlink="http://www.w3.org/1999/xlink" x="0px" y="0px"
	 viewBox="0 0 1258.1 350.7" style="enable-background:new 0 0 1258.1 350.7;" xml:space="preserve">
<style type="text/css">
	.st0{fill:none;stroke:#000000;stroke-width:13;stroke-miterlimit:10;}
</style>
<path d="M258.5,236.9c27.5-13.2,30.4-135.1-40-154.9c-59.2-16.7-103.3,10.8-126.4,49.1c-10,16.6-33.4,63.7,14,112.4
	c49.7,51,95.3,41.7,73-2.8c-21.3-42.5-24-54.1-15.6-67.6c15.9-25.6,34.7-2.9,52.8,26.9C233,227.3,241.6,245,258.5,236.9"/>
<path class="st0" d="M108.5,35.1C387.4-78.3,374.9,327.6,187,337.9C57.4,345-66.7,106.4,108.5,35.1z"/>
<g>
	<path d="M463.3,223.5l-14.7-34.3h-51.4l-15.1,34.2l-22.1-11l62.8-127.2l62.7,138.2L463.3,223.5L463.3,223.5z M405.1,171.3h36.1
		L427.9,141c-0.8-1.9-1.6-4.2-2.4-6.7s-1.7-5.3-2.5-8.4c-0.7,2.9-1.5,5.6-2.3,8.1s-1.6,4.8-2.4,6.9L405.1,171.3z"/>
	<path d="M503,137.4v48.5c0,8.4,1.7,14.3,5,18c3.4,3.6,8.8,5.4,16.4,5.4c7.6,0,13-1.8,16.4-5.4c3.4-3.6,5-9.6,5-18v-48.5H565V180
		c0,16.5-3.2,28.4-9.7,35.9s-16.7,11.2-30.8,11.2c-14.3,0-24.7-3.7-31.2-11.1c-6.4-7.4-9.7-19.4-9.7-36v-42.6L503,137.4L503,137.4z"
		/>
	<path d="M639,82.7h19.2v140.8H639v-11.2c-3.4,5-7.4,8.7-12,11.1c-4.6,2.4-9.8,3.6-15.7,3.6c-11.9,0-21.2-4.2-28-12.5
		s-10.2-19.7-10.2-34.2c0-13.7,3.5-24.8,10.4-33.3c7-8.4,16.1-12.7,27.3-12.7c6.8,0,12.7,1.5,17.6,4.4c4.9,2.9,8.4,7.2,10.7,12.7
		L639,82.7L639,82.7z M639.5,180.2c0-8.9-2-15.8-6.1-20.8c-4-5-9.7-7.4-17-7.4s-13,2.6-17.1,7.7c-4.2,5.1-6.2,12.2-6.2,21.3
		s2,16.2,6,21.2s9.7,7.4,17,7.4c7,0,12.6-2.7,16.9-8C637.4,196.1,639.5,189,639.5,180.2z"/>
	<path d="M671.3,100.2c0-3.3,1.2-6.2,3.6-8.6s5.2-3.6,8.5-3.6c3.4,0,6.3,1.2,8.5,3.5c2.3,2.3,3.4,5.3,3.4,8.8s-1.2,6.5-3.5,8.9
		s-5.1,3.6-8.5,3.6c-3.3,0-6.2-1.2-8.5-3.7C672.5,106.5,671.3,103.5,671.3,100.2z M673.9,223.5v-86.1h19.2v86.1H673.9z"/>
	<path d="M702.5,180.5c0-6.3,1.2-12.2,3.5-17.8s5.7-10.6,10.1-14.9c4.3-4.3,9.3-7.6,14.9-9.9c5.6-2.3,11.5-3.5,17.6-3.5
		c6.3,0,12.3,1.2,17.8,3.5c5.6,2.3,10.6,5.7,15,10.2c4.4,4.4,7.8,9.4,10.1,15s3.5,11.4,3.5,17.5c0,6.4-1.1,12.3-3.4,17.9
		c-2.3,5.6-5.6,10.5-10,14.8c-4.6,4.5-9.7,8-15.3,10.3s-11.5,3.5-17.7,3.5c-6.1,0-11.9-1.2-17.5-3.5s-10.6-5.7-15-10.1
		c-4.4-4.5-7.8-9.5-10.1-15.1C703.7,192.8,702.5,186.8,702.5,180.5z M774.7,180.7c0-8-2.5-14.8-7.5-20.3s-11.2-8.3-18.4-8.3
		s-13.3,2.8-18.4,8.3c-5,5.5-7.6,12.3-7.6,20.3s2.5,14.8,7.6,20.3c5,5.5,11.2,8.3,18.4,8.3s13.3-2.8,18.4-8.3
		C772.2,195.5,774.7,188.7,774.7,180.7z"/>
</g>
<path d="M785.4,93.8V82.4H876v11.4h-38.9v129.6h-12.8V93.8H785.4z"/>
<path d="M875.7,223.4V82.6H887v72.7c3.5-5.1,7.7-9,12.8-11.6c5-2.6,10.8-3.9,17.4-3.9c9.6,0,17.1,2.5,22.5,7.6
	c5.4,5.1,8,12.2,8,21.3v54.7h-11.9v-49.7c0-8.1-1.8-14-5.3-17.9c-3.5-3.9-9.1-5.9-16.5-5.9c-9.1,0-15.7,2.5-20,7.6s-6.4,13-6.4,23.8
	v42h-11.9L875.7,223.4L875.7,223.4z"/>
<path d="M958.4,184c0-13.2,3.8-23.9,11.5-32s17.7-12.2,30.1-12.2c11.8,0,21.3,3.7,28.4,11.2s10.7,17.5,10.7,29.9v2.5h-67.9
	c0.3,10.4,3.1,18.6,8.3,24.5s12.2,8.9,20.9,8.9c6.3,0,11.8-1.6,16.6-4.8s8.7-8.1,11.9-14.5l10.9,5.6c-4.4,8.2-9.7,14.2-16,18
	s-14.1,5.8-23.3,5.8c-12.5,0-22.7-4-30.4-11.9C962.2,207.2,958.4,196.8,958.4,184z M971.9,173.9h53.1c-0.6-7.4-3.2-13.1-7.8-17.2
	c-4.6-4.1-10.9-6.1-18.8-6.1c-7.2,0-13.2,2.1-18.1,6.4C975.5,161.2,972.7,166.9,971.9,173.9z"/>
<path d="M1043.8,183.3c0-5.9,1.2-11.4,3.5-16.7s5.6-9.9,9.9-14c4.4-4.1,9.3-7.3,14.9-9.4c5.6-2.1,11.5-3.3,17.6-3.3
	c6.3,0,12.3,1.1,18,3.3c5.7,2.2,10.7,5.3,15.2,9.4c4.4,4.1,7.8,8.8,10.2,14.1c2.3,5.3,3.5,10.8,3.5,16.6s-1.2,11.3-3.5,16.6
	c-2.3,5.2-5.7,9.9-10,13.9c-4.5,4.2-9.6,7.5-15.4,9.8c-5.7,2.3-11.7,3.4-18,3.4c-6.1,0-11.9-1.1-17.5-3.4
	c-5.6-2.3-10.7-5.5-15.2-9.8c-4.3-4-7.6-8.6-9.8-13.8C1044.9,194.8,1043.8,189.2,1043.8,183.3z M1056.6,183.4
	c0,9.3,3.2,17.1,9.7,23.5s14.4,9.6,23.8,9.6s17.3-3.2,23.8-9.6c6.5-6.4,9.8-14.2,9.8-23.5c0-9.4-3.2-17.3-9.7-23.6
	c-6.5-6.4-14.5-9.5-23.9-9.5s-17.3,3.2-23.8,9.5C1059.9,166.2,1056.6,174.1,1056.6,183.4z"/>
<path d="M1148.2,223.4v-80.6h11.8v16c4.4-6.9,8.7-11.8,12.9-14.7c4.2-2.9,9.1-4.3,14.7-4.3c1.7,0,3.4,0.1,5.1,0.4s3.4,0.7,5.1,1.3
	l-3.9,10.4c-1.3-0.4-2.6-0.7-4-0.9c-1.4-0.2-2.7-0.4-4-0.4c-7.1,0-13.2,3.2-18.3,9.5c-5,6.3-7.6,14.2-7.6,23.6v39.7H1148.2z"/>
<path d="M1185.9,142.8h12.6l24.5,63l22.5-63h12.6l-44.2,121.1h-12.2l14.9-41.1L1185.9,142.8z"/>
</svg>
