<?xml version="1.0" encoding="utf-8"?>
<!-- Generator: Adobe Illustrator 23.0.2, SVG Export Plug-In . SVG Version: 6.00 Build 0)  -->
<svg version="1.1" id="Layer_1" xmlns="http://www.w3.org/2000/svg" xmlns:xlink="http://www.w3.org/1999/xlink" x="0px" y="0px"
	 viewBox="0 0 550.9 337" style="enable-background:new 0 0 550.9 337;" xml:space="preserve">
<style type="text/css">
	.st0{opacity:0.17;}
	.st1{fill:#CCCCCC;stroke:#000000;stroke-miterlimit:10;}
	.st2{fill:none;stroke:#999999;stroke-width:0.5;stroke-miterlimit:10;}
	.st3{fill:none;stroke:#999999;stroke-width:2;stroke-miterlimit:10;}
	.st4{fill:#F2F2F2;}
	.st5{fill:#FFFFFF;}
	.st6{fill:#7282A6;}
	.st7{fill:#A9A856;}
	.st8{fill:#618073;}
	.st9{fill:#C777A9;}
	.st10{fill:#C89367;}
	.st11{fill:none;stroke:#CCCCCC;stroke-width:0.3;stroke-miterlimit:10;}
	.st12{fill:#B15452;}
	.st13{display:none;}
	.st14{display:inline;fill:none;}
	.st15{display:inline;}
	.st16{font-family:'Helvetica-Bold';}
	.st17{font-size:12px;}
	.st18{fill:#7C6D94;}
</style>
<g id="Layer_4">
	<g class="st0">
		<g>
			<path class="st1" d="M230.3,118.6c6.6,0,12-5.4,12-12s-5.4-12-12-12h-200c-6.6,0-12,5.4-12,12s5.4,12,12,12H230.3z"/>
		</g>
	</g>
	<rect x="29.5" y="86.5" class="st2" width="202" height="202"/>
	<line class="st2" x1="70.5" y1="86.5" x2="70.5" y2="288.5"/>
	<line class="st2" x1="111.5" y1="86.5" x2="111.5" y2="288.5"/>
	<line class="st2" x1="151.5" y1="86.5" x2="151.5" y2="288.5"/>
	<line class="st2" x1="190.5" y1="86.5" x2="190.5" y2="288.5"/>
	<line class="st2" x1="231.5" y1="127.5" x2="29.5" y2="127.5"/>
	<line class="st2" x1="231.5" y1="168.5" x2="29.5" y2="168.5"/>
	<line class="st2" x1="231.5" y1="208.5" x2="29.5" y2="208.5"/>
	<line class="st2" x1="231.5" y1="247.5" x2="29.5" y2="247.5"/>
	<line class="st3" x1="231.5" y1="86.5" x2="29.5" y2="86.5"/>
	<g>
		<path class="st4" d="M123.2,0.4h14.9V4h-10.5v4.8h9.2v3.6h-9.2v8.8h-4.3V0.4H123.2z"/>
	</g>
	<g>
		<g>
			
				<ellipse transform="matrix(0.3162 -0.9487 0.9487 0.3162 -36.7231 245.2284)" class="st5" cx="151.8" cy="148.1" rx="12" ry="12"/>
		</g>
		<g>
			<path d="M148.2,151.3c0.3-0.8,1.1-1.6,2.2-2.4c1-0.7,1.7-1.3,2-1.6c0.5-0.5,0.7-1,0.7-1.6c0-0.5-0.1-0.9-0.4-1.2
				s-0.6-0.5-1.1-0.5c-0.7,0-1.1,0.3-1.4,0.8c-0.1,0.3-0.2,0.8-0.2,1.4h-2.2c0-1,0.2-1.7,0.5-2.3c0.6-1.1,1.7-1.7,3.2-1.7
				c1.2,0,2.2,0.3,2.9,1s1.1,1.5,1.1,2.6c0,0.8-0.2,1.6-0.8,2.2c-0.3,0.4-0.9,0.9-1.6,1.4l-0.9,0.6c-0.6,0.4-0.9,0.7-1.1,0.9
				s-0.4,0.4-0.5,0.6h4.9v2h-7.8C147.7,152.7,147.9,151.9,148.2,151.3z"/>
		</g>
	</g>
	<g>
		<g>
			<circle class="st5" cx="111.7" cy="189.1" r="12"/>
		</g>
		<g>
			<path d="M109.8,191c0,0.5,0.1,0.8,0.2,1.1c0.3,0.5,0.8,0.8,1.5,0.8c0.4,0,0.8-0.1,1.1-0.4c0.3-0.3,0.5-0.7,0.5-1.3
				c0-0.7-0.3-1.2-0.9-1.5c-0.3-0.1-0.9-0.2-1.6-0.2v-1.6c0.7,0,1.2-0.1,1.5-0.2c0.5-0.2,0.7-0.7,0.7-1.3c0-0.4-0.1-0.8-0.4-1.1
				s-0.6-0.4-1.1-0.4s-0.9,0.2-1.2,0.5s-0.4,0.8-0.4,1.3h-2.1c0-0.6,0.1-1.1,0.3-1.6c0.2-0.4,0.5-0.9,0.9-1.2c0.3-0.3,0.6-0.5,1-0.6
				s0.9-0.2,1.5-0.2c1.1,0,2,0.3,2.6,0.8s1,1.3,1,2.3c0,0.7-0.2,1.2-0.6,1.7c-0.2,0.3-0.5,0.5-0.8,0.6c0.2,0,0.5,0.2,0.9,0.5
				c0.6,0.5,0.9,1.2,0.9,2.2s-0.3,1.8-1,2.5s-1.6,1.1-2.9,1.1c-1.6,0-2.7-0.5-3.3-1.6c-0.3-0.6-0.5-1.3-0.5-2.2L109.8,191L109.8,191
				z"/>
		</g>
	</g>
	<g>
		<g>
			<circle class="st5" cx="71.2" cy="189.1" r="12"/>
		</g>
		<g>
			<path d="M75.1,192.1h-1.3v2.4h-2.2v-2.4h-4.5v-1.9l4.2-6.9h2.5v7.1h1.3V192.1z M71.6,190.3v-4.9l-2.8,4.9H71.6z"/>
		</g>
	</g>
	<g>
		<circle class="st6" cx="28.1" cy="313.3" r="12"/>
		<g>
			<path class="st5" d="M25.1,307.4h7.4v1.8h-5.3v2.4h4.6v1.8h-4.6v4.4H25L25.1,307.4L25.1,307.4z"/>
		</g>
	</g>
	<g>
		<circle class="st6" cx="112.1" cy="313.3" r="12"/>
		<g>
			<path class="st5" d="M109.1,307.4h7.4v1.8h-5.3v2.4h4.6v1.8h-4.6v4.4H109L109.1,307.4L109.1,307.4z"/>
		</g>
	</g>
	<g>
		<circle class="st6" cx="231.1" cy="313.3" r="12"/>
		<g>
			<path class="st5" d="M228.1,307.4h7.4v1.8h-5.3v2.4h4.6v1.8h-4.6v4.4H228L228.1,307.4L228.1,307.4z"/>
		</g>
	</g>
	<g>
		<circle class="st7" cx="191.8" cy="313.3" r="12"/>
		<g>
			<path class="st5" d="M188.6,308.7c0.8-0.9,1.9-1.3,3.2-1.3c1.7,0,3,0.6,3.8,1.7c0.4,0.6,0.7,1.3,0.7,1.9h-2.2
				c-0.1-0.5-0.3-0.9-0.5-1.1c-0.4-0.5-1-0.7-1.7-0.7c-0.8,0-1.4,0.3-1.8,1c-0.4,0.6-0.7,1.5-0.7,2.7s0.2,2,0.7,2.6s1.1,0.9,1.8,0.9
				c0.7,0,1.3-0.2,1.7-0.7c0.2-0.3,0.4-0.7,0.5-1.2h2.2c-0.2,1.1-0.7,2.1-1.4,2.8c-0.8,0.7-1.7,1.1-2.9,1.1c-1.5,0-2.6-0.5-3.5-1.4
				c-0.8-1-1.3-2.3-1.3-4C187.2,311.1,187.7,309.7,188.6,308.7z"/>
		</g>
	</g>
	<g>
		<circle class="st7" cx="70.8" cy="313.3" r="12"/>
		<g>
			<path class="st5" d="M67.6,308.7c0.8-0.9,1.9-1.3,3.2-1.3c1.7,0,3,0.6,3.8,1.7c0.4,0.6,0.7,1.3,0.7,1.9h-2.2
				c-0.1-0.5-0.3-0.9-0.5-1.1c-0.4-0.5-1-0.7-1.7-0.7c-0.8,0-1.4,0.3-1.8,1c-0.4,0.6-0.7,1.5-0.7,2.7s0.2,2,0.7,2.6s1.1,0.9,1.8,0.9
				s1.3-0.2,1.7-0.7c0.2-0.3,0.4-0.7,0.5-1.2h2.2c-0.2,1.1-0.7,2.1-1.4,2.8c-0.8,0.7-1.7,1.1-2.9,1.1c-1.5,0-2.6-0.5-3.5-1.4
				c-0.8-1-1.3-2.3-1.3-4C66.2,311.1,66.7,309.7,67.6,308.7z"/>
		</g>
	</g>
	<rect x="318.5" y="86.5" class="st2" width="202" height="202"/>
	<line class="st2" x1="359.5" y1="86.5" x2="359.5" y2="288.5"/>
	<line class="st2" x1="400.5" y1="86.5" x2="400.5" y2="288.5"/>
	<line class="st2" x1="440.5" y1="86.5" x2="440.5" y2="288.5"/>
	<line class="st2" x1="479.5" y1="86.5" x2="479.5" y2="288.5"/>
	<line class="st2" x1="520.5" y1="127.5" x2="318.5" y2="127.5"/>
	<line class="st2" x1="520.5" y1="168.5" x2="318.5" y2="168.5"/>
	<line class="st2" x1="520.5" y1="208.5" x2="318.5" y2="208.5"/>
	<line class="st2" x1="520.5" y1="247.5" x2="318.5" y2="247.5"/>
	<line class="st3" x1="520.5" y1="86.5" x2="318.5" y2="86.5"/>
	<g>
		<path class="st4" d="M423.8,6.9c-0.3-1.4-1.1-2.4-2.4-3c-0.7-0.3-1.5-0.5-2.4-0.5c-1.7,0-3.1,0.6-4.1,1.9
			c-1.1,1.3-1.6,3.2-1.6,5.7c0,2.6,0.6,4.4,1.8,5.4s2.5,1.6,4,1.6s2.7-0.4,3.6-1.3c0.9-0.9,1.5-1.9,1.7-3.3h-4.8V10h8.7v11.2h-2.9
			l-0.4-2.6c-0.8,1-1.6,1.7-2.3,2.1c-1.2,0.7-2.6,1.1-4.2,1.1c-2.8,0-5-1-6.8-2.9s-2.8-4.6-2.8-7.9c0-3.4,0.9-6.1,2.8-8.1
			s4.3-3.1,7.4-3.1c2.7,0,4.8,0.7,6.4,2s2.5,3,2.8,5L423.8,6.9L423.8,6.9z"/>
	</g>
	<g>
		<path class="st4" d="M482.1,62.7c0.9,0.9,1.3,2.1,1.3,3.8c0,1.6-0.4,2.9-1.2,4c-0.8,1-2,1.6-3.6,1.6c-1.4,0-2.4-0.5-3.2-1.4
			c-0.8-0.9-1.2-2.2-1.2-3.7c0-1.7,0.4-3,1.3-4c0.8-1,2-1.5,3.4-1.5C480.2,61.4,481.3,61.9,482.1,62.7z M481.1,69.3
			c0.4-0.8,0.6-1.8,0.6-2.8c0-0.9-0.1-1.7-0.4-2.3c-0.5-0.9-1.3-1.4-2.4-1.4c-1,0-1.7,0.4-2.2,1.2s-0.7,1.7-0.7,2.8s0.2,1.9,0.7,2.6
			s1.2,1.1,2.2,1.1C479.9,70.6,480.7,70.2,481.1,69.3z"/>
	</g>
	<g>
		<path class="st4" d="M441.1,62.7c0.9,0.9,1.3,2.1,1.3,3.8c0,1.6-0.4,2.9-1.2,4c-0.8,1-2,1.6-3.6,1.6c-1.4,0-2.4-0.5-3.2-1.4
			c-0.8-0.9-1.2-2.2-1.2-3.7c0-1.7,0.4-3,1.3-4c0.8-1,2-1.5,3.4-1.5C439.2,61.4,440.3,61.9,441.1,62.7z M440.1,69.3
			c0.4-0.8,0.6-1.8,0.6-2.8c0-0.9-0.1-1.7-0.4-2.3c-0.5-0.9-1.3-1.4-2.4-1.4c-1,0-1.7,0.4-2.2,1.2s-0.7,1.7-0.7,2.8s0.2,1.9,0.7,2.6
			s1.2,1.1,2.2,1.1C438.9,70.6,439.7,70.2,440.1,69.3z"/>
	</g>
	<g>
		<path class="st4" d="M401.1,62.7c0.9,0.9,1.3,2.1,1.3,3.8c0,1.6-0.4,2.9-1.2,4c-0.8,1-2,1.6-3.6,1.6c-1.4,0-2.4-0.5-3.2-1.4
			c-0.8-0.9-1.2-2.2-1.2-3.7c0-1.7,0.4-3,1.3-4c0.8-1,2-1.5,3.4-1.5C399.2,61.4,400.3,61.9,401.1,62.7z M400.1,69.3
			c0.4-0.8,0.6-1.8,0.6-2.8c0-0.9-0.1-1.7-0.4-2.3c-0.5-0.9-1.3-1.4-2.4-1.4c-1,0-1.7,0.4-2.2,1.2s-0.7,1.7-0.7,2.8s0.2,1.9,0.7,2.6
			s1.2,1.1,2.2,1.1C398.9,70.6,399.7,70.2,400.1,69.3z"/>
	</g>
	<g>
		<circle class="st8" cx="521.3" cy="313.6" r="12"/>
		<g>
			<path class="st5" d="M524,311.1c-0.2-0.7-0.6-1.2-1.2-1.5c-0.4-0.2-0.8-0.2-1.2-0.2c-0.8,0-1.5,0.3-2.1,0.9
				c-0.5,0.6-0.8,1.6-0.8,2.8c0,1.3,0.3,2.2,0.9,2.7s1.2,0.8,2,0.8c0.7,0,1.3-0.2,1.8-0.6s0.8-1,0.9-1.6h-2.4v-1.7h4.3v5.6h-1.4
				l-0.2-1.3c-0.4,0.5-0.8,0.8-1.1,1c-0.6,0.4-1.3,0.5-2.1,0.5c-1.4,0-2.5-0.5-3.4-1.4c-0.9-1-1.4-2.3-1.4-3.9c0-1.7,0.5-3,1.4-4
				s2.1-1.5,3.7-1.5c1.3,0,2.4,0.3,3.2,1c0.8,0.7,1.3,1.5,1.4,2.5L524,311.1L524,311.1z"/>
		</g>
	</g>
	<g>
		<circle class="st8" cx="320.3" cy="313.6" r="12"/>
		<g>
			<path class="st5" d="M323,311.1c-0.2-0.7-0.6-1.2-1.2-1.5c-0.4-0.2-0.8-0.2-1.2-0.2c-0.8,0-1.5,0.3-2.1,0.9
				c-0.5,0.6-0.8,1.6-0.8,2.8c0,1.3,0.3,2.2,0.9,2.7s1.2,0.8,2,0.8c0.7,0,1.3-0.2,1.8-0.6s0.8-1,0.9-1.6h-2.4v-1.7h4.3v5.6h-1.4
				l-0.2-1.3c-0.4,0.5-0.8,0.8-1.1,1c-0.6,0.4-1.3,0.5-2.1,0.5c-1.4,0-2.5-0.5-3.4-1.4c-0.9-1-1.4-2.3-1.4-3.9c0-1.7,0.5-3,1.4-4
				s2.1-1.5,3.7-1.5c1.3,0,2.4,0.3,3.2,1c0.8,0.7,1.3,1.5,1.4,2.5L323,311.1L323,311.1z"/>
		</g>
	</g>
	<g>
		<circle class="st9" cx="480.3" cy="313.3" r="12"/>
		<g>
			<path class="st5" d="M483.8,308.7c0.3,0.4,0.5,1,0.5,1.6s-0.2,1.1-0.5,1.5c-0.2,0.2-0.4,0.4-0.8,0.6c0.5,0.2,0.9,0.5,1.2,0.9
				c0.3,0.4,0.4,0.9,0.4,1.5s-0.2,1.2-0.5,1.7c-0.2,0.3-0.4,0.6-0.7,0.8c-0.3,0.3-0.7,0.4-1.2,0.5s-0.9,0.1-1.5,0.1H476v-10.4h5
				C482.4,307.6,483.3,308,483.8,308.7z M478.2,309.4v2.3h2.5c0.5,0,0.8-0.1,1.1-0.3c0.3-0.2,0.4-0.5,0.4-0.9c0-0.5-0.2-0.8-0.6-1
				c-0.3-0.1-0.7-0.2-1.2-0.2h-2.2L478.2,309.4L478.2,309.4z M478.2,313.4v2.8h2.5c0.5,0,0.8-0.1,1.1-0.2c0.5-0.2,0.7-0.7,0.7-1.3
				c0-0.5-0.2-0.9-0.7-1.1c-0.2-0.1-0.6-0.2-1-0.2L478.2,313.4L478.2,313.4z"/>
		</g>
	</g>
	<g>
		<circle class="st10" cx="400.3" cy="313.3" r="12"/>
		<g>
			<path class="st5" d="M402.4,307.8c0.7,0.2,1.3,0.7,1.8,1.3c0.4,0.5,0.6,1.1,0.7,1.7s0.2,1.2,0.2,1.7c0,1.4-0.3,2.6-0.8,3.5
				c-0.8,1.3-1.9,1.9-3.5,1.9h-4.5v-10.4h4.5C401.4,307.6,402,307.7,402.4,307.8z M398.4,309.4v6.8h2c1,0,1.7-0.5,2.1-1.5
				c0.2-0.6,0.3-1.2,0.3-2c0-1.1-0.2-1.9-0.5-2.4c-0.3-0.6-1-0.8-2-0.8h-1.9V309.4z"/>
		</g>
	</g>
	<g>
		<circle class="st9" cx="360.3" cy="313.3" r="12"/>
		<g>
			<path class="st5" d="M363.8,308.7c0.3,0.4,0.5,1,0.5,1.6s-0.2,1.1-0.5,1.5c-0.2,0.2-0.4,0.4-0.8,0.6c0.5,0.2,0.9,0.5,1.2,0.9
				c0.3,0.4,0.4,0.9,0.4,1.5s-0.2,1.2-0.5,1.7c-0.2,0.3-0.4,0.6-0.7,0.8c-0.3,0.3-0.7,0.4-1.2,0.5s-0.9,0.1-1.5,0.1H356v-10.4h5
				C362.4,307.6,363.3,308,363.8,308.7z M358.2,309.4v2.3h2.5c0.5,0,0.8-0.1,1.1-0.3c0.3-0.2,0.4-0.5,0.4-0.9c0-0.5-0.2-0.8-0.6-1
				c-0.3-0.1-0.7-0.2-1.2-0.2h-2.2L358.2,309.4L358.2,309.4z M358.2,313.4v2.8h2.5c0.5,0,0.8-0.1,1.1-0.2c0.5-0.2,0.7-0.7,0.7-1.3
				c0-0.5-0.2-0.9-0.7-1.1c-0.2-0.1-0.6-0.2-1-0.2L358.2,313.4L358.2,313.4z"/>
		</g>
	</g>
	<g>
		<g>
			<path class="st11" d="M230.3,118.6c6.6,0,12-5.4,12-12s-5.4-12-12-12h-200c-6.6,0-12,5.4-12,12s5.4,12,12,12H230.3z"/>
		</g>
	</g>
	<g>
		<g>
			<circle class="st5" cx="29.3" cy="106.5" r="12"/>
		</g>
		<g>
			<path d="M25.7,104v-1.5c0.7,0,1.2-0.1,1.5-0.1c0.4-0.1,0.8-0.3,1.1-0.6c0.2-0.2,0.3-0.5,0.4-0.8c0.1-0.2,0.1-0.4,0.1-0.5h1.9
				v11.3h-2.3V104H25.7z"/>
		</g>
	</g>
	<g>
		
			<ellipse transform="matrix(0.3162 -0.9487 0.9487 0.3162 -193.7194 357.8102)" class="st12" cx="151.4" cy="313.3" rx="12" ry="12"/>
		<g>
			<path class="st5" d="M150.1,307.6h2.5l3.7,10.4h-2.4l-0.7-2.1h-3.8l-0.7,2.1h-2.3L150.1,307.6z M150,314.1h2.7l-1.3-4.1
				L150,314.1z"/>
		</g>
	</g>
	<g>
		<g>
			<circle class="st5" cx="318.7" cy="189.1" r="12"/>
		</g>
		<g>
			<path d="M315.2,192.3c0.3-0.8,1.1-1.6,2.2-2.4c1-0.7,1.7-1.3,2-1.6c0.5-0.5,0.7-1,0.7-1.6c0-0.5-0.1-0.9-0.4-1.2
				s-0.6-0.5-1.1-0.5c-0.7,0-1.1,0.3-1.4,0.8c-0.1,0.3-0.2,0.8-0.2,1.4h-2.2c0-1,0.2-1.7,0.5-2.3c0.6-1.1,1.7-1.7,3.2-1.7
				c1.2,0,2.2,0.3,2.9,1s1.1,1.5,1.1,2.6c0,0.8-0.2,1.6-0.8,2.2c-0.3,0.4-0.9,0.9-1.6,1.4l-0.9,0.6c-0.6,0.4-0.9,0.7-1.1,0.9
				s-0.4,0.4-0.5,0.6h4.9v2h-7.8C314.7,193.7,314.9,192.9,315.2,192.3z"/>
		</g>
	</g>
	<g>
		<g>
			<circle class="st5" cx="357.7" cy="147.1" r="12"/>
		</g>
		<g>
			<path d="M354.3,144.7v-1.5c0.7,0,1.2-0.1,1.5-0.1c0.4-0.1,0.8-0.3,1.1-0.6c0.2-0.2,0.3-0.5,0.4-0.8c0.1-0.2,0.1-0.4,0.1-0.5h1.9
				v11.3H357v-7.8L354.3,144.7L354.3,144.7z"/>
		</g>
	</g>
	<g>
		<g>
			<circle class="st5" cx="520.7" cy="189.1" r="12"/>
		</g>
		<g>
			<path d="M518.8,191c0,0.5,0.1,0.8,0.2,1.1c0.3,0.5,0.8,0.8,1.5,0.8c0.4,0,0.8-0.1,1.1-0.4c0.3-0.3,0.5-0.7,0.5-1.3
				c0-0.7-0.3-1.2-0.9-1.5c-0.3-0.1-0.9-0.2-1.6-0.2v-1.6c0.7,0,1.2-0.1,1.5-0.2c0.5-0.2,0.7-0.7,0.7-1.3c0-0.4-0.1-0.8-0.4-1.1
				s-0.6-0.4-1.1-0.4s-0.9,0.2-1.2,0.5s-0.4,0.8-0.4,1.3h-2.1c0-0.6,0.1-1.1,0.3-1.6c0.2-0.4,0.5-0.9,0.9-1.2c0.3-0.3,0.6-0.5,1-0.6
				s0.9-0.2,1.5-0.2c1.1,0,2,0.3,2.6,0.8s1,1.3,1,2.3c0,0.7-0.2,1.2-0.6,1.7c-0.2,0.3-0.5,0.5-0.8,0.6c0.2,0,0.5,0.2,0.9,0.5
				c0.6,0.5,0.9,1.2,0.9,2.2s-0.3,1.8-1,2.5s-1.6,1.1-2.9,1.1c-1.6,0-2.7-0.5-3.3-1.6c-0.3-0.6-0.5-1.3-0.5-2.2L518.8,191L518.8,191
				z"/>
		</g>
	</g>
	<g>
		<circle class="st8" cx="440.3" cy="313.6" r="12"/>
		<g>
			<path class="st5" d="M443,311.1c-0.2-0.7-0.6-1.2-1.2-1.5c-0.4-0.2-0.8-0.2-1.2-0.2c-0.8,0-1.5,0.3-2.1,0.9
				c-0.5,0.6-0.8,1.6-0.8,2.8c0,1.3,0.3,2.2,0.9,2.7s1.2,0.8,2,0.8c0.7,0,1.3-0.2,1.8-0.6s0.8-1,0.9-1.6h-2.4v-1.7h4.3v5.6h-1.4
				l-0.2-1.3c-0.4,0.5-0.8,0.8-1.1,1c-0.6,0.4-1.3,0.5-2.1,0.5c-1.4,0-2.5-0.5-3.4-1.4c-0.9-1-1.4-2.3-1.4-3.9c0-1.7,0.5-3,1.4-4
				s2.1-1.5,3.7-1.5c1.3,0,2.4,0.3,3.2,1c0.8,0.7,1.3,1.5,1.4,2.5L443,311.1L443,311.1z"/>
		</g>
	</g>
</g>
<g id="Layer_5" class="st13">
	<rect x="13.1" y="100.6" class="st14" width="38.9" height="12.1"/>
	<text transform="matrix(1 0 0 1 13.1091 109.2344)" class="st15 st16 st17">A# Bb</text>
	<rect x="13.1" y="71.6" class="st14" width="38.9" height="12.1"/>
	<text transform="matrix(1 0 0 1 13.1091 80.2344)" class="st15 st16 st17">D# Eb</text>
	<rect x="13.1" y="42.6" class="st14" width="38.9" height="12.1"/>
	<text transform="matrix(1 0 0 1 13.1091 51.2344)" class="st15 st16 st17">G# Ab</text>
	<rect x="11.1" y="12.6" class="st14" width="38.9" height="12.1"/>
	<text transform="matrix(1 0 0 1 11.1091 21.2344)" class="st15 st16 st17">C# Db</text>
	<rect x="11.1" y="-18.4" class="st14" width="38.9" height="12.1"/>
	<text transform="matrix(1 0 0 1 11.1091 -9.7656)" class="st15 st16 st17">F# Gb</text>
	<rect x="11.1" y="131.6" class="st14" width="38.9" height="12.1"/>
	<text transform="matrix(1 0 0 1 11.1091 140.2344)" class="st15 st16 st17">F# Gb</text>
	<g class="st15">
		<circle class="st18" cx="-27.7" cy="134.6" r="12"/>
		<g>
			<path class="st5" d="M-24,130.7h-5.5v2.2h5v1.8h-5v2.7h5.8v1.9h-7.9v-10.4h7.6L-24,130.7L-24,130.7z"/>
		</g>
	</g>
	<g class="st15">
		<circle class="st12" cx="-27.7" cy="105.6" r="12"/>
		<g>
			<path class="st5" d="M-28.9,99.9h2.5l3.7,10.4h-2.4l-0.7-2.1h-3.8l-0.7,2.1h-2.3L-28.9,99.9z M-29,106.4h2.7l-1.3-4.1L-29,106.4z
				"/>
		</g>
	</g>
	<g class="st15">
		<circle class="st10" cx="-27.7" cy="77.6" r="12"/>
		<g>
			<path class="st5" d="M-25.6,72.1c0.7,0.2,1.3,0.7,1.8,1.3c0.4,0.5,0.6,1.1,0.7,1.7c0.1,0.6,0.2,1.2,0.2,1.7
				c0,1.4-0.3,2.6-0.8,3.5c-0.8,1.3-1.9,1.9-3.5,1.9h-4.5V71.9h4.5C-26.6,71.9-26,72-25.6,72.1z M-29.6,73.7v6.8h2
				c1,0,1.7-0.5,2.1-1.5c0.2-0.6,0.3-1.2,0.3-2c0-1.1-0.2-1.9-0.5-2.4c-0.3-0.6-1-0.8-2-0.8L-29.6,73.7L-29.6,73.7z"/>
		</g>
	</g>
	<g class="st15">
		<circle class="st8" cx="-27.7" cy="48.6" r="12"/>
		<g>
			<path class="st5" d="M-25,46.1c-0.2-0.7-0.6-1.2-1.2-1.5c-0.4-0.2-0.8-0.2-1.2-0.2c-0.8,0-1.5,0.3-2.1,0.9
				c-0.5,0.6-0.8,1.6-0.8,2.8c0,1.3,0.3,2.2,0.9,2.7c0.6,0.5,1.2,0.8,2,0.8c0.7,0,1.3-0.2,1.8-0.6c0.5-0.4,0.8-1,0.9-1.6h-2.4v-1.7
				h4.3v5.6h-1.4l-0.2-1.3c-0.4,0.5-0.8,0.8-1.1,1c-0.6,0.4-1.3,0.5-2.1,0.5c-1.4,0-2.5-0.5-3.4-1.4c-0.9-1-1.4-2.3-1.4-3.9
				c0-1.7,0.5-3,1.4-4s2.1-1.5,3.7-1.5c1.3,0,2.4,0.3,3.2,1s1.3,1.5,1.4,2.5L-25,46.1L-25,46.1z"/>
		</g>
	</g>
	<g class="st15">
		<circle class="st9" cx="-27.7" cy="19.6" r="12"/>
		<g>
			<path class="st5" d="M-24.2,15c0.3,0.4,0.5,1,0.5,1.6c0,0.6-0.2,1.1-0.5,1.5c-0.2,0.2-0.4,0.4-0.8,0.6c0.5,0.2,0.9,0.5,1.2,0.9
				s0.4,0.9,0.4,1.5s-0.2,1.2-0.5,1.7c-0.2,0.3-0.4,0.6-0.7,0.8c-0.3,0.3-0.7,0.4-1.2,0.5s-0.9,0.1-1.5,0.1H-32V13.9h5
				C-25.6,13.9-24.7,14.3-24.2,15z M-29.8,15.7V18h2.5c0.5,0,0.8-0.1,1.1-0.3c0.3-0.2,0.4-0.5,0.4-0.9c0-0.5-0.2-0.8-0.6-1
				c-0.3-0.1-0.7-0.2-1.2-0.2L-29.8,15.7L-29.8,15.7z M-29.8,19.7v2.8h2.5c0.5,0,0.8-0.1,1.1-0.2c0.5-0.2,0.7-0.7,0.7-1.3
				c0-0.5-0.2-0.9-0.7-1.1c-0.2-0.1-0.6-0.2-1-0.2C-27.2,19.7-29.8,19.7-29.8,19.7z"/>
		</g>
	</g>
	<g class="st15">
		<circle class="st18" cx="-27.7" cy="-9.4" r="12"/>
		<g>
			<path class="st5" d="M-24-13.3h-5.5v2.2h5v1.8h-5v2.7h5.8v1.9h-7.9v-10.4h7.6L-24-13.3L-24-13.3z"/>
		</g>
	</g>
</g>
</svg>
