<?xml version="1.0" encoding="utf-8"?>
<!-- Generator: Adobe Illustrator 23.0.2, SVG Export Plug-In . SVG Version: 6.00 Build 0)  -->
<svg version="1.1" id="Layer_1" xmlns="http://www.w3.org/2000/svg" xmlns:xlink="http://www.w3.org/1999/xlink" x="0px" y="0px"
	 viewBox="0 0 1701 244" style="enable-background:new 0 0 1701 244;" xml:space="preserve">
<style type="text/css">
	.st0{fill:none;stroke:#999999;stroke-width:0.5;stroke-miterlimit:10;}
	.st1{fill:none;stroke:#999999;stroke-width:2;stroke-miterlimit:10;}
	.st2{opacity:0.17;}
	.st3{fill:#CCCCCC;stroke:#000000;stroke-miterlimit:10;}
	.st4{fill:#F2F2F2;}
	.st5{fill:#FFFFFF;}
	.st6{fill:none;stroke:#CCCCCC;stroke-width:0.3;stroke-miterlimit:10;}
	.st7{display:none;}
	.st8{display:inline;fill:none;}
	.st9{display:inline;}
	.st10{font-family:'Helvetica-Bold';}
	.st11{font-size:12px;}
	.st12{fill:#7C6D94;}
	.st13{fill:#B15452;}
	.st14{fill:#C89367;}
	.st15{fill:#618073;}
	.st16{fill:#C777A9;}
</style>
<g>
	<rect x="310.5" y="35.6" class="st0" width="202" height="202"/>
	<line class="st0" x1="351.5" y1="35.6" x2="351.5" y2="237.6"/>
	<line class="st0" x1="392.5" y1="35.6" x2="392.5" y2="237.6"/>
	<line class="st0" x1="432.5" y1="35.6" x2="432.5" y2="237.6"/>
	<line class="st0" x1="471.5" y1="35.6" x2="471.5" y2="237.6"/>
	<line class="st0" x1="512.5" y1="76.6" x2="310.5" y2="76.6"/>
	<line class="st0" x1="512.5" y1="117.6" x2="310.5" y2="117.6"/>
	<line class="st0" x1="512.5" y1="157.6" x2="310.5" y2="157.6"/>
	<line class="st0" x1="512.5" y1="196.6" x2="310.5" y2="196.6"/>
	<line class="st1" x1="512.5" y1="35.6" x2="310.5" y2="35.6"/>
</g>
<g class="st2">
	<g>
		<path class="st3" d="M1092.3,67.7c6.6,0,12-5.4,12-12s-5.4-12-12-12h-200c-6.6,0-12,5.4-12,12s5.4,12,12,12H1092.3z"/>
	</g>
</g>
<g>
	<path class="st4" d="M395.1,11.8c0.9,0.9,1.3,2.1,1.3,3.8c0,1.6-0.4,2.9-1.2,4c-0.8,1-2,1.6-3.6,1.6c-1.4,0-2.4-0.5-3.2-1.4
		c-0.8-0.9-1.2-2.2-1.2-3.7c0-1.7,0.4-3,1.3-4c0.8-1,2-1.5,3.4-1.5C393.2,10.5,394.3,11,395.1,11.8z M394.1,18.4
		c0.4-0.8,0.6-1.8,0.6-2.8c0-0.9-0.1-1.7-0.4-2.3c-0.5-0.9-1.3-1.4-2.4-1.4c-1,0-1.7,0.4-2.2,1.2s-0.7,1.7-0.7,2.8s0.2,1.9,0.7,2.6
		s1.2,1.1,2.2,1.1C392.9,19.7,393.7,19.3,394.1,18.4z"/>
</g>
<g>
	<path class="st4" d="M306.5,10.8h2.2l2.3,3.5l2.3-3.5h2l-3.3,4.8l3.5,5.1h-2.1l-2.5-3.7l-2.4,3.7h-2.1l3.5-5.1L306.5,10.8z"/>
</g>
<g>
	<path class="st4" d="M347.5,10.8h2.2l2.3,3.5l2.3-3.5h2l-3.3,4.8l3.5,5.1h-2.1l-2.5-3.7l-2.4,3.7h-2.1l3.5-5.1L347.5,10.8z"/>
</g>
<rect x="20.5" y="35.6" class="st0" width="202" height="202"/>
<line class="st0" x1="61.5" y1="35.6" x2="61.5" y2="237.6"/>
<line class="st0" x1="102.5" y1="35.6" x2="102.5" y2="237.6"/>
<line class="st0" x1="142.5" y1="35.6" x2="142.5" y2="237.6"/>
<line class="st0" x1="181.5" y1="35.6" x2="181.5" y2="237.6"/>
<line class="st0" x1="222.5" y1="76.6" x2="20.5" y2="76.6"/>
<line class="st0" x1="222.5" y1="117.6" x2="20.5" y2="117.6"/>
<line class="st0" x1="222.5" y1="157.6" x2="20.5" y2="157.6"/>
<line class="st0" x1="222.5" y1="196.6" x2="20.5" y2="196.6"/>
<line class="st1" x1="222.5" y1="35.6" x2="20.5" y2="35.6"/>
<g>
	<path class="st4" d="M16.5,10.8h2.2l2.3,3.5l2.3-3.5h2L22,15.7l3.5,5.1h-2.1l-2.5-3.7l-2.4,3.7h-2.1l3.5-5.1L16.5,10.8z"/>
</g>
<g>
	<path class="st4" d="M145.8,11.8c0.9,0.9,1.3,2.1,1.3,3.8c0,1.6-0.4,2.9-1.2,4c-0.8,1-2,1.6-3.6,1.6c-1.4,0-2.4-0.5-3.2-1.4
		s-1.2-2.2-1.2-3.7c0-1.7,0.4-3,1.3-4c0.8-1,2-1.5,3.4-1.5C143.9,10.5,145,11,145.8,11.8z M144.8,18.4c0.4-0.8,0.6-1.8,0.6-2.8
		c0-0.9-0.1-1.7-0.4-2.3c-0.5-0.9-1.3-1.4-2.4-1.4c-1,0-1.7,0.4-2.2,1.2s-0.7,1.7-0.7,2.8s0.2,1.9,0.7,2.6s1.2,1.1,2.2,1.1
		C143.6,19.7,144.4,19.3,144.8,18.4z"/>
</g>
<rect x="597.5" y="35.6" class="st0" width="202" height="202"/>
<line class="st0" x1="638.5" y1="35.6" x2="638.5" y2="237.6"/>
<line class="st0" x1="679.5" y1="35.6" x2="679.5" y2="237.6"/>
<line class="st0" x1="719.5" y1="35.6" x2="719.5" y2="237.6"/>
<line class="st0" x1="758.5" y1="35.6" x2="758.5" y2="237.6"/>
<line class="st0" x1="799.5" y1="76.6" x2="597.5" y2="76.6"/>
<line class="st0" x1="799.5" y1="117.6" x2="597.5" y2="117.6"/>
<line class="st0" x1="799.5" y1="157.6" x2="597.5" y2="157.6"/>
<line class="st0" x1="799.5" y1="196.6" x2="597.5" y2="196.6"/>
<line class="st1" x1="799.5" y1="35.6" x2="597.5" y2="35.6"/>
<g>
	<path class="st4" d="M802.1,11.8c0.9,0.9,1.3,2.1,1.3,3.8c0,1.6-0.4,2.9-1.2,4c-0.8,1-2,1.6-3.6,1.6c-1.4,0-2.4-0.5-3.2-1.4
		s-1.2-2.2-1.2-3.7c0-1.7,0.4-3,1.3-4c0.8-1,2-1.5,3.4-1.5C800.2,10.5,801.3,11,802.1,11.8z M801.1,18.4c0.4-0.8,0.6-1.8,0.6-2.8
		c0-0.9-0.1-1.7-0.4-2.3c-0.5-0.9-1.3-1.4-2.4-1.4c-1,0-1.7,0.4-2.2,1.2s-0.7,1.7-0.7,2.8s0.2,1.9,0.7,2.6s1.2,1.1,2.2,1.1
		C799.9,19.7,800.7,19.3,801.1,18.4z"/>
</g>
<g>
	<path class="st4" d="M761.1,11.8c0.9,0.9,1.3,2.1,1.3,3.8c0,1.6-0.4,2.9-1.2,4c-0.8,1-2,1.6-3.6,1.6c-1.4,0-2.4-0.5-3.2-1.4
		s-1.2-2.2-1.2-3.7c0-1.7,0.4-3,1.3-4c0.8-1,2-1.5,3.4-1.5C759.2,10.5,760.3,11,761.1,11.8z M760.1,18.4c0.4-0.8,0.6-1.8,0.6-2.8
		c0-0.9-0.1-1.7-0.4-2.3c-0.5-0.9-1.3-1.4-2.4-1.4c-1,0-1.7,0.4-2.2,1.2s-0.7,1.7-0.7,2.8s0.2,1.9,0.7,2.6s1.2,1.1,2.2,1.1
		C758.9,19.7,759.7,19.3,760.1,18.4z"/>
</g>
<g>
	<path class="st4" d="M601.1,11.8c0.9,0.9,1.3,2.1,1.3,3.8c0,1.6-0.4,2.9-1.2,4c-0.8,1-2,1.6-3.6,1.6c-1.4,0-2.4-0.5-3.2-1.4
		s-1.2-2.2-1.2-3.7c0-1.7,0.4-3,1.3-4c0.8-1,2-1.5,3.4-1.5C599.2,10.5,600.3,11,601.1,11.8z M600.1,18.4c0.4-0.8,0.6-1.8,0.6-2.8
		c0-0.9-0.1-1.7-0.4-2.3c-0.5-0.9-1.3-1.4-2.4-1.4c-1,0-1.7,0.4-2.2,1.2s-0.7,1.7-0.7,2.8s0.2,1.9,0.7,2.6s1.2,1.1,2.2,1.1
		C598.9,19.7,599.7,19.3,600.1,18.4z"/>
</g>
<rect x="891.5" y="35.6" class="st0" width="202" height="202"/>
<line class="st0" x1="932.5" y1="35.6" x2="932.5" y2="237.6"/>
<line class="st0" x1="973.5" y1="35.6" x2="973.5" y2="237.6"/>
<line class="st0" x1="1013.5" y1="35.6" x2="1013.5" y2="237.6"/>
<line class="st0" x1="1052.5" y1="35.6" x2="1052.5" y2="237.6"/>
<line class="st0" x1="1093.5" y1="76.6" x2="891.5" y2="76.6"/>
<line class="st0" x1="1093.5" y1="117.6" x2="891.5" y2="117.6"/>
<line class="st0" x1="1093.5" y1="157.6" x2="891.5" y2="157.6"/>
<line class="st0" x1="1093.5" y1="196.6" x2="891.5" y2="196.6"/>
<line class="st1" x1="1093.5" y1="35.6" x2="891.5" y2="35.6"/>
<g>
	<g>
		
			<ellipse transform="matrix(0.3162 -0.9487 0.9487 0.3162 600.9266 1028.1552)" class="st5" cx="1013.7" cy="97.2" rx="12" ry="12"/>
	</g>
	<g>
		<path d="M1010.2,100.4c0.3-0.8,1.1-1.6,2.2-2.4c1-0.7,1.7-1.3,2-1.6c0.5-0.5,0.7-1,0.7-1.6c0-0.5-0.1-0.9-0.4-1.2
			s-0.6-0.5-1.1-0.5c-0.7,0-1.1,0.3-1.4,0.8c-0.1,0.3-0.2,0.8-0.2,1.4h-2.2c0-1,0.2-1.7,0.5-2.3c0.6-1.1,1.7-1.7,3.2-1.7
			c1.2,0,2.2,0.3,2.9,1s1.1,1.5,1.1,2.6c0,0.8-0.2,1.6-0.8,2.2c-0.3,0.4-0.9,0.9-1.6,1.4l-0.9,0.6c-0.6,0.4-0.9,0.7-1.1,0.9
			s-0.4,0.4-0.5,0.6h4.9v2h-7.8C1009.7,101.8,1009.9,101,1010.2,100.4z"/>
	</g>
</g>
<g>
	<g>
		<circle class="st5" cx="973.7" cy="138.2" r="12"/>
	</g>
	<g>
		<path d="M971.8,140.1c0,0.5,0.1,0.8,0.2,1.1c0.3,0.5,0.8,0.8,1.5,0.8c0.4,0,0.8-0.1,1.1-0.4c0.3-0.3,0.5-0.7,0.5-1.3
			c0-0.7-0.3-1.2-0.9-1.5c-0.3-0.1-0.9-0.2-1.6-0.2V137c0.7,0,1.2-0.1,1.5-0.2c0.5-0.2,0.7-0.7,0.7-1.3c0-0.4-0.1-0.8-0.4-1.1
			s-0.6-0.4-1.1-0.4s-0.9,0.2-1.2,0.5s-0.4,0.8-0.4,1.3h-2.1c0-0.6,0.1-1.1,0.3-1.6c0.2-0.4,0.5-0.9,0.9-1.2c0.3-0.3,0.6-0.5,1-0.6
			s0.9-0.2,1.5-0.2c1.1,0,2,0.3,2.6,0.8s1,1.3,1,2.3c0,0.7-0.2,1.2-0.6,1.7c-0.2,0.3-0.5,0.5-0.8,0.6c0.2,0,0.5,0.2,0.9,0.5
			c0.6,0.5,0.9,1.2,0.9,2.2s-0.3,1.8-1,2.5s-1.6,1.1-2.9,1.1c-1.6,0-2.7-0.5-3.3-1.6c-0.3-0.6-0.5-1.3-0.5-2.2L971.8,140.1
			L971.8,140.1z"/>
	</g>
</g>
<g>
	<g>
		<circle class="st5" cx="933.2" cy="138.2" r="12"/>
	</g>
	<g>
		<path d="M937.1,141.2h-1.3v2.4h-2.2v-2.4h-4.5v-1.9l4.2-6.9h2.5v7.1h1.3V141.2z M933.6,139.4v-4.9l-2.8,4.9H933.6z"/>
	</g>
</g>
<rect x="1180.5" y="35.6" class="st0" width="202" height="202"/>
<line class="st0" x1="1221.5" y1="35.6" x2="1221.5" y2="237.6"/>
<line class="st0" x1="1262.5" y1="35.6" x2="1262.5" y2="237.6"/>
<line class="st0" x1="1302.5" y1="35.6" x2="1302.5" y2="237.6"/>
<line class="st0" x1="1341.5" y1="35.6" x2="1341.5" y2="237.6"/>
<line class="st0" x1="1382.5" y1="76.6" x2="1180.5" y2="76.6"/>
<line class="st0" x1="1382.5" y1="117.6" x2="1180.5" y2="117.6"/>
<line class="st0" x1="1382.5" y1="157.6" x2="1180.5" y2="157.6"/>
<line class="st0" x1="1382.5" y1="196.6" x2="1180.5" y2="196.6"/>
<line class="st1" x1="1382.5" y1="35.6" x2="1180.5" y2="35.6"/>
<g>
	<path class="st4" d="M1344.1,11.8c0.9,0.9,1.3,2.1,1.3,3.8c0,1.6-0.4,2.9-1.2,4c-0.8,1-2,1.6-3.6,1.6c-1.4,0-2.4-0.5-3.2-1.4
		c-0.8-0.9-1.2-2.2-1.2-3.7c0-1.7,0.4-3,1.3-4c0.8-1,2-1.5,3.4-1.5C1342.2,10.5,1343.3,11,1344.1,11.8z M1343.1,18.4
		c0.4-0.8,0.6-1.8,0.6-2.8c0-0.9-0.1-1.7-0.4-2.3c-0.5-0.9-1.3-1.4-2.4-1.4c-1,0-1.7,0.4-2.2,1.2s-0.7,1.7-0.7,2.8s0.2,1.9,0.7,2.6
		s1.2,1.1,2.2,1.1C1341.9,19.7,1342.7,19.3,1343.1,18.4z"/>
</g>
<g>
	<path class="st4" d="M1303.1,11.8c0.9,0.9,1.3,2.1,1.3,3.8c0,1.6-0.4,2.9-1.2,4c-0.8,1-2,1.6-3.6,1.6c-1.4,0-2.4-0.5-3.2-1.4
		c-0.8-0.9-1.2-2.2-1.2-3.7c0-1.7,0.4-3,1.3-4c0.8-1,2-1.5,3.4-1.5C1301.2,10.5,1302.3,11,1303.1,11.8z M1302.1,18.4
		c0.4-0.8,0.6-1.8,0.6-2.8c0-0.9-0.1-1.7-0.4-2.3c-0.5-0.9-1.3-1.4-2.4-1.4c-1,0-1.7,0.4-2.2,1.2s-0.7,1.7-0.7,2.8s0.2,1.9,0.7,2.6
		s1.2,1.1,2.2,1.1C1300.9,19.7,1301.7,19.3,1302.1,18.4z"/>
</g>
<g>
	<path class="st4" d="M1263.1,11.8c0.9,0.9,1.3,2.1,1.3,3.8c0,1.6-0.4,2.9-1.2,4c-0.8,1-2,1.6-3.6,1.6c-1.4,0-2.4-0.5-3.2-1.4
		c-0.8-0.9-1.2-2.2-1.2-3.7c0-1.7,0.4-3,1.3-4c0.8-1,2-1.5,3.4-1.5C1261.2,10.5,1262.3,11,1263.1,11.8z M1262.1,18.4
		c0.4-0.8,0.6-1.8,0.6-2.8c0-0.9-0.1-1.7-0.4-2.3c-0.5-0.9-1.3-1.4-2.4-1.4c-1,0-1.7,0.4-2.2,1.2s-0.7,1.7-0.7,2.8s0.2,1.9,0.7,2.6
		s1.2,1.1,2.2,1.1C1260.9,19.7,1261.7,19.3,1262.1,18.4z"/>
</g>
<rect x="1478.5" y="35.6" class="st0" width="202" height="202"/>
<line class="st0" x1="1519.5" y1="35.6" x2="1519.5" y2="237.6"/>
<line class="st0" x1="1560.5" y1="35.6" x2="1560.5" y2="237.6"/>
<line class="st0" x1="1600.5" y1="35.6" x2="1600.5" y2="237.6"/>
<line class="st0" x1="1639.5" y1="35.6" x2="1639.5" y2="237.6"/>
<line class="st0" x1="1680.5" y1="76.6" x2="1478.5" y2="76.6"/>
<line class="st0" x1="1680.5" y1="117.6" x2="1478.5" y2="117.6"/>
<line class="st0" x1="1680.5" y1="157.6" x2="1478.5" y2="157.6"/>
<line class="st0" x1="1680.5" y1="196.6" x2="1478.5" y2="196.6"/>
<line class="st1" x1="1680.5" y1="35.6" x2="1478.5" y2="35.6"/>
<g>
	<path class="st4" d="M1683.1,11.8c0.9,0.9,1.3,2.1,1.3,3.8c0,1.6-0.4,2.9-1.2,4c-0.8,1-2,1.6-3.6,1.6c-1.4,0-2.4-0.5-3.2-1.4
		c-0.8-0.9-1.2-2.2-1.2-3.7c0-1.7,0.4-3,1.3-4c0.8-1,2-1.5,3.4-1.5C1681.2,10.5,1682.3,11,1683.1,11.8z M1682.1,18.4
		c0.4-0.8,0.6-1.8,0.6-2.8c0-0.9-0.1-1.7-0.4-2.3c-0.5-0.9-1.3-1.4-2.4-1.4c-1,0-1.7,0.4-2.2,1.2s-0.7,1.7-0.7,2.8s0.2,1.9,0.7,2.6
		s1.2,1.1,2.2,1.1C1680.9,19.7,1681.7,19.3,1682.1,18.4z"/>
</g>
<g>
	<path class="st4" d="M1473.5,10.8h2.2l2.3,3.5l2.3-3.5h2l-3.3,4.8l3.5,5.1h-2.1l-2.5-3.7l-2.4,3.7h-2.1l3.5-5.1L1473.5,10.8z"/>
</g>
<g>
	<path class="st4" d="M1524.1,11.8c0.9,0.9,1.3,2.1,1.3,3.8c0,1.6-0.4,2.9-1.2,4c-0.8,1-2,1.6-3.6,1.6c-1.4,0-2.4-0.5-3.2-1.4
		c-0.8-0.9-1.2-2.2-1.2-3.7c0-1.7,0.4-3,1.3-4c0.8-1,2-1.5,3.4-1.5C1522.2,10.5,1523.3,11,1524.1,11.8z M1523.1,18.4
		c0.4-0.8,0.6-1.8,0.6-2.8c0-0.9-0.1-1.7-0.4-2.3c-0.5-0.9-1.3-1.4-2.4-1.4c-1,0-1.7,0.4-2.2,1.2s-0.7,1.7-0.7,2.8s0.2,1.9,0.7,2.6
		s1.2,1.1,2.2,1.1C1521.9,19.7,1522.7,19.3,1523.1,18.4z"/>
</g>
<g>
	<g>
		<path class="st6" d="M1092.3,67.7c6.6,0,12-5.4,12-12s-5.4-12-12-12h-200c-6.6,0-12,5.4-12,12s5.4,12,12,12H1092.3z"/>
	</g>
</g>
<g>
	<g>
		<circle class="st5" cx="891.3" cy="55.6" r="12"/>
	</g>
	<g>
		<path d="M887.7,53.1v-1.5c0.7,0,1.2-0.1,1.5-0.1c0.4-0.1,0.8-0.3,1.1-0.6c0.2-0.2,0.3-0.5,0.4-0.8c0.1-0.2,0.1-0.4,0.1-0.5h1.9
			v11.3h-2.3v-7.8H887.7z"/>
	</g>
</g>
<g>
	<g>
		<circle class="st5" cx="637.7" cy="96.2" r="12"/>
	</g>
	<g>
		<path d="M634.2,99.4c0.3-0.8,1.1-1.6,2.2-2.4c1-0.7,1.7-1.3,2-1.6c0.5-0.5,0.7-1,0.7-1.6c0-0.5-0.1-0.9-0.4-1.2s-0.6-0.5-1.1-0.5
			c-0.7,0-1.1,0.3-1.4,0.8c-0.1,0.3-0.2,0.8-0.2,1.4h-2.2c0-1,0.2-1.7,0.5-2.3c0.6-1.1,1.7-1.7,3.2-1.7c1.2,0,2.2,0.3,2.9,1
			s1.1,1.5,1.1,2.6c0,0.8-0.2,1.6-0.8,2.2c-0.3,0.4-0.9,0.9-1.6,1.4l-0.9,0.6c-0.6,0.4-0.9,0.7-1.1,0.9s-0.4,0.4-0.5,0.6h4.9v2h-7.8
			C633.7,100.8,633.9,100,634.2,99.4z"/>
	</g>
</g>
<g>
	<g>
		<circle class="st5" cx="679.7" cy="96.2" r="12"/>
	</g>
	<g>
		<path d="M677.8,98.1c0,0.5,0.1,0.8,0.2,1.1c0.3,0.5,0.8,0.8,1.5,0.8c0.4,0,0.8-0.1,1.1-0.4c0.3-0.3,0.5-0.7,0.5-1.3
			c0-0.7-0.3-1.2-0.9-1.5c-0.3-0.1-0.9-0.2-1.6-0.2V95c0.7,0,1.2-0.1,1.5-0.2c0.5-0.2,0.7-0.7,0.7-1.3c0-0.4-0.1-0.8-0.4-1.1
			s-0.6-0.4-1.1-0.4s-0.9,0.2-1.2,0.5s-0.4,0.8-0.4,1.3h-2.1c0-0.6,0.1-1.1,0.3-1.6c0.2-0.4,0.5-0.9,0.9-1.2c0.3-0.3,0.6-0.5,1-0.6
			s0.9-0.2,1.5-0.2c1.1,0,2,0.3,2.6,0.8s1,1.3,1,2.3c0,0.7-0.2,1.2-0.6,1.7c-0.2,0.3-0.5,0.5-0.8,0.6c0.2,0,0.5,0.2,0.9,0.5
			c0.6,0.5,0.9,1.2,0.9,2.2s-0.3,1.8-1,2.5s-1.6,1.1-2.9,1.1c-1.6,0-2.7-0.5-3.3-1.6c-0.3-0.6-0.5-1.3-0.5-2.2L677.8,98.1
			L677.8,98.1z"/>
	</g>
</g>
<g>
	<g>
		<circle class="st5" cx="719.3" cy="55.6" r="12"/>
	</g>
	<g>
		<path d="M715.7,53.1v-1.5c0.7,0,1.2-0.1,1.5-0.1c0.4-0.1,0.8-0.3,1.1-0.6c0.2-0.2,0.3-0.5,0.4-0.8c0.1-0.2,0.1-0.4,0.1-0.5h1.9
			v11.3h-2.3v-7.8H715.7z"/>
	</g>
</g>
<g>
	<g>
		<circle class="st5" cx="511.7" cy="96.2" r="12"/>
	</g>
	<g>
		<path d="M508.2,99.4c0.3-0.8,1.1-1.6,2.2-2.4c1-0.7,1.7-1.3,2-1.6c0.5-0.5,0.7-1,0.7-1.6c0-0.5-0.1-0.9-0.4-1.2s-0.6-0.5-1.1-0.5
			c-0.7,0-1.1,0.3-1.4,0.8c-0.1,0.3-0.2,0.8-0.2,1.4h-2.2c0-1,0.2-1.7,0.5-2.3c0.6-1.1,1.7-1.7,3.2-1.7c1.2,0,2.2,0.3,2.9,1
			s1.1,1.5,1.1,2.6c0,0.8-0.2,1.6-0.8,2.2c-0.3,0.4-0.9,0.9-1.6,1.4l-0.9,0.6c-0.6,0.4-0.9,0.7-1.1,0.9s-0.4,0.4-0.5,0.6h4.9v2h-7.8
			C507.7,100.8,507.9,100,508.2,99.4z"/>
	</g>
</g>
<g>
	<g>
		<circle class="st5" cx="432.7" cy="96.2" r="12"/>
	</g>
	<g>
		<path d="M429.3,93.8v-1.5c0.7,0,1.2-0.1,1.5-0.1c0.4-0.1,0.8-0.3,1.1-0.6c0.2-0.2,0.3-0.5,0.4-0.8c0.1-0.2,0.1-0.4,0.1-0.5h1.9
			v11.3H432v-7.8L429.3,93.8L429.3,93.8z"/>
	</g>
</g>
<g>
	<g>
		<circle class="st5" cx="471.7" cy="138.2" r="12"/>
	</g>
	<g>
		<path d="M469.8,140.1c0,0.5,0.1,0.8,0.2,1.1c0.3,0.5,0.8,0.8,1.5,0.8c0.4,0,0.8-0.1,1.1-0.4c0.3-0.3,0.5-0.7,0.5-1.3
			c0-0.7-0.3-1.2-0.9-1.5c-0.3-0.1-0.9-0.2-1.6-0.2V137c0.7,0,1.2-0.1,1.5-0.2c0.5-0.2,0.7-0.7,0.7-1.3c0-0.4-0.1-0.8-0.4-1.1
			s-0.6-0.4-1.1-0.4s-0.9,0.2-1.2,0.5s-0.4,0.8-0.4,1.3h-2.1c0-0.6,0.1-1.1,0.3-1.6c0.2-0.4,0.5-0.9,0.9-1.2c0.3-0.3,0.6-0.5,1-0.6
			s0.9-0.2,1.5-0.2c1.1,0,2,0.3,2.6,0.8s1,1.3,1,2.3c0,0.7-0.2,1.2-0.6,1.7c-0.2,0.3-0.5,0.5-0.8,0.6c0.2,0,0.5,0.2,0.9,0.5
			c0.6,0.5,0.9,1.2,0.9,2.2s-0.3,1.8-1,2.5s-1.6,1.1-2.9,1.1c-1.6,0-2.7-0.5-3.3-1.6c-0.3-0.6-0.5-1.3-0.5-2.2L469.8,140.1
			L469.8,140.1z"/>
	</g>
</g>
<g>
	<g>
		<circle class="st5" cx="1180.7" cy="138.2" r="12"/>
	</g>
	<g>
		<path d="M1177.2,141.4c0.3-0.8,1.1-1.6,2.2-2.4c1-0.7,1.7-1.3,2-1.6c0.5-0.5,0.7-1,0.7-1.6c0-0.5-0.1-0.9-0.4-1.2
			s-0.6-0.5-1.1-0.5c-0.7,0-1.1,0.3-1.4,0.8c-0.1,0.3-0.2,0.8-0.2,1.4h-2.2c0-1,0.2-1.7,0.5-2.3c0.6-1.1,1.7-1.7,3.2-1.7
			c1.2,0,2.2,0.3,2.9,1s1.1,1.5,1.1,2.6c0,0.8-0.2,1.6-0.8,2.2c-0.3,0.4-0.9,0.9-1.6,1.4l-0.9,0.6c-0.6,0.4-0.9,0.7-1.1,0.9
			s-0.4,0.4-0.5,0.6h4.9v2h-7.8C1176.7,142.8,1176.9,142,1177.2,141.4z"/>
	</g>
</g>
<g>
	<g>
		<circle class="st5" cx="1219.7" cy="96.2" r="12"/>
	</g>
	<g>
		<path d="M1216.3,93.8v-1.5c0.7,0,1.2-0.1,1.5-0.1c0.4-0.1,0.8-0.3,1.1-0.6c0.2-0.2,0.3-0.5,0.4-0.8c0.1-0.2,0.1-0.4,0.1-0.5h1.9
			v11.3h-2.3v-7.8L1216.3,93.8L1216.3,93.8z"/>
	</g>
</g>
<g>
	<g>
		<circle class="st5" cx="1382.7" cy="138.2" r="12"/>
	</g>
	<g>
		<path d="M1380.8,140.1c0,0.5,0.1,0.8,0.2,1.1c0.3,0.5,0.8,0.8,1.5,0.8c0.4,0,0.8-0.1,1.1-0.4c0.3-0.3,0.5-0.7,0.5-1.3
			c0-0.7-0.3-1.2-0.9-1.5c-0.3-0.1-0.9-0.2-1.6-0.2V137c0.7,0,1.2-0.1,1.5-0.2c0.5-0.2,0.7-0.7,0.7-1.3c0-0.4-0.1-0.8-0.4-1.1
			s-0.6-0.4-1.1-0.4s-0.9,0.2-1.2,0.5s-0.4,0.8-0.4,1.3h-2.1c0-0.6,0.1-1.1,0.3-1.6c0.2-0.4,0.5-0.9,0.9-1.2c0.3-0.3,0.6-0.5,1-0.6
			s0.9-0.2,1.5-0.2c1.1,0,2,0.3,2.6,0.8s1,1.3,1,2.3c0,0.7-0.2,1.2-0.6,1.7c-0.2,0.3-0.5,0.5-0.8,0.6c0.2,0,0.5,0.2,0.9,0.5
			c0.6,0.5,0.9,1.2,0.9,2.2s-0.3,1.8-1,2.5s-1.6,1.1-2.9,1.1c-1.6,0-2.7-0.5-3.3-1.6c-0.3-0.6-0.5-1.3-0.5-2.2L1380.8,140.1
			L1380.8,140.1z"/>
	</g>
</g>
<g>
	<g>
		<circle class="st5" cx="182.3" cy="55.6" r="12"/>
	</g>
	<g>
		<path d="M178.7,53.1v-1.5c0.7,0,1.2-0.1,1.5-0.1c0.4-0.1,0.8-0.3,1.1-0.6c0.2-0.2,0.3-0.5,0.4-0.8c0.1-0.2,0.1-0.4,0.1-0.5h1.9
			v11.3h-2.3v-7.8H178.7z"/>
	</g>
</g>
<g>
	<g>
		<circle class="st5" cx="101.7" cy="96.2" r="12"/>
	</g>
	<g>
		<path d="M98.2,99.4c0.3-0.8,1.1-1.6,2.2-2.4c1-0.7,1.7-1.3,2-1.6c0.5-0.5,0.7-1,0.7-1.6c0-0.5-0.1-0.9-0.4-1.2s-0.6-0.5-1.1-0.5
			c-0.7,0-1.1,0.3-1.4,0.8c-0.1,0.3-0.2,0.8-0.2,1.4h-2.2c0-1,0.2-1.7,0.5-2.3c0.6-1.1,1.7-1.7,3.2-1.7c1.2,0,2.2,0.3,2.9,1
			s1.1,1.5,1.1,2.6c0,0.8-0.2,1.6-0.8,2.2c-0.3,0.4-0.9,0.9-1.6,1.4l-0.9,0.6c-0.6,0.4-0.9,0.7-1.1,0.9s-0.4,0.4-0.5,0.6h4.9v2h-7.8
			C97.7,100.8,97.9,100,98.2,99.4z"/>
	</g>
</g>
<g>
	<g>
		<circle class="st5" cx="61.7" cy="138.2" r="12"/>
	</g>
	<g>
		<path d="M59.8,140.1c0,0.5,0.1,0.8,0.2,1.1c0.3,0.5,0.8,0.8,1.5,0.8c0.4,0,0.8-0.1,1.1-0.4c0.3-0.3,0.5-0.7,0.5-1.3
			c0-0.7-0.3-1.2-0.9-1.5c-0.3-0.1-0.9-0.2-1.6-0.2V137c0.7,0,1.2-0.1,1.5-0.2c0.5-0.2,0.7-0.7,0.7-1.3c0-0.4-0.1-0.8-0.4-1.1
			s-0.6-0.4-1.1-0.4s-0.9,0.2-1.2,0.5s-0.4,0.8-0.4,1.3h-2.1c0-0.6,0.1-1.1,0.3-1.6c0.2-0.4,0.5-0.9,0.9-1.2c0.3-0.3,0.6-0.5,1-0.6
			s0.9-0.2,1.5-0.2c1.1,0,2,0.3,2.6,0.8c0.6,0.5,1,1.3,1,2.3c0,0.7-0.2,1.2-0.6,1.7c-0.2,0.3-0.5,0.5-0.8,0.6c0.2,0,0.5,0.2,0.9,0.5
			c0.6,0.5,0.9,1.2,0.9,2.2s-0.3,1.8-1,2.5s-1.6,1.1-2.9,1.1c-1.6,0-2.7-0.5-3.3-1.6c-0.3-0.6-0.5-1.3-0.5-2.2L59.8,140.1
			L59.8,140.1z"/>
	</g>
</g>
<g>
	<path class="st4" d="M226.1,11.8c0.9,0.9,1.3,2.1,1.3,3.8c0,1.6-0.4,2.9-1.2,4c-0.8,1-2,1.6-3.6,1.6c-1.4,0-2.4-0.5-3.2-1.4
		s-1.2-2.2-1.2-3.7c0-1.7,0.4-3,1.3-4c0.8-1,2-1.5,3.4-1.5C224.2,10.5,225.3,11,226.1,11.8z M225.1,18.4c0.4-0.8,0.6-1.8,0.6-2.8
		c0-0.9-0.1-1.7-0.4-2.3c-0.5-0.9-1.3-1.4-2.4-1.4c-1,0-1.7,0.4-2.2,1.2s-0.7,1.7-0.7,2.8s0.2,1.9,0.7,2.6s1.2,1.1,2.2,1.1
		C223.9,19.7,224.7,19.3,225.1,18.4z"/>
</g>
<g>
	<g>
		<circle class="st5" cx="1599.7" cy="97.2" r="12"/>
	</g>
	<g>
		<path d="M1597.8,99.1c0,0.5,0.1,0.8,0.2,1.1c0.3,0.5,0.8,0.8,1.5,0.8c0.4,0,0.8-0.1,1.1-0.4c0.3-0.3,0.5-0.7,0.5-1.3
			c0-0.7-0.3-1.2-0.9-1.5c-0.3-0.1-0.9-0.2-1.6-0.2V96c0.7,0,1.2-0.1,1.5-0.2c0.5-0.2,0.7-0.7,0.7-1.3c0-0.4-0.1-0.8-0.4-1.1
			s-0.6-0.4-1.1-0.4s-0.9,0.2-1.2,0.5s-0.4,0.8-0.4,1.3h-2.1c0-0.6,0.1-1.1,0.3-1.6c0.2-0.4,0.5-0.9,0.9-1.2c0.3-0.3,0.6-0.5,1-0.6
			s0.9-0.2,1.5-0.2c1.1,0,2,0.3,2.6,0.8s1,1.3,1,2.3c0,0.7-0.2,1.2-0.6,1.7c-0.2,0.3-0.5,0.5-0.8,0.6c0.2,0,0.5,0.2,0.9,0.5
			c0.6,0.5,0.9,1.2,0.9,2.2s-0.3,1.8-1,2.5s-1.6,1.1-2.9,1.1c-1.6,0-2.7-0.5-3.3-1.6c-0.3-0.6-0.5-1.3-0.5-2.2L1597.8,99.1
			L1597.8,99.1z"/>
	</g>
</g>
<g>
	<g>
		<circle class="st5" cx="1639.3" cy="55.6" r="12"/>
	</g>
	<g>
		<path d="M1635.7,53.1v-1.5c0.7,0,1.2-0.1,1.5-0.1c0.4-0.1,0.8-0.3,1.1-0.6c0.2-0.2,0.3-0.5,0.4-0.8c0.1-0.2,0.1-0.4,0.1-0.5h1.9
			v11.3h-2.3v-7.8H1635.7z"/>
	</g>
</g>
<g>
	<g>
		<circle class="st5" cx="1560.7" cy="97.2" r="12"/>
	</g>
	<g>
		<path d="M1557.2,100.4c0.3-0.8,1.1-1.6,2.2-2.4c1-0.7,1.7-1.3,2-1.6c0.5-0.5,0.7-1,0.7-1.6c0-0.5-0.1-0.9-0.4-1.2
			s-0.6-0.5-1.1-0.5c-0.7,0-1.1,0.3-1.4,0.8c-0.1,0.3-0.2,0.8-0.2,1.4h-2.2c0-1,0.2-1.7,0.5-2.3c0.6-1.1,1.7-1.7,3.2-1.7
			c1.2,0,2.2,0.3,2.9,1s1.1,1.5,1.1,2.6c0,0.8-0.2,1.6-0.8,2.2c-0.3,0.4-0.9,0.9-1.6,1.4l-0.9,0.6c-0.6,0.4-0.9,0.7-1.1,0.9
			s-0.4,0.4-0.5,0.6h4.9v2h-7.8C1556.7,101.8,1556.9,101,1557.2,100.4z"/>
	</g>
</g>
<g id="Layer_5" class="st7">
	<rect x="875.1" y="49.7" class="st8" width="38.9" height="12.1"/>
	<text transform="matrix(1 0 0 1 875.0693 58.3446)" class="st9 st10 st11">A# Bb</text>
	<rect x="875.1" y="20.7" class="st8" width="38.9" height="12.1"/>
	<text transform="matrix(1 0 0 1 875.0693 29.3446)" class="st9 st10 st11">D# Eb</text>
	<rect x="875.1" y="-8.3" class="st8" width="38.9" height="12.1"/>
	<text transform="matrix(1 0 0 1 875.0693 0.3446)" class="st9 st10 st11">G# Ab</text>
	<rect x="873.1" y="-38.3" class="st8" width="38.9" height="12.1"/>
	<text transform="matrix(1 0 0 1 873.0693 -29.6554)" class="st9 st10 st11">C# Db</text>
	<rect x="873.1" y="-69.3" class="st8" width="38.9" height="12.1"/>
	<text transform="matrix(1 0 0 1 873.0693 -60.6554)" class="st9 st10 st11">F# Gb</text>
	<rect x="873.1" y="80.7" class="st8" width="38.9" height="12.1"/>
	<text transform="matrix(1 0 0 1 873.0693 89.3446)" class="st9 st10 st11">F# Gb</text>
	<g class="st9">
		<circle class="st12" cx="834.3" cy="83.7" r="12"/>
		<g>
			<path class="st5" d="M838,79.8h-5.5V82h5v1.8h-5v2.7h5.8v1.9h-7.9V78h7.6L838,79.8L838,79.8z"/>
		</g>
	</g>
	<g class="st9">
		<circle class="st13" cx="834.3" cy="54.7" r="12"/>
		<g>
			<path class="st5" d="M833.1,49h2.5l3.7,10.4h-2.4l-0.7-2.1h-3.8l-0.7,2.1h-2.3L833.1,49z M833,55.5h2.7l-1.3-4.1L833,55.5z"/>
		</g>
	</g>
	<g class="st9">
		<circle class="st14" cx="834.3" cy="26.7" r="12"/>
		<g>
			<path class="st5" d="M836.4,21.2c0.7,0.2,1.3,0.7,1.8,1.3c0.4,0.5,0.6,1.1,0.7,1.7c0.1,0.6,0.2,1.2,0.2,1.7
				c0,1.4-0.3,2.6-0.8,3.5c-0.8,1.3-1.9,1.9-3.5,1.9h-4.5V21h4.5C835.4,21,836,21.1,836.4,21.2z M832.4,22.8v6.8h2
				c1,0,1.7-0.5,2.1-1.5c0.2-0.6,0.3-1.2,0.3-2c0-1.1-0.2-1.9-0.5-2.4c-0.3-0.6-1-0.8-2-0.8L832.4,22.8L832.4,22.8z"/>
		</g>
	</g>
	<g class="st9">
		<circle class="st15" cx="834.3" cy="-2.3" r="12"/>
		<g>
			<path class="st5" d="M837-4.8c-0.2-0.7-0.6-1.2-1.2-1.5c-0.4-0.2-0.8-0.2-1.2-0.2c-0.8,0-1.5,0.3-2.1,0.9
				C832-5,831.7-4,831.7-2.8c0,1.3,0.3,2.2,0.9,2.7c0.6,0.5,1.2,0.8,2,0.8c0.7,0,1.3-0.2,1.8-0.6c0.5-0.4,0.8-1,0.9-1.6h-2.4v-1.7
				h4.3v5.6h-1.4l-0.2-1.3c-0.4,0.5-0.8,0.8-1.1,1c-0.6,0.4-1.3,0.5-2.1,0.5c-1.4,0-2.5-0.5-3.4-1.4c-0.9-1-1.4-2.3-1.4-3.9
				c0-1.7,0.5-3,1.4-4s2.1-1.5,3.7-1.5c1.3,0,2.4,0.3,3.2,1s1.3,1.5,1.4,2.5L837-4.8L837-4.8z"/>
		</g>
	</g>
	<g class="st9">
		<circle class="st16" cx="834.3" cy="-31.3" r="12"/>
		<g>
			<path class="st5" d="M837.8-35.9c0.3,0.4,0.5,1,0.5,1.6c0,0.6-0.2,1.1-0.5,1.5c-0.2,0.2-0.4,0.4-0.8,0.6c0.5,0.2,0.9,0.5,1.2,0.9
				s0.4,0.9,0.4,1.5s-0.2,1.2-0.5,1.7c-0.2,0.3-0.4,0.6-0.7,0.8c-0.3,0.3-0.7,0.4-1.2,0.5s-0.9,0.1-1.5,0.1H830V-37h5
				C836.4-37,837.3-36.6,837.8-35.9z M832.2-35.2v2.3h2.5c0.5,0,0.8-0.1,1.1-0.3s0.4-0.5,0.4-0.9c0-0.5-0.2-0.8-0.6-1
				c-0.3-0.1-0.7-0.2-1.2-0.2L832.2-35.2L832.2-35.2z M832.2-31.2v2.8h2.5c0.5,0,0.8-0.1,1.1-0.2c0.5-0.2,0.7-0.7,0.7-1.3
				c0-0.5-0.2-0.9-0.7-1.1c-0.2-0.1-0.6-0.2-1-0.2C834.8-31.2,832.2-31.2,832.2-31.2z"/>
		</g>
	</g>
	<g class="st9">
		<circle class="st12" cx="834.3" cy="-60.3" r="12"/>
		<g>
			<path class="st5" d="M838-64.2h-5.5v2.2h5v1.8h-5v2.7h5.8v1.9h-7.9V-66h7.6L838-64.2L838-64.2z"/>
		</g>
	</g>
</g>
</svg>
