<?xml version="1.0" encoding="utf-8"?>
<!-- Generator: Adobe Illustrator 23.0.2, SVG Export Plug-In . SVG Version: 6.00 Build 0)  -->
<svg version="1.1" id="Layer_1" xmlns="http://www.w3.org/2000/svg" xmlns:xlink="http://www.w3.org/1999/xlink" x="0px" y="0px"
	 viewBox="0 0 1701 337" style="enable-background:new 0 0 1701 337;" xml:space="preserve">
<style type="text/css">
	.st0{fill:none;stroke:#999999;stroke-width:0.5;stroke-miterlimit:10;}
	.st1{fill:none;stroke:#999999;stroke-width:2;stroke-miterlimit:10;}
	.st2{opacity:0.17;}
	.st3{fill:#CCCCCC;stroke:#000000;stroke-miterlimit:10;}
	.st4{fill:#C89367;}
	.st5{fill:#FFFFFF;}
	.st6{fill:#B15452;}
	.st7{fill:#F2F2F2;}
	.st8{fill:#A9A856;}
	.st9{fill:#7C6D94;}
	.st10{fill:#618073;}
	.st11{fill:#C777A9;}
	.st12{fill:#7282A6;}
	.st13{fill:none;stroke:#CCCCCC;stroke-width:0.3;stroke-miterlimit:10;}
	.st14{display:none;}
	.st15{display:inline;fill:none;}
	.st16{display:inline;}
	.st17{font-family:'Helvetica-Bold';}
	.st18{font-size:12px;}
</style>
<g>
	<rect x="310.5" y="86.5" class="st0" width="202" height="202"/>
	<line class="st0" x1="351.5" y1="86.5" x2="351.5" y2="288.5"/>
	<line class="st0" x1="392.5" y1="86.5" x2="392.5" y2="288.5"/>
	<line class="st0" x1="432.5" y1="86.5" x2="432.5" y2="288.5"/>
	<line class="st0" x1="471.5" y1="86.5" x2="471.5" y2="288.5"/>
	<line class="st0" x1="512.5" y1="127.5" x2="310.5" y2="127.5"/>
	<line class="st0" x1="512.5" y1="168.5" x2="310.5" y2="168.5"/>
	<line class="st0" x1="512.5" y1="208.5" x2="310.5" y2="208.5"/>
	<line class="st0" x1="512.5" y1="247.5" x2="310.5" y2="247.5"/>
	<line class="st1" x1="512.5" y1="86.5" x2="310.5" y2="86.5"/>
</g>
<g id="Layer_4">
	<g class="st2">
		<g>
			<path class="st3" d="M1092.3,118.6c6.6,0,12-5.4,12-12s-5.4-12-12-12h-200c-6.6,0-12,5.4-12,12s5.4,12,12,12H1092.3z"/>
		</g>
	</g>
	<g>
		<circle class="st4" cx="390.3" cy="313.3" r="12"/>
		<g>
			<path class="st5" d="M392.4,307.8c0.7,0.2,1.3,0.7,1.8,1.3c0.4,0.5,0.6,1.1,0.7,1.7s0.2,1.2,0.2,1.7c0,1.4-0.3,2.6-0.8,3.5
				c-0.8,1.3-1.9,1.9-3.5,1.9h-4.5v-10.4h4.5C391.4,307.6,392,307.7,392.4,307.8z M388.4,309.4v6.8h2c1,0,1.7-0.5,2.1-1.5
				c0.2-0.6,0.3-1.2,0.3-2c0-1.1-0.2-1.9-0.5-2.4c-0.3-0.6-1-0.8-2-0.8h-1.9V309.4z"/>
		</g>
	</g>
	<g>
		<circle class="st6" cx="432.3" cy="313.3" r="12"/>
		<g>
			<path class="st5" d="M431.1,307.6h2.5l3.7,10.4h-2.4l-0.7-2.1h-3.8l-0.7,2.1h-2.3L431.1,307.6z M431,314.1h2.7l-1.3-4.1
				L431,314.1z"/>
		</g>
	</g>
	<g>
		<circle class="st4" cx="471.3" cy="313.3" r="12"/>
		<g>
			<path class="st5" d="M473.4,307.8c0.7,0.2,1.3,0.7,1.8,1.3c0.4,0.5,0.6,1.1,0.7,1.7s0.2,1.2,0.2,1.7c0,1.4-0.3,2.6-0.8,3.5
				c-0.8,1.3-1.9,1.9-3.5,1.9h-4.5v-10.4h4.5C472.4,307.6,473,307.7,473.4,307.8z M469.4,309.4v6.8h2c1,0,1.7-0.5,2.1-1.5
				c0.2-0.6,0.3-1.2,0.3-2c0-1.1-0.2-1.9-0.5-2.4c-0.3-0.6-1-0.8-2-0.8h-1.9V309.4z"/>
		</g>
	</g>
	<g>
		<path class="st7" d="M494,309.3h6.2v1.5h-4.4v2h3.8v1.5h-3.8v3.6H494V309.3z"/>
		<path class="st7" d="M500.7,314.6h1.2l0.5-1.7h-1.2l0.3-1h1.2l0.6-2.4h1.2l-0.6,2.4h1l0.6-2.4h1.2l-0.6,2.4h1.2l-0.3,1h-1.2
			l-0.5,1.7h1.2l-0.3,1H505l-0.6,2.3h-1.2l0.6-2.3h-1l-0.6,2.3H501l0.6-2.3h-1.2L500.7,314.6z M504,314.6l0.5-1.7h-1l-0.5,1.7H504z"
			/>
		<path class="st7" d="M517.1,311.9c-0.1-0.6-0.5-1-1-1.2c-0.3-0.1-0.6-0.2-1-0.2c-0.7,0-1.3,0.3-1.7,0.8s-0.7,1.3-0.7,2.4
			s0.2,1.8,0.7,2.3s1,0.7,1.7,0.7c0.6,0,1.1-0.2,1.5-0.5s0.6-0.8,0.7-1.4h-2v-1.4h3.6v4.6h-1.2l-0.2-1.1c-0.3,0.4-0.7,0.7-0.9,0.9
			c-0.5,0.3-1.1,0.4-1.8,0.4c-1.1,0-2.1-0.4-2.8-1.2c-0.8-0.8-1.1-1.9-1.1-3.3s0.4-2.5,1.2-3.4c0.8-0.8,1.8-1.3,3.1-1.3
			c1.1,0,2,0.3,2.6,0.8s1,1.3,1.1,2.1L517.1,311.9L517.1,311.9z"/>
		<path class="st7" d="M526,312.3c0.5,0.6,0.7,1.4,0.7,2.3c0,1-0.2,1.8-0.7,2.5s-1.1,1-2,1c-0.5,0-1-0.1-1.3-0.3
			c-0.2-0.1-0.4-0.3-0.6-0.7v0.8h-1.6v-8.6h1.7v3.1c0.2-0.3,0.4-0.5,0.7-0.7s0.7-0.3,1.2-0.3C524.8,311.4,525.5,311.7,526,312.3z
			 M524.6,316.2c0.2-0.3,0.4-0.8,0.4-1.4c0-0.5-0.1-0.8-0.2-1.1c-0.2-0.6-0.6-0.8-1.2-0.8c-0.6,0-1,0.3-1.3,0.8
			c-0.1,0.3-0.2,0.7-0.2,1.1c0,0.5,0.1,1,0.4,1.4s0.6,0.5,1.1,0.5C524,316.7,524.3,316.5,524.6,316.2z"/>
	</g>
	<g>
		<path class="st7" d="M414.8,0.8c1.5,0.5,2.7,1.4,3.6,2.6c0.7,1,1.2,2.2,1.5,3.4s0.4,2.4,0.4,3.5c0,2.8-0.6,5.1-1.7,7.1
			c-1.5,2.6-3.8,3.9-7,3.9h-9v-21h9C412.8,0.4,413.9,0.5,414.8,0.8z M406.8,4v13.6h4c2.1,0,3.5-1,4.3-3c0.4-1.1,0.7-2.4,0.7-4
			c0-2.1-0.3-3.8-1-4.9s-2-1.7-4-1.7H406.8z"/>
	</g>
	<g>
		<path class="st7" d="M395.1,62.7c0.9,0.9,1.3,2.1,1.3,3.8c0,1.6-0.4,2.9-1.2,4c-0.8,1-2,1.6-3.6,1.6c-1.4,0-2.4-0.5-3.2-1.4
			c-0.8-0.9-1.2-2.2-1.2-3.7c0-1.7,0.4-3,1.3-4c0.8-1,2-1.5,3.4-1.5C393.2,61.4,394.3,61.9,395.1,62.7z M394.1,69.3
			c0.4-0.8,0.6-1.8,0.6-2.8c0-0.9-0.1-1.7-0.4-2.3c-0.5-0.9-1.3-1.4-2.4-1.4c-1,0-1.7,0.4-2.2,1.2s-0.7,1.7-0.7,2.8s0.2,1.9,0.7,2.6
			s1.2,1.1,2.2,1.1C392.9,70.6,393.7,70.2,394.1,69.3z"/>
	</g>
	<g>
		<path class="st7" d="M306.5,61.7h2.2l2.3,3.5l2.3-3.5h2l-3.3,4.8l3.5,5.1h-2.1l-2.5-3.7l-2.4,3.7h-2.1l3.5-5.1L306.5,61.7z"/>
	</g>
	<g>
		<path class="st7" d="M347.5,61.7h2.2l2.3,3.5l2.3-3.5h2l-3.3,4.8l3.5,5.1h-2.1l-2.5-3.7l-2.4,3.7h-2.1l3.5-5.1L347.5,61.7z"/>
	</g>
	<rect x="20.5" y="86.5" class="st0" width="202" height="202"/>
	<line class="st0" x1="61.5" y1="86.5" x2="61.5" y2="288.5"/>
	<line class="st0" x1="102.5" y1="86.5" x2="102.5" y2="288.5"/>
	<line class="st0" x1="142.5" y1="86.5" x2="142.5" y2="288.5"/>
	<line class="st0" x1="181.5" y1="86.5" x2="181.5" y2="288.5"/>
	<line class="st0" x1="222.5" y1="127.5" x2="20.5" y2="127.5"/>
	<line class="st0" x1="222.5" y1="168.5" x2="20.5" y2="168.5"/>
	<line class="st0" x1="222.5" y1="208.5" x2="20.5" y2="208.5"/>
	<line class="st0" x1="222.5" y1="247.5" x2="20.5" y2="247.5"/>
	<line class="st1" x1="222.5" y1="86.5" x2="20.5" y2="86.5"/>
	<g>
		<path class="st7" d="M114.5,2.5c1.7-1.7,3.8-2.6,6.4-2.6c3.5,0,6,1.2,7.6,3.5c0.9,1.3,1.4,2.6,1.4,3.9h-4.4
			c-0.3-1-0.6-1.8-1.1-2.3c-0.8-0.9-1.9-1.4-3.5-1.4s-2.8,0.6-3.7,1.9c-0.9,1.3-1.3,3.1-1.3,5.4s0.5,4.1,1.4,5.3s2.1,1.7,3.6,1.7
			s2.6-0.5,3.4-1.5c0.4-0.5,0.8-1.3,1.1-2.4h4.3c-0.4,2.3-1.3,4.1-2.9,5.6s-3.5,2.1-5.9,2.1c-3,0-5.3-1-7-2.9s-2.5-4.6-2.5-8
			C111.6,7.3,112.6,4.5,114.5,2.5z"/>
	</g>
	<g>
		<path class="st7" d="M16.5,61.7h2.2l2.3,3.5l2.3-3.5h2L22,66.6l3.5,5.1h-2.1L20.9,68l-2.4,3.7h-2.1l3.5-5.1L16.5,61.7z"/>
	</g>
	<g>
		<path class="st7" d="M145.8,62.7c0.9,0.9,1.3,2.1,1.3,3.8c0,1.6-0.4,2.9-1.2,4c-0.8,1-2,1.6-3.6,1.6c-1.4,0-2.4-0.5-3.2-1.4
			c-0.8-0.9-1.2-2.2-1.2-3.7c0-1.7,0.4-3,1.3-4c0.8-1,2-1.5,3.4-1.5C143.9,61.4,145,61.9,145.8,62.7z M144.8,69.3
			c0.4-0.8,0.6-1.8,0.6-2.8c0-0.9-0.1-1.7-0.4-2.3c-0.5-0.9-1.3-1.4-2.4-1.4c-1,0-1.7,0.4-2.2,1.2s-0.7,1.7-0.7,2.8s0.2,1.9,0.7,2.6
			s1.2,1.1,2.2,1.1C143.6,70.6,144.4,70.2,144.8,69.3z"/>
	</g>
	<g>
		<circle class="st8" cx="61.8" cy="313.3" r="12"/>
		<g>
			<path class="st5" d="M58.6,308.7c0.8-0.9,1.9-1.3,3.2-1.3c1.7,0,3,0.6,3.8,1.7c0.4,0.6,0.7,1.3,0.7,1.9h-2.2
				c-0.1-0.5-0.3-0.9-0.5-1.1c-0.4-0.5-1-0.7-1.7-0.7c-0.8,0-1.4,0.3-1.8,1c-0.4,0.6-0.7,1.5-0.7,2.7s0.2,2,0.7,2.6s1.1,0.9,1.8,0.9
				s1.3-0.2,1.7-0.7c0.2-0.3,0.4-0.7,0.5-1.2h2.2c-0.2,1.1-0.7,2.1-1.4,2.8c-0.8,0.7-1.7,1.1-2.9,1.1c-1.5,0-2.6-0.5-3.5-1.4
				c-0.8-1-1.3-2.3-1.3-4C57.2,311.1,57.7,309.7,58.6,308.7z"/>
		</g>
	</g>
	<g>
		<circle class="st9" cx="221.3" cy="313.3" r="12"/>
		<g>
			<path class="st5" d="M225,309.4h-5.5v2.2h5v1.8h-5v2.7h5.8v1.9h-7.9v-10.4h7.6L225,309.4L225,309.4z"/>
		</g>
	</g>
	<g>
		<circle class="st10" cx="142.3" cy="313.3" r="12"/>
		<g>
			<path class="st5" d="M145,310.8c-0.2-0.7-0.6-1.2-1.2-1.5c-0.4-0.2-0.8-0.2-1.2-0.2c-0.8,0-1.5,0.3-2.1,0.9
				c-0.5,0.6-0.8,1.6-0.8,2.8c0,1.3,0.3,2.2,0.9,2.7c0.6,0.5,1.2,0.8,2,0.8c0.7,0,1.3-0.2,1.8-0.6s0.8-1,0.9-1.6h-2.4v-1.7h4.3v5.6
				h-1.4l-0.2-1.3c-0.4,0.5-0.8,0.8-1.1,1c-0.6,0.4-1.3,0.5-2.1,0.5c-1.4,0-2.5-0.5-3.4-1.4c-0.9-1-1.4-2.3-1.4-3.9
				c0-1.7,0.5-3,1.4-4s2.1-1.5,3.7-1.5c1.3,0,2.4,0.3,3.2,1s1.3,1.5,1.4,2.5L145,310.8L145,310.8z"/>
		</g>
	</g>
	<g>
		<circle class="st8" cx="180.8" cy="313.3" r="12"/>
		<g>
			<path class="st5" d="M177.6,308.7c0.8-0.9,1.9-1.3,3.2-1.3c1.7,0,3,0.6,3.8,1.7c0.4,0.6,0.7,1.3,0.7,1.9h-2.2
				c-0.1-0.5-0.3-0.9-0.5-1.1c-0.4-0.5-1-0.7-1.7-0.7c-0.8,0-1.4,0.3-1.8,1c-0.4,0.6-0.7,1.5-0.7,2.7s0.2,2,0.7,2.6s1.1,0.9,1.8,0.9
				s1.3-0.2,1.7-0.7c0.2-0.3,0.4-0.7,0.5-1.2h2.2c-0.2,1.1-0.7,2.1-1.4,2.8c-0.8,0.7-1.7,1.1-2.9,1.1c-1.5,0-2.6-0.5-3.5-1.4
				c-0.8-1-1.3-2.3-1.3-4C176.2,311.1,176.7,309.7,177.6,308.7z"/>
		</g>
	</g>
	<rect x="597.5" y="86.5" class="st0" width="202" height="202"/>
	<line class="st0" x1="638.5" y1="86.5" x2="638.5" y2="288.5"/>
	<line class="st0" x1="679.5" y1="86.5" x2="679.5" y2="288.5"/>
	<line class="st0" x1="719.5" y1="86.5" x2="719.5" y2="288.5"/>
	<line class="st0" x1="758.5" y1="86.5" x2="758.5" y2="288.5"/>
	<line class="st0" x1="799.5" y1="127.5" x2="597.5" y2="127.5"/>
	<line class="st0" x1="799.5" y1="168.5" x2="597.5" y2="168.5"/>
	<line class="st0" x1="799.5" y1="208.5" x2="597.5" y2="208.5"/>
	<line class="st0" x1="799.5" y1="247.5" x2="597.5" y2="247.5"/>
	<line class="st1" x1="799.5" y1="86.5" x2="597.5" y2="86.5"/>
	<g>
		<path class="st7" d="M705.8,4h-11v4.4h10.1V12h-10.1v5.4h11.6v3.8h-15.8V0.3h15.3L705.8,4L705.8,4z"/>
	</g>
	<g>
		<path class="st7" d="M802.1,62.7c0.9,0.9,1.3,2.1,1.3,3.8c0,1.6-0.4,2.9-1.2,4c-0.8,1-2,1.6-3.6,1.6c-1.4,0-2.4-0.5-3.2-1.4
			s-1.2-2.2-1.2-3.7c0-1.7,0.4-3,1.3-4c0.8-1,2-1.5,3.4-1.5C800.2,61.4,801.3,61.9,802.1,62.7z M801.1,69.3c0.4-0.8,0.6-1.8,0.6-2.8
			c0-0.9-0.1-1.7-0.4-2.3c-0.5-0.9-1.3-1.4-2.4-1.4c-1,0-1.7,0.4-2.2,1.2s-0.7,1.7-0.7,2.8s0.2,1.9,0.7,2.6s1.2,1.1,2.2,1.1
			C799.9,70.6,800.7,70.2,801.1,69.3z"/>
	</g>
	<g>
		<path class="st7" d="M761.1,62.7c0.9,0.9,1.3,2.1,1.3,3.8c0,1.6-0.4,2.9-1.2,4c-0.8,1-2,1.6-3.6,1.6c-1.4,0-2.4-0.5-3.2-1.4
			s-1.2-2.2-1.2-3.7c0-1.7,0.4-3,1.3-4c0.8-1,2-1.5,3.4-1.5C759.2,61.4,760.3,61.9,761.1,62.7z M760.1,69.3c0.4-0.8,0.6-1.8,0.6-2.8
			c0-0.9-0.1-1.7-0.4-2.3c-0.5-0.9-1.3-1.4-2.4-1.4c-1,0-1.7,0.4-2.2,1.2s-0.7,1.7-0.7,2.8s0.2,1.9,0.7,2.6s1.2,1.1,2.2,1.1
			C758.9,70.6,759.7,70.2,760.1,69.3z"/>
	</g>
	<g>
		<path class="st7" d="M601.1,62.7c0.9,0.9,1.3,2.1,1.3,3.8c0,1.6-0.4,2.9-1.2,4c-0.8,1-2,1.6-3.6,1.6c-1.4,0-2.4-0.5-3.2-1.4
			s-1.2-2.2-1.2-3.7c0-1.7,0.4-3,1.3-4c0.8-1,2-1.5,3.4-1.5C599.2,61.4,600.3,61.9,601.1,62.7z M600.1,69.3c0.4-0.8,0.6-1.8,0.6-2.8
			c0-0.9-0.1-1.7-0.4-2.3c-0.5-0.9-1.3-1.4-2.4-1.4c-1,0-1.7,0.4-2.2,1.2s-0.7,1.7-0.7,2.8s0.2,1.9,0.7,2.6s1.2,1.1,2.2,1.1
			C598.9,70.6,599.7,70.2,600.1,69.3z"/>
	</g>
	<g>
		<circle class="st9" cx="598.3" cy="313.3" r="12"/>
		<g>
			<path class="st5" d="M602,309.4h-5.5v2.2h5v1.8h-5v2.7h5.8v1.9h-7.9v-10.4h7.6L602,309.4L602,309.4z"/>
		</g>
	</g>
	<g>
		<circle class="st9" cx="799.3" cy="313.3" r="12"/>
		<g>
			<path class="st5" d="M803,309.4h-5.5v2.2h5v1.8h-5v2.7h5.8v1.9h-7.9v-10.4h7.6L803,309.4L803,309.4z"/>
		</g>
	</g>
	<g>
		<circle class="st11" cx="638.3" cy="313.3" r="12"/>
		<g>
			<path class="st5" d="M641.8,308.7c0.3,0.4,0.5,1,0.5,1.6s-0.2,1.1-0.5,1.5c-0.2,0.2-0.4,0.4-0.8,0.6c0.5,0.2,0.9,0.5,1.2,0.9
				s0.4,0.9,0.4,1.5s-0.2,1.2-0.5,1.7c-0.2,0.3-0.4,0.6-0.7,0.8c-0.3,0.3-0.7,0.4-1.2,0.5s-0.9,0.1-1.5,0.1H634v-10.4h5
				C640.4,307.6,641.3,308,641.8,308.7z M636.2,309.4v2.3h2.5c0.5,0,0.8-0.1,1.1-0.3c0.3-0.2,0.4-0.5,0.4-0.9c0-0.5-0.2-0.8-0.6-1
				c-0.3-0.1-0.7-0.2-1.2-0.2h-2.2V309.4z M636.2,313.4v2.8h2.5c0.5,0,0.8-0.1,1.1-0.2c0.5-0.2,0.7-0.7,0.7-1.3
				c0-0.5-0.2-0.9-0.7-1.1c-0.2-0.1-0.6-0.2-1-0.2L636.2,313.4L636.2,313.4z"/>
		</g>
	</g>
	<g>
		<circle class="st9" cx="679.3" cy="313.3" r="12"/>
		<g>
			<path class="st5" d="M683,309.4h-5.5v2.2h5v1.8h-5v2.7h5.8v1.9h-7.9v-10.4h7.6L683,309.4L683,309.4z"/>
		</g>
	</g>
	<g>
		<circle class="st11" cx="758.3" cy="313.3" r="12"/>
		<g>
			<path class="st5" d="M761.8,308.7c0.3,0.4,0.5,1,0.5,1.6s-0.2,1.1-0.5,1.5c-0.2,0.2-0.4,0.4-0.8,0.6c0.5,0.2,0.9,0.5,1.2,0.9
				s0.4,0.9,0.4,1.5s-0.2,1.2-0.5,1.7c-0.2,0.3-0.4,0.6-0.7,0.8c-0.3,0.3-0.7,0.4-1.2,0.5s-0.9,0.1-1.5,0.1H754v-10.4h5
				C760.4,307.6,761.3,308,761.8,308.7z M756.2,309.4v2.3h2.5c0.5,0,0.8-0.1,1.1-0.3c0.3-0.2,0.4-0.5,0.4-0.9c0-0.5-0.2-0.8-0.6-1
				c-0.3-0.1-0.7-0.2-1.2-0.2h-2.2V309.4z M756.2,313.4v2.8h2.5c0.5,0,0.8-0.1,1.1-0.2c0.5-0.2,0.7-0.7,0.7-1.3
				c0-0.5-0.2-0.9-0.7-1.1c-0.2-0.1-0.6-0.2-1-0.2L756.2,313.4L756.2,313.4z"/>
		</g>
	</g>
	<rect x="891.5" y="86.5" class="st0" width="202" height="202"/>
	<line class="st0" x1="932.5" y1="86.5" x2="932.5" y2="288.5"/>
	<line class="st0" x1="973.5" y1="86.5" x2="973.5" y2="288.5"/>
	<line class="st0" x1="1013.5" y1="86.5" x2="1013.5" y2="288.5"/>
	<line class="st0" x1="1052.5" y1="86.5" x2="1052.5" y2="288.5"/>
	<line class="st0" x1="1093.5" y1="127.5" x2="891.5" y2="127.5"/>
	<line class="st0" x1="1093.5" y1="168.5" x2="891.5" y2="168.5"/>
	<line class="st0" x1="1093.5" y1="208.5" x2="891.5" y2="208.5"/>
	<line class="st0" x1="1093.5" y1="247.5" x2="891.5" y2="247.5"/>
	<line class="st1" x1="1093.5" y1="86.5" x2="891.5" y2="86.5"/>
	<g>
		<path class="st7" d="M985.2,0.4h14.9V4h-10.5v4.8h9.2v3.6h-9.2v8.8h-4.3V0.4H985.2z"/>
	</g>
	<g>
		<g>
			
				<ellipse transform="matrix(0.1602 -0.9871 0.9871 0.1602 705.1354 1124.9875)" class="st5" cx="1013.7" cy="148.1" rx="12" ry="12"/>
		</g>
		<g>
			<path d="M1010.2,151.3c0.3-0.8,1.1-1.6,2.2-2.4c1-0.7,1.7-1.3,2-1.6c0.5-0.5,0.7-1,0.7-1.6c0-0.5-0.1-0.9-0.4-1.2
				s-0.6-0.5-1.1-0.5c-0.7,0-1.1,0.3-1.4,0.8c-0.1,0.3-0.2,0.8-0.2,1.4h-2.2c0-1,0.2-1.7,0.5-2.3c0.6-1.1,1.7-1.7,3.2-1.7
				c1.2,0,2.2,0.3,2.9,1s1.1,1.5,1.1,2.6c0,0.8-0.2,1.6-0.8,2.2c-0.3,0.4-0.9,0.9-1.6,1.4l-0.9,0.6c-0.6,0.4-0.9,0.7-1.1,0.9
				s-0.4,0.4-0.5,0.6h4.9v2h-7.8C1009.7,152.7,1009.9,151.9,1010.2,151.3z"/>
		</g>
	</g>
	<g>
		<g>
			<circle class="st5" cx="973.7" cy="189.1" r="12"/>
		</g>
		<g>
			<path d="M971.8,191c0,0.5,0.1,0.8,0.2,1.1c0.3,0.5,0.8,0.8,1.5,0.8c0.4,0,0.8-0.1,1.1-0.4c0.3-0.3,0.5-0.7,0.5-1.3
				c0-0.7-0.3-1.2-0.9-1.5c-0.3-0.1-0.9-0.2-1.6-0.2v-1.6c0.7,0,1.2-0.1,1.5-0.2c0.5-0.2,0.7-0.7,0.7-1.3c0-0.4-0.1-0.8-0.4-1.1
				s-0.6-0.4-1.1-0.4s-0.9,0.2-1.2,0.5s-0.4,0.8-0.4,1.3h-2.1c0-0.6,0.1-1.1,0.3-1.6c0.2-0.4,0.5-0.9,0.9-1.2c0.3-0.3,0.6-0.5,1-0.6
				s0.9-0.2,1.5-0.2c1.1,0,2,0.3,2.6,0.8s1,1.3,1,2.3c0,0.7-0.2,1.2-0.6,1.7c-0.2,0.3-0.5,0.5-0.8,0.6c0.2,0,0.5,0.2,0.9,0.5
				c0.6,0.5,0.9,1.2,0.9,2.2s-0.3,1.8-1,2.5s-1.6,1.1-2.9,1.1c-1.6,0-2.7-0.5-3.3-1.6c-0.3-0.6-0.5-1.3-0.5-2.2L971.8,191L971.8,191
				z"/>
		</g>
	</g>
	<g>
		<g>
			<circle class="st5" cx="933.2" cy="189.1" r="12"/>
		</g>
		<g>
			<path d="M937.1,192.1h-1.3v2.4h-2.2v-2.4h-4.5v-1.9l4.2-6.9h2.5v7.1h1.3V192.1z M933.6,190.3v-4.9l-2.8,4.9H933.6z"/>
		</g>
	</g>
	<g>
		<circle class="st12" cx="890.1" cy="313.3" r="12"/>
		<g>
			<path class="st5" d="M887.1,307.4h7.4v1.8h-5.3v2.4h4.6v1.8h-4.6v4.4H887L887.1,307.4L887.1,307.4z"/>
		</g>
	</g>
	<g>
		<circle class="st12" cx="974.1" cy="313.3" r="12"/>
		<g>
			<path class="st5" d="M971.1,307.4h7.4v1.8h-5.3v2.4h4.6v1.8h-4.6v4.4H971L971.1,307.4L971.1,307.4z"/>
		</g>
	</g>
	<g>
		<circle class="st12" cx="1093.1" cy="313.3" r="12"/>
		<g>
			<path class="st5" d="M1090.1,307.4h7.4v1.8h-5.3v2.4h4.6v1.8h-4.6v4.4h-2.2L1090.1,307.4L1090.1,307.4z"/>
		</g>
	</g>
	<g>
		<circle class="st8" cx="1053.8" cy="313.3" r="12"/>
		<g>
			<path class="st5" d="M1050.6,308.7c0.8-0.9,1.9-1.3,3.2-1.3c1.7,0,3,0.6,3.8,1.7c0.4,0.6,0.7,1.3,0.7,1.9h-2.2
				c-0.1-0.5-0.3-0.9-0.5-1.1c-0.4-0.5-1-0.7-1.7-0.7c-0.8,0-1.4,0.3-1.8,1c-0.4,0.6-0.7,1.5-0.7,2.7s0.2,2,0.7,2.6s1.1,0.9,1.8,0.9
				c0.7,0,1.3-0.2,1.7-0.7c0.2-0.3,0.4-0.7,0.5-1.2h2.2c-0.2,1.1-0.7,2.1-1.4,2.8c-0.8,0.7-1.7,1.1-2.9,1.1c-1.5,0-2.6-0.5-3.5-1.4
				c-0.8-1-1.3-2.3-1.3-4C1049.2,311.1,1049.7,309.7,1050.6,308.7z"/>
		</g>
	</g>
	<g>
		<circle class="st8" cx="932.8" cy="313.3" r="12"/>
		<g>
			<path class="st5" d="M929.6,308.7c0.8-0.9,1.9-1.3,3.2-1.3c1.7,0,3,0.6,3.8,1.7c0.4,0.6,0.7,1.3,0.7,1.9h-2.2
				c-0.1-0.5-0.3-0.9-0.5-1.1c-0.4-0.5-1-0.7-1.7-0.7c-0.8,0-1.4,0.3-1.8,1c-0.4,0.6-0.7,1.5-0.7,2.7s0.2,2,0.7,2.6s1.1,0.9,1.8,0.9
				s1.3-0.2,1.7-0.7c0.2-0.3,0.4-0.7,0.5-1.2h2.2c-0.2,1.1-0.7,2.1-1.4,2.8c-0.8,0.7-1.7,1.1-2.9,1.1c-1.5,0-2.6-0.5-3.5-1.4
				c-0.8-1-1.3-2.3-1.3-4C928.2,311.1,928.7,309.7,929.6,308.7z"/>
		</g>
	</g>
	<rect x="1180.5" y="86.5" class="st0" width="202" height="202"/>
	<line class="st0" x1="1221.5" y1="86.5" x2="1221.5" y2="288.5"/>
	<line class="st0" x1="1262.5" y1="86.5" x2="1262.5" y2="288.5"/>
	<line class="st0" x1="1302.5" y1="86.5" x2="1302.5" y2="288.5"/>
	<line class="st0" x1="1341.5" y1="86.5" x2="1341.5" y2="288.5"/>
	<line class="st0" x1="1382.5" y1="127.5" x2="1180.5" y2="127.5"/>
	<line class="st0" x1="1382.5" y1="168.5" x2="1180.5" y2="168.5"/>
	<line class="st0" x1="1382.5" y1="208.5" x2="1180.5" y2="208.5"/>
	<line class="st0" x1="1382.5" y1="247.5" x2="1180.5" y2="247.5"/>
	<line class="st1" x1="1382.5" y1="86.5" x2="1180.5" y2="86.5"/>
	<g>
		<path class="st7" d="M1285.8,6.9c-0.3-1.4-1.1-2.4-2.4-3c-0.7-0.3-1.5-0.5-2.4-0.5c-1.7,0-3.1,0.6-4.1,1.9
			c-1.1,1.3-1.6,3.2-1.6,5.7c0,2.6,0.6,4.4,1.8,5.4s2.5,1.6,4,1.6s2.7-0.4,3.6-1.3c0.9-0.9,1.5-1.9,1.7-3.3h-4.8V10h8.7v11.2h-2.9
			l-0.4-2.6c-0.8,1-1.6,1.7-2.3,2.1c-1.2,0.7-2.6,1.1-4.2,1.1c-2.8,0-5-1-6.8-2.9s-2.8-4.6-2.8-7.9c0-3.4,0.9-6.1,2.8-8.1
			s4.3-3.1,7.4-3.1c2.7,0,4.8,0.7,6.4,2s2.5,3,2.8,5L1285.8,6.9L1285.8,6.9z"/>
	</g>
	<g>
		<path class="st7" d="M1344.1,62.7c0.9,0.9,1.3,2.1,1.3,3.8c0,1.6-0.4,2.9-1.2,4c-0.8,1-2,1.6-3.6,1.6c-1.4,0-2.4-0.5-3.2-1.4
			c-0.8-0.9-1.2-2.2-1.2-3.7c0-1.7,0.4-3,1.3-4c0.8-1,2-1.5,3.4-1.5C1342.2,61.4,1343.3,61.9,1344.1,62.7z M1343.1,69.3
			c0.4-0.8,0.6-1.8,0.6-2.8c0-0.9-0.1-1.7-0.4-2.3c-0.5-0.9-1.3-1.4-2.4-1.4c-1,0-1.7,0.4-2.2,1.2s-0.7,1.7-0.7,2.8s0.2,1.9,0.7,2.6
			s1.2,1.1,2.2,1.1C1341.9,70.6,1342.7,70.2,1343.1,69.3z"/>
	</g>
	<g>
		<path class="st7" d="M1303.1,62.7c0.9,0.9,1.3,2.1,1.3,3.8c0,1.6-0.4,2.9-1.2,4c-0.8,1-2,1.6-3.6,1.6c-1.4,0-2.4-0.5-3.2-1.4
			c-0.8-0.9-1.2-2.2-1.2-3.7c0-1.7,0.4-3,1.3-4c0.8-1,2-1.5,3.4-1.5C1301.2,61.4,1302.3,61.9,1303.1,62.7z M1302.1,69.3
			c0.4-0.8,0.6-1.8,0.6-2.8c0-0.9-0.1-1.7-0.4-2.3c-0.5-0.9-1.3-1.4-2.4-1.4c-1,0-1.7,0.4-2.2,1.2s-0.7,1.7-0.7,2.8s0.2,1.9,0.7,2.6
			s1.2,1.1,2.2,1.1C1300.9,70.6,1301.7,70.2,1302.1,69.3z"/>
	</g>
	<g>
		<path class="st7" d="M1263.1,62.7c0.9,0.9,1.3,2.1,1.3,3.8c0,1.6-0.4,2.9-1.2,4c-0.8,1-2,1.6-3.6,1.6c-1.4,0-2.4-0.5-3.2-1.4
			c-0.8-0.9-1.2-2.2-1.2-3.7c0-1.7,0.4-3,1.3-4c0.8-1,2-1.5,3.4-1.5C1261.2,61.4,1262.3,61.9,1263.1,62.7z M1262.1,69.3
			c0.4-0.8,0.6-1.8,0.6-2.8c0-0.9-0.1-1.7-0.4-2.3c-0.5-0.9-1.3-1.4-2.4-1.4c-1,0-1.7,0.4-2.2,1.2s-0.7,1.7-0.7,2.8s0.2,1.9,0.7,2.6
			s1.2,1.1,2.2,1.1C1260.9,70.6,1261.7,70.2,1262.1,69.3z"/>
	</g>
	<g>
		<circle class="st10" cx="1383.3" cy="313.6" r="12"/>
		<g>
			<path class="st5" d="M1386,311.1c-0.2-0.7-0.6-1.2-1.2-1.5c-0.4-0.2-0.8-0.2-1.2-0.2c-0.8,0-1.5,0.3-2.1,0.9
				c-0.5,0.6-0.8,1.6-0.8,2.8c0,1.3,0.3,2.2,0.9,2.7s1.2,0.8,2,0.8c0.7,0,1.3-0.2,1.8-0.6s0.8-1,0.9-1.6h-2.4v-1.7h4.3v5.6h-1.4
				l-0.2-1.3c-0.4,0.5-0.8,0.8-1.1,1c-0.6,0.4-1.3,0.5-2.1,0.5c-1.4,0-2.5-0.5-3.4-1.4c-0.9-1-1.4-2.3-1.4-3.9c0-1.7,0.5-3,1.4-4
				s2.1-1.5,3.7-1.5c1.3,0,2.4,0.3,3.2,1c0.8,0.7,1.3,1.5,1.4,2.5L1386,311.1L1386,311.1z"/>
		</g>
	</g>
	<g>
		<circle class="st10" cx="1182.3" cy="313.6" r="12"/>
		<g>
			<path class="st5" d="M1185,311.1c-0.2-0.7-0.6-1.2-1.2-1.5c-0.4-0.2-0.8-0.2-1.2-0.2c-0.8,0-1.5,0.3-2.1,0.9
				c-0.5,0.6-0.8,1.6-0.8,2.8c0,1.3,0.3,2.2,0.9,2.7s1.2,0.8,2,0.8c0.7,0,1.3-0.2,1.8-0.6s0.8-1,0.9-1.6h-2.4v-1.7h4.3v5.6h-1.4
				l-0.2-1.3c-0.4,0.5-0.8,0.8-1.1,1c-0.6,0.4-1.3,0.5-2.1,0.5c-1.4,0-2.5-0.5-3.4-1.4c-0.9-1-1.4-2.3-1.4-3.9c0-1.7,0.5-3,1.4-4
				s2.1-1.5,3.7-1.5c1.3,0,2.4,0.3,3.2,1c0.8,0.7,1.3,1.5,1.4,2.5L1185,311.1L1185,311.1z"/>
		</g>
	</g>
	<g>
		<circle class="st11" cx="1342.3" cy="313.3" r="12"/>
		<g>
			<path class="st5" d="M1345.8,308.7c0.3,0.4,0.5,1,0.5,1.6s-0.2,1.1-0.5,1.5c-0.2,0.2-0.4,0.4-0.8,0.6c0.5,0.2,0.9,0.5,1.2,0.9
				c0.3,0.4,0.4,0.9,0.4,1.5s-0.2,1.2-0.5,1.7c-0.2,0.3-0.4,0.6-0.7,0.8c-0.3,0.3-0.7,0.4-1.2,0.5s-0.9,0.1-1.5,0.1h-4.7v-10.4h5
				C1344.4,307.6,1345.3,308,1345.8,308.7z M1340.2,309.4v2.3h2.5c0.5,0,0.8-0.1,1.1-0.3c0.3-0.2,0.4-0.5,0.4-0.9
				c0-0.5-0.2-0.8-0.6-1c-0.3-0.1-0.7-0.2-1.2-0.2h-2.2V309.4z M1340.2,313.4v2.8h2.5c0.5,0,0.8-0.1,1.1-0.2
				c0.5-0.2,0.7-0.7,0.7-1.3c0-0.5-0.2-0.9-0.7-1.1c-0.2-0.1-0.6-0.2-1-0.2L1340.2,313.4L1340.2,313.4z"/>
		</g>
	</g>
	<g>
		<circle class="st4" cx="1262.3" cy="313.3" r="12"/>
		<g>
			<path class="st5" d="M1264.4,307.8c0.7,0.2,1.3,0.7,1.8,1.3c0.4,0.5,0.6,1.1,0.7,1.7s0.2,1.2,0.2,1.7c0,1.4-0.3,2.6-0.8,3.5
				c-0.8,1.3-1.9,1.9-3.5,1.9h-4.5v-10.4h4.5C1263.4,307.6,1264,307.7,1264.4,307.8z M1260.4,309.4v6.8h2c1,0,1.7-0.5,2.1-1.5
				c0.2-0.6,0.3-1.2,0.3-2c0-1.1-0.2-1.9-0.5-2.4c-0.3-0.6-1-0.8-2-0.8h-1.9V309.4z"/>
		</g>
	</g>
	<g>
		<circle class="st11" cx="1222.3" cy="313.3" r="12"/>
		<g>
			<path class="st5" d="M1225.8,308.7c0.3,0.4,0.5,1,0.5,1.6s-0.2,1.1-0.5,1.5c-0.2,0.2-0.4,0.4-0.8,0.6c0.5,0.2,0.9,0.5,1.2,0.9
				c0.3,0.4,0.4,0.9,0.4,1.5s-0.2,1.2-0.5,1.7c-0.2,0.3-0.4,0.6-0.7,0.8c-0.3,0.3-0.7,0.4-1.2,0.5s-0.9,0.1-1.5,0.1h-4.7v-10.4h5
				C1224.4,307.6,1225.3,308,1225.8,308.7z M1220.2,309.4v2.3h2.5c0.5,0,0.8-0.1,1.1-0.3c0.3-0.2,0.4-0.5,0.4-0.9
				c0-0.5-0.2-0.8-0.6-1c-0.3-0.1-0.7-0.2-1.2-0.2h-2.2V309.4z M1220.2,313.4v2.8h2.5c0.5,0,0.8-0.1,1.1-0.2
				c0.5-0.2,0.7-0.7,0.7-1.3c0-0.5-0.2-0.9-0.7-1.1c-0.2-0.1-0.6-0.2-1-0.2L1220.2,313.4L1220.2,313.4z"/>
		</g>
	</g>
	<rect x="1478.5" y="86.5" class="st0" width="202" height="202"/>
	<line class="st0" x1="1519.5" y1="86.5" x2="1519.5" y2="288.5"/>
	<line class="st0" x1="1560.5" y1="86.5" x2="1560.5" y2="288.5"/>
	<line class="st0" x1="1600.5" y1="86.5" x2="1600.5" y2="288.5"/>
	<line class="st0" x1="1639.5" y1="86.5" x2="1639.5" y2="288.5"/>
	<line class="st0" x1="1680.5" y1="127.5" x2="1478.5" y2="127.5"/>
	<line class="st0" x1="1680.5" y1="168.5" x2="1478.5" y2="168.5"/>
	<line class="st0" x1="1680.5" y1="208.5" x2="1478.5" y2="208.5"/>
	<line class="st0" x1="1680.5" y1="247.5" x2="1478.5" y2="247.5"/>
	<line class="st1" x1="1680.5" y1="86.5" x2="1478.5" y2="86.5"/>
	<g>
		<path class="st7" d="M1563.6,0.3h4.9l7.4,20.9h-4.7l-1.4-4.3h-7.7l-1.4,4.3h-4.6L1563.6,0.3z M1563.3,13.3h5.3l-2.6-8.2
			L1563.3,13.3z"/>
		<path class="st7" d="M1597.5,5.8c0.7,0.3,1.3,0.7,1.8,1.4c0.4,0.5,0.7,1.2,0.9,2c0.1,0.5,0.1,1.3,0.1,2.3v9.7h-4.1v-9.8
			c0-0.6-0.1-1.1-0.3-1.4c-0.4-0.7-1-1.1-2-1.1c-1.1,0-1.9,0.5-2.3,1.4c-0.2,0.5-0.3,1.1-0.3,1.8v9.2h-4.1V12c0-0.9-0.1-1.6-0.3-2
			c-0.3-0.7-1-1.1-2-1.1c-1.2,0-1.9,0.4-2.3,1.1c-0.2,0.4-0.3,1.1-0.3,1.9v9.3h-4.1V5.8h3.9v2.3c0.5-0.8,1-1.4,1.4-1.7
			c0.8-0.6,1.8-0.9,3-0.9s2.1,0.3,2.9,0.8c0.6,0.5,1,1.1,1.3,1.9c0.5-0.9,1.2-1.6,2-2s1.8-0.6,2.8-0.6
			C1596.2,5.4,1596.9,5.6,1597.5,5.8z"/>
	</g>
	<g>
		<path class="st7" d="M1683.1,62.7c0.9,0.9,1.3,2.1,1.3,3.8c0,1.6-0.4,2.9-1.2,4c-0.8,1-2,1.6-3.6,1.6c-1.4,0-2.4-0.5-3.2-1.4
			c-0.8-0.9-1.2-2.2-1.2-3.7c0-1.7,0.4-3,1.3-4c0.8-1,2-1.5,3.4-1.5C1681.2,61.4,1682.3,61.9,1683.1,62.7z M1682.1,69.3
			c0.4-0.8,0.6-1.8,0.6-2.8c0-0.9-0.1-1.7-0.4-2.3c-0.5-0.9-1.3-1.4-2.4-1.4c-1,0-1.7,0.4-2.2,1.2s-0.7,1.7-0.7,2.8s0.2,1.9,0.7,2.6
			s1.2,1.1,2.2,1.1C1680.9,70.6,1681.7,70.2,1682.1,69.3z"/>
	</g>
	<g>
		<path class="st7" d="M1473.5,61.7h2.2l2.3,3.5l2.3-3.5h2l-3.3,4.8l3.5,5.1h-2.1l-2.5-3.7l-2.4,3.7h-2.1l3.5-5.1L1473.5,61.7z"/>
	</g>
	<g>
		<path class="st7" d="M1524.1,62.7c0.9,0.9,1.3,2.1,1.3,3.8c0,1.6-0.4,2.9-1.2,4c-0.8,1-2,1.6-3.6,1.6c-1.4,0-2.4-0.5-3.2-1.4
			c-0.8-0.9-1.2-2.2-1.2-3.7c0-1.7,0.4-3,1.3-4c0.8-1,2-1.5,3.4-1.5C1522.2,61.4,1523.3,61.9,1524.1,62.7z M1523.1,69.3
			c0.4-0.8,0.6-1.8,0.6-2.8c0-0.9-0.1-1.7-0.4-2.3c-0.5-0.9-1.3-1.4-2.4-1.4c-1,0-1.7,0.4-2.2,1.2s-0.7,1.7-0.7,2.8s0.2,1.9,0.7,2.6
			s1.2,1.1,2.2,1.1C1521.9,70.6,1522.7,70.2,1523.1,69.3z"/>
	</g>
	<g>
		<circle class="st9" cx="1680.3" cy="314.8" r="12"/>
		<g>
			<path class="st5" d="M1684,311h-5.5v2.2h5v1.8h-5v2.7h5.8v1.9h-7.9v-10.4h7.6V311z"/>
		</g>
	</g>
	<g>
		<circle class="st9" cx="1559.3" cy="314.8" r="12"/>
		<g>
			<path class="st5" d="M1563,311h-5.5v2.2h5v1.8h-5v2.7h5.8v1.9h-7.9v-10.4h7.6V311z"/>
		</g>
	</g>
	<g>
		<circle class="st6" cx="1599.3" cy="314.8" r="12"/>
		<g>
			<path class="st5" d="M1598.1,309.1h2.5l3.7,10.4h-2.4l-0.7-2.1h-3.8l-0.7,2.1h-2.3L1598.1,309.1z M1598,315.6h2.7l-1.3-4.1
				L1598,315.6z"/>
		</g>
	</g>
	<g>
		<g>
			<path class="st13" d="M1092.3,118.6c6.6,0,12-5.4,12-12s-5.4-12-12-12h-200c-6.6,0-12,5.4-12,12s5.4,12,12,12H1092.3z"/>
		</g>
	</g>
	<g>
		<g>
			<circle class="st5" cx="891.3" cy="106.5" r="12"/>
		</g>
		<g>
			<path d="M887.7,104v-1.5c0.7,0,1.2-0.1,1.5-0.1c0.4-0.1,0.8-0.3,1.1-0.6c0.2-0.2,0.3-0.5,0.4-0.8c0.1-0.2,0.1-0.4,0.1-0.5h1.9
				v11.3h-2.3V104H887.7z"/>
		</g>
	</g>
	<g>
		
			<ellipse transform="matrix(0.1602 -0.9871 0.9871 0.1602 541.733 1263.3307)" class="st6" cx="1013.3" cy="313.3" rx="12" ry="12"/>
		<g>
			<path class="st5" d="M1012.1,307.6h2.5l3.7,10.4h-2.4l-0.7-2.1h-3.8l-0.7,2.1h-2.3L1012.1,307.6z M1012,314.1h2.7l-1.3-4.1
				L1012,314.1z"/>
		</g>
	</g>
	<g>
		<g>
			<circle class="st5" cx="637.7" cy="147.1" r="12"/>
		</g>
		<g>
			<path d="M634.2,150.3c0.3-0.8,1.1-1.6,2.2-2.4c1-0.7,1.7-1.3,2-1.6c0.5-0.5,0.7-1,0.7-1.6c0-0.5-0.1-0.9-0.4-1.2
				s-0.6-0.5-1.1-0.5c-0.7,0-1.1,0.3-1.4,0.8c-0.1,0.3-0.2,0.8-0.2,1.4h-2.2c0-1,0.2-1.7,0.5-2.3c0.6-1.1,1.7-1.7,3.2-1.7
				c1.2,0,2.2,0.3,2.9,1s1.1,1.5,1.1,2.6c0,0.8-0.2,1.6-0.8,2.2c-0.3,0.4-0.9,0.9-1.6,1.4l-0.9,0.6c-0.6,0.4-0.9,0.7-1.1,0.9
				s-0.4,0.4-0.5,0.6h4.9v2h-7.8C633.7,151.7,633.9,150.9,634.2,150.3z"/>
		</g>
	</g>
	<g>
		<g>
			<circle class="st5" cx="679.7" cy="147.1" r="12"/>
		</g>
		<g>
			<path d="M677.8,149c0,0.5,0.1,0.8,0.2,1.1c0.3,0.5,0.8,0.8,1.5,0.8c0.4,0,0.8-0.1,1.1-0.4c0.3-0.3,0.5-0.7,0.5-1.3
				c0-0.7-0.3-1.2-0.9-1.5c-0.3-0.1-0.9-0.2-1.6-0.2v-1.6c0.7,0,1.2-0.1,1.5-0.2c0.5-0.2,0.7-0.7,0.7-1.3c0-0.4-0.1-0.8-0.4-1.1
				s-0.6-0.4-1.1-0.4s-0.9,0.2-1.2,0.5s-0.4,0.8-0.4,1.3h-2.1c0-0.6,0.1-1.1,0.3-1.6c0.2-0.4,0.5-0.9,0.9-1.2c0.3-0.3,0.6-0.5,1-0.6
				s0.9-0.2,1.5-0.2c1.1,0,2,0.3,2.6,0.8s1,1.3,1,2.3c0,0.7-0.2,1.2-0.6,1.7c-0.2,0.3-0.5,0.5-0.8,0.6c0.2,0,0.5,0.2,0.9,0.5
				c0.6,0.5,0.9,1.2,0.9,2.2s-0.3,1.8-1,2.5s-1.6,1.1-2.9,1.1c-1.6,0-2.7-0.5-3.3-1.6c-0.3-0.6-0.5-1.3-0.5-2.2L677.8,149L677.8,149
				z"/>
		</g>
	</g>
	<g>
		<g>
			<circle class="st5" cx="719.3" cy="106.5" r="12"/>
		</g>
		<g>
			<path d="M715.7,104v-1.5c0.7,0,1.2-0.1,1.5-0.1c0.4-0.1,0.8-0.3,1.1-0.6c0.2-0.2,0.3-0.5,0.4-0.8c0.1-0.2,0.1-0.4,0.1-0.5h1.9
				v11.3h-2.3V104H715.7z"/>
		</g>
	</g>
	<g>
		<g>
			<circle class="st5" cx="511.7" cy="147.1" r="12"/>
		</g>
		<g>
			<path d="M508.2,150.3c0.3-0.8,1.1-1.6,2.2-2.4c1-0.7,1.7-1.3,2-1.6c0.5-0.5,0.7-1,0.7-1.6c0-0.5-0.1-0.9-0.4-1.2
				s-0.6-0.5-1.1-0.5c-0.7,0-1.1,0.3-1.4,0.8c-0.1,0.3-0.2,0.8-0.2,1.4h-2.2c0-1,0.2-1.7,0.5-2.3c0.6-1.1,1.7-1.7,3.2-1.7
				c1.2,0,2.2,0.3,2.9,1s1.1,1.5,1.1,2.6c0,0.8-0.2,1.6-0.8,2.2c-0.3,0.4-0.9,0.9-1.6,1.4l-0.9,0.6c-0.6,0.4-0.9,0.7-1.1,0.9
				s-0.4,0.4-0.5,0.6h4.9v2h-7.8C507.7,151.7,507.9,150.9,508.2,150.3z"/>
		</g>
	</g>
	<g>
		<g>
			<circle class="st5" cx="432.7" cy="147.1" r="12"/>
		</g>
		<g>
			<path d="M429.3,144.7v-1.5c0.7,0,1.2-0.1,1.5-0.1c0.4-0.1,0.8-0.3,1.1-0.6c0.2-0.2,0.3-0.5,0.4-0.8c0.1-0.2,0.1-0.4,0.1-0.5h1.9
				v11.3H432v-7.8L429.3,144.7L429.3,144.7z"/>
		</g>
	</g>
	<g>
		<g>
			<circle class="st5" cx="471.7" cy="189.1" r="12"/>
		</g>
		<g>
			<path d="M469.8,191c0,0.5,0.1,0.8,0.2,1.1c0.3,0.5,0.8,0.8,1.5,0.8c0.4,0,0.8-0.1,1.1-0.4c0.3-0.3,0.5-0.7,0.5-1.3
				c0-0.7-0.3-1.2-0.9-1.5c-0.3-0.1-0.9-0.2-1.6-0.2v-1.6c0.7,0,1.2-0.1,1.5-0.2c0.5-0.2,0.7-0.7,0.7-1.3c0-0.4-0.1-0.8-0.4-1.1
				s-0.6-0.4-1.1-0.4s-0.9,0.2-1.2,0.5s-0.4,0.8-0.4,1.3h-2.1c0-0.6,0.1-1.1,0.3-1.6c0.2-0.4,0.5-0.9,0.9-1.2c0.3-0.3,0.6-0.5,1-0.6
				s0.9-0.2,1.5-0.2c1.1,0,2,0.3,2.6,0.8s1,1.3,1,2.3c0,0.7-0.2,1.2-0.6,1.7c-0.2,0.3-0.5,0.5-0.8,0.6c0.2,0,0.5,0.2,0.9,0.5
				c0.6,0.5,0.9,1.2,0.9,2.2s-0.3,1.8-1,2.5s-1.6,1.1-2.9,1.1c-1.6,0-2.7-0.5-3.3-1.6c-0.3-0.6-0.5-1.3-0.5-2.2L469.8,191L469.8,191
				z"/>
		</g>
	</g>
	<g>
		<g>
			<circle class="st5" cx="1180.7" cy="189.1" r="12"/>
		</g>
		<g>
			<path d="M1177.2,192.3c0.3-0.8,1.1-1.6,2.2-2.4c1-0.7,1.7-1.3,2-1.6c0.5-0.5,0.7-1,0.7-1.6c0-0.5-0.1-0.9-0.4-1.2
				s-0.6-0.5-1.1-0.5c-0.7,0-1.1,0.3-1.4,0.8c-0.1,0.3-0.2,0.8-0.2,1.4h-2.2c0-1,0.2-1.7,0.5-2.3c0.6-1.1,1.7-1.7,3.2-1.7
				c1.2,0,2.2,0.3,2.9,1s1.1,1.5,1.1,2.6c0,0.8-0.2,1.6-0.8,2.2c-0.3,0.4-0.9,0.9-1.6,1.4l-0.9,0.6c-0.6,0.4-0.9,0.7-1.1,0.9
				s-0.4,0.4-0.5,0.6h4.9v2h-7.8C1176.7,193.7,1176.9,192.9,1177.2,192.3z"/>
		</g>
	</g>
	<g>
		<g>
			<circle class="st5" cx="1219.7" cy="147.1" r="12"/>
		</g>
		<g>
			<path d="M1216.3,144.7v-1.5c0.7,0,1.2-0.1,1.5-0.1c0.4-0.1,0.8-0.3,1.1-0.6c0.2-0.2,0.3-0.5,0.4-0.8c0.1-0.2,0.1-0.4,0.1-0.5h1.9
				v11.3h-2.3v-7.8L1216.3,144.7L1216.3,144.7z"/>
		</g>
	</g>
	<g>
		<path class="st7" d="M708.8,311.9c-0.1-0.6-0.5-1-1-1.2c-0.3-0.1-0.6-0.2-1-0.2c-0.7,0-1.3,0.3-1.7,0.8s-0.7,1.3-0.7,2.4
			s0.2,1.8,0.7,2.3s1,0.7,1.7,0.7c0.6,0,1.1-0.2,1.5-0.5s0.6-0.8,0.7-1.4h-2v-1.4h3.6v4.6h-1.2l-0.2-1.1c-0.3,0.4-0.7,0.7-0.9,0.9
			c-0.5,0.3-1.1,0.4-1.8,0.4c-1.1,0-2.1-0.4-2.8-1.2c-0.8-0.8-1.1-1.9-1.1-3.3s0.4-2.5,1.2-3.4c0.8-0.8,1.8-1.3,3.1-1.3
			c1.1,0,2,0.3,2.6,0.8s1,1.3,1.1,2.1L708.8,311.9L708.8,311.9z"/>
		<path class="st7" d="M711.7,314.6h1.2l0.5-1.7h-1.2l0.3-1h1.2l0.6-2.4h1.2l-0.6,2.4h1l0.6-2.4h1.2l-0.6,2.4h1.2l-0.3,1h-1.2
			l-0.5,1.7h1.2l-0.3,1H716l-0.6,2.3h-1.2l0.6-2.3h-1l-0.6,2.3H712l0.6-2.3h-1.2L711.7,314.6z M715,314.6l0.5-1.7h-1l-0.5,1.7H715z"
			/>
		<path class="st7" d="M724.4,309.2h2l3.1,8.6h-2l-0.6-1.8h-3.2l-0.6,1.8h-1.9L724.4,309.2z M724.2,314.6h2.2l-1.1-3.4L724.2,314.6z
			"/>
		<path class="st7" d="M735.9,312.3c0.5,0.6,0.7,1.4,0.7,2.3c0,1-0.2,1.8-0.7,2.5s-1.1,1-2,1c-0.5,0-1-0.1-1.3-0.3
			c-0.2-0.1-0.4-0.3-0.6-0.7v0.8h-1.6v-8.6h1.7v3.1c0.2-0.3,0.4-0.5,0.7-0.7s0.7-0.3,1.2-0.3C734.7,311.4,735.4,311.7,735.9,312.3z
			 M734.5,316.2c0.2-0.3,0.4-0.8,0.4-1.4c0-0.5-0.1-0.8-0.2-1.1c-0.2-0.6-0.6-0.8-1.2-0.8c-0.6,0-1,0.3-1.3,0.8
			c-0.1,0.3-0.2,0.7-0.2,1.1c0,0.5,0.1,1,0.4,1.4s0.6,0.5,1.1,0.5C733.9,316.7,734.2,316.5,734.5,316.2z"/>
	</g>
	<g>
		<g>
			<circle class="st5" cx="1382.7" cy="189.1" r="12"/>
		</g>
		<g>
			<path d="M1380.8,191c0,0.5,0.1,0.8,0.2,1.1c0.3,0.5,0.8,0.8,1.5,0.8c0.4,0,0.8-0.1,1.1-0.4c0.3-0.3,0.5-0.7,0.5-1.3
				c0-0.7-0.3-1.2-0.9-1.5c-0.3-0.1-0.9-0.2-1.6-0.2v-1.6c0.7,0,1.2-0.1,1.5-0.2c0.5-0.2,0.7-0.7,0.7-1.3c0-0.4-0.1-0.8-0.4-1.1
				s-0.6-0.4-1.1-0.4s-0.9,0.2-1.2,0.5s-0.4,0.8-0.4,1.3h-2.1c0-0.6,0.1-1.1,0.3-1.6c0.2-0.4,0.5-0.9,0.9-1.2c0.3-0.3,0.6-0.5,1-0.6
				s0.9-0.2,1.5-0.2c1.1,0,2,0.3,2.6,0.8s1,1.3,1,2.3c0,0.7-0.2,1.2-0.6,1.7c-0.2,0.3-0.5,0.5-0.8,0.6c0.2,0,0.5,0.2,0.9,0.5
				c0.6,0.5,0.9,1.2,0.9,2.2s-0.3,1.8-1,2.5s-1.6,1.1-2.9,1.1c-1.6,0-2.7-0.5-3.3-1.6c-0.3-0.6-0.5-1.3-0.5-2.2L1380.8,191
				L1380.8,191z"/>
		</g>
	</g>
	<g>
		<circle class="st10" cx="1302.3" cy="313.6" r="12"/>
		<g>
			<path class="st5" d="M1305,311.1c-0.2-0.7-0.6-1.2-1.2-1.5c-0.4-0.2-0.8-0.2-1.2-0.2c-0.8,0-1.5,0.3-2.1,0.9
				c-0.5,0.6-0.8,1.6-0.8,2.8c0,1.3,0.3,2.2,0.9,2.7s1.2,0.8,2,0.8c0.7,0,1.3-0.2,1.8-0.6s0.8-1,0.9-1.6h-2.4v-1.7h4.3v5.6h-1.4
				l-0.2-1.3c-0.4,0.5-0.8,0.8-1.1,1c-0.6,0.4-1.3,0.5-2.1,0.5c-1.4,0-2.5-0.5-3.4-1.4c-0.9-1-1.4-2.3-1.4-3.9c0-1.7,0.5-3,1.4-4
				s2.1-1.5,3.7-1.5c1.3,0,2.4,0.3,3.2,1c0.8,0.7,1.3,1.5,1.4,2.5L1305,311.1L1305,311.1z"/>
		</g>
	</g>
	<g>
		<g>
			<circle class="st5" cx="182.3" cy="106.5" r="12"/>
		</g>
		<g>
			<path d="M178.7,104v-1.5c0.7,0,1.2-0.1,1.5-0.1c0.4-0.1,0.8-0.3,1.1-0.6c0.2-0.2,0.3-0.5,0.4-0.8c0.1-0.2,0.1-0.4,0.1-0.5h1.9
				v11.3h-2.3V104H178.7z"/>
		</g>
	</g>
	<g>
		<g>
			<circle class="st5" cx="101.7" cy="147.1" r="12"/>
		</g>
		<g>
			<path d="M98.2,150.3c0.3-0.8,1.1-1.6,2.2-2.4c1-0.7,1.7-1.3,2-1.6c0.5-0.5,0.7-1,0.7-1.6c0-0.5-0.1-0.9-0.4-1.2s-0.6-0.5-1.1-0.5
				c-0.7,0-1.1,0.3-1.4,0.8c-0.1,0.3-0.2,0.8-0.2,1.4h-2.2c0-1,0.2-1.7,0.5-2.3c0.6-1.1,1.7-1.7,3.2-1.7c1.2,0,2.2,0.3,2.9,1
				s1.1,1.5,1.1,2.6c0,0.8-0.2,1.6-0.8,2.2c-0.3,0.4-0.9,0.9-1.6,1.4l-0.9,0.6c-0.6,0.4-0.9,0.7-1.1,0.9s-0.4,0.4-0.5,0.6h4.9v2
				h-7.8C97.7,151.7,97.9,150.9,98.2,150.3z"/>
		</g>
	</g>
	<g>
		<g>
			<circle class="st5" cx="61.7" cy="189.1" r="12"/>
		</g>
		<g>
			<path d="M59.8,191c0,0.5,0.1,0.8,0.2,1.1c0.3,0.5,0.8,0.8,1.5,0.8c0.4,0,0.8-0.1,1.1-0.4c0.3-0.3,0.5-0.7,0.5-1.3
				c0-0.7-0.3-1.2-0.9-1.5c-0.3-0.1-0.9-0.2-1.6-0.2v-1.6c0.7,0,1.2-0.1,1.5-0.2c0.5-0.2,0.7-0.7,0.7-1.3c0-0.4-0.1-0.8-0.4-1.1
				s-0.6-0.4-1.1-0.4s-0.9,0.2-1.2,0.5s-0.4,0.8-0.4,1.3h-2.1c0-0.6,0.1-1.1,0.3-1.6c0.2-0.4,0.5-0.9,0.9-1.2c0.3-0.3,0.6-0.5,1-0.6
				s0.9-0.2,1.5-0.2c1.1,0,2,0.3,2.6,0.8c0.6,0.5,1,1.3,1,2.3c0,0.7-0.2,1.2-0.6,1.7c-0.2,0.3-0.5,0.5-0.8,0.6
				c0.2,0,0.5,0.2,0.9,0.5c0.6,0.5,0.9,1.2,0.9,2.2s-0.3,1.8-1,2.5s-1.6,1.1-2.9,1.1c-1.6,0-2.7-0.5-3.3-1.6
				c-0.3-0.6-0.5-1.3-0.5-2.2L59.8,191L59.8,191z"/>
		</g>
	</g>
	<g>
		<path class="st7" d="M226.1,62.7c0.9,0.9,1.3,2.1,1.3,3.8c0,1.6-0.4,2.9-1.2,4c-0.8,1-2,1.6-3.6,1.6c-1.4,0-2.4-0.5-3.2-1.4
			s-1.2-2.2-1.2-3.7c0-1.7,0.4-3,1.3-4c0.8-1,2-1.5,3.4-1.5C224.2,61.4,225.3,61.9,226.1,62.7z M225.1,69.3c0.4-0.8,0.6-1.8,0.6-2.8
			c0-0.9-0.1-1.7-0.4-2.3c-0.5-0.9-1.3-1.4-2.4-1.4c-1,0-1.7,0.4-2.2,1.2s-0.7,1.7-0.7,2.8s0.2,1.9,0.7,2.6s1.2,1.1,2.2,1.1
			C223.9,70.6,224.7,70.2,225.1,69.3z"/>
	</g>
	<g>
		<circle class="st9" cx="101.3" cy="313.3" r="12"/>
		<g>
			<path class="st5" d="M105,309.4h-5.5v2.2h5v1.8h-5v2.7h5.8v1.9h-7.9v-10.4h7.6V309.4z"/>
		</g>
	</g>
	<g>
		<circle class="st8" cx="1638.8" cy="314.8" r="12"/>
		<g>
			<path class="st5" d="M1635.6,310.2c0.8-0.9,1.9-1.3,3.2-1.3c1.7,0,3,0.6,3.8,1.7c0.4,0.6,0.7,1.3,0.7,1.9h-2.2
				c-0.1-0.5-0.3-0.9-0.5-1.1c-0.4-0.5-1-0.7-1.7-0.7c-0.8,0-1.4,0.3-1.8,1c-0.4,0.6-0.7,1.5-0.7,2.7s0.2,2,0.7,2.6s1.1,0.9,1.8,0.9
				c0.7,0,1.3-0.2,1.7-0.7c0.2-0.3,0.4-0.7,0.5-1.2h2.2c-0.2,1.1-0.7,2.1-1.4,2.8c-0.8,0.7-1.7,1.1-2.9,1.1c-1.5,0-2.6-0.5-3.5-1.4
				c-0.8-1-1.3-2.3-1.3-4C1634.2,312.6,1634.7,311.2,1635.6,310.2z"/>
		</g>
	</g>
	<g>
		<circle class="st6" cx="1519.3" cy="314.8" r="12"/>
		<g>
			<path class="st5" d="M1518.1,309.1h2.5l3.7,10.4h-2.4l-0.7-2.1h-3.8l-0.7,2.1h-2.3L1518.1,309.1z M1518,315.6h2.7l-1.3-4.1
				L1518,315.6z"/>
		</g>
	</g>
	<g>
		<g>
			<circle class="st5" cx="1599.7" cy="148.1" r="12"/>
		</g>
		<g>
			<path d="M1597.8,150c0,0.5,0.1,0.8,0.2,1.1c0.3,0.5,0.8,0.8,1.5,0.8c0.4,0,0.8-0.1,1.1-0.4c0.3-0.3,0.5-0.7,0.5-1.3
				c0-0.7-0.3-1.2-0.9-1.5c-0.3-0.1-0.9-0.2-1.6-0.2v-1.6c0.7,0,1.2-0.1,1.5-0.2c0.5-0.2,0.7-0.7,0.7-1.3c0-0.4-0.1-0.8-0.4-1.1
				s-0.6-0.4-1.1-0.4s-0.9,0.2-1.2,0.5s-0.4,0.8-0.4,1.3h-2.1c0-0.6,0.1-1.1,0.3-1.6c0.2-0.4,0.5-0.9,0.9-1.2c0.3-0.3,0.6-0.5,1-0.6
				s0.9-0.2,1.5-0.2c1.1,0,2,0.3,2.6,0.8s1,1.3,1,2.3c0,0.7-0.2,1.2-0.6,1.7c-0.2,0.3-0.5,0.5-0.8,0.6c0.2,0,0.5,0.2,0.9,0.5
				c0.6,0.5,0.9,1.2,0.9,2.2s-0.3,1.8-1,2.5s-1.6,1.1-2.9,1.1c-1.6,0-2.7-0.5-3.3-1.6c-0.3-0.6-0.5-1.3-0.5-2.2L1597.8,150
				L1597.8,150z"/>
		</g>
	</g>
	<g>
		<g>
			<circle class="st5" cx="1639.3" cy="106.5" r="12"/>
		</g>
		<g>
			<path d="M1635.7,104v-1.5c0.7,0,1.2-0.1,1.5-0.1c0.4-0.1,0.8-0.3,1.1-0.6c0.2-0.2,0.3-0.5,0.4-0.8c0.1-0.2,0.1-0.4,0.1-0.5h1.9
				v11.3h-2.3V104H1635.7z"/>
		</g>
	</g>
	<g>
		<g>
			<circle class="st5" cx="1560.7" cy="148.1" r="12"/>
		</g>
		<g>
			<path d="M1557.2,151.3c0.3-0.8,1.1-1.6,2.2-2.4c1-0.7,1.7-1.3,2-1.6c0.5-0.5,0.7-1,0.7-1.6c0-0.5-0.1-0.9-0.4-1.2
				s-0.6-0.5-1.1-0.5c-0.7,0-1.1,0.3-1.4,0.8c-0.1,0.3-0.2,0.8-0.2,1.4h-2.2c0-1,0.2-1.7,0.5-2.3c0.6-1.1,1.7-1.7,3.2-1.7
				c1.2,0,2.2,0.3,2.9,1s1.1,1.5,1.1,2.6c0,0.8-0.2,1.6-0.8,2.2c-0.3,0.4-0.9,0.9-1.6,1.4l-0.9,0.6c-0.6,0.4-0.9,0.7-1.1,0.9
				s-0.4,0.4-0.5,0.6h4.9v2h-7.8C1556.7,152.7,1556.9,151.9,1557.2,151.3z"/>
		</g>
	</g>
</g>
<g id="Layer_5" class="st14">
	<rect x="875.1" y="100.6" class="st15" width="38.9" height="12.1"/>
	<text transform="matrix(1 0 0 1 875.0693 109.2344)" class="st16 st17 st18">A# Bb</text>
	<rect x="875.1" y="71.6" class="st15" width="38.9" height="12.1"/>
	<text transform="matrix(1 0 0 1 875.0693 80.2344)" class="st16 st17 st18">D# Eb</text>
	<rect x="875.1" y="42.6" class="st15" width="38.9" height="12.1"/>
	<text transform="matrix(1 0 0 1 875.0693 51.2344)" class="st16 st17 st18">G# Ab</text>
	<rect x="873.1" y="12.6" class="st15" width="38.9" height="12.1"/>
	<text transform="matrix(1 0 0 1 873.0693 21.2344)" class="st16 st17 st18">C# Db</text>
	<rect x="873.1" y="-18.4" class="st15" width="38.9" height="12.1"/>
	<text transform="matrix(1 0 0 1 873.0693 -9.7656)" class="st16 st17 st18">F# Gb</text>
	<rect x="873.1" y="131.6" class="st15" width="38.9" height="12.1"/>
	<text transform="matrix(1 0 0 1 873.0693 140.2344)" class="st16 st17 st18">F# Gb</text>
	<g class="st16">
		<circle class="st9" cx="834.3" cy="134.6" r="12"/>
		<g>
			<path class="st5" d="M838,130.7h-5.5v2.2h5v1.8h-5v2.7h5.8v1.9h-7.9v-10.4h7.6L838,130.7L838,130.7z"/>
		</g>
	</g>
	<g class="st16">
		<circle class="st6" cx="834.3" cy="105.6" r="12"/>
		<g>
			<path class="st5" d="M833.1,99.9h2.5l3.7,10.4h-2.4l-0.7-2.1h-3.8l-0.7,2.1h-2.3L833.1,99.9z M833,106.4h2.7l-1.3-4.1L833,106.4z
				"/>
		</g>
	</g>
	<g class="st16">
		<circle class="st4" cx="834.3" cy="77.6" r="12"/>
		<g>
			<path class="st5" d="M836.4,72.1c0.7,0.2,1.3,0.7,1.8,1.3c0.4,0.5,0.6,1.1,0.7,1.7c0.1,0.6,0.2,1.2,0.2,1.7
				c0,1.4-0.3,2.6-0.8,3.5c-0.8,1.3-1.9,1.9-3.5,1.9h-4.5V71.9h4.5C835.4,71.9,836,72,836.4,72.1z M832.4,73.7v6.8h2
				c1,0,1.7-0.5,2.1-1.5c0.2-0.6,0.3-1.2,0.3-2c0-1.1-0.2-1.9-0.5-2.4c-0.3-0.6-1-0.8-2-0.8L832.4,73.7L832.4,73.7z"/>
		</g>
	</g>
	<g class="st16">
		<circle class="st10" cx="834.3" cy="48.6" r="12"/>
		<g>
			<path class="st5" d="M837,46.1c-0.2-0.7-0.6-1.2-1.2-1.5c-0.4-0.2-0.8-0.2-1.2-0.2c-0.8,0-1.5,0.3-2.1,0.9
				c-0.5,0.6-0.8,1.6-0.8,2.8c0,1.3,0.3,2.2,0.9,2.7c0.6,0.5,1.2,0.8,2,0.8c0.7,0,1.3-0.2,1.8-0.6c0.5-0.4,0.8-1,0.9-1.6h-2.4v-1.7
				h4.3v5.6h-1.4l-0.2-1.3c-0.4,0.5-0.8,0.8-1.1,1c-0.6,0.4-1.3,0.5-2.1,0.5c-1.4,0-2.5-0.5-3.4-1.4c-0.9-1-1.4-2.3-1.4-3.9
				c0-1.7,0.5-3,1.4-4s2.1-1.5,3.7-1.5c1.3,0,2.4,0.3,3.2,1s1.3,1.5,1.4,2.5L837,46.1L837,46.1z"/>
		</g>
	</g>
	<g class="st16">
		<circle class="st11" cx="834.3" cy="19.6" r="12"/>
		<g>
			<path class="st5" d="M837.8,15c0.3,0.4,0.5,1,0.5,1.6c0,0.6-0.2,1.1-0.5,1.5c-0.2,0.2-0.4,0.4-0.8,0.6c0.5,0.2,0.9,0.5,1.2,0.9
				s0.4,0.9,0.4,1.5s-0.2,1.2-0.5,1.7c-0.2,0.3-0.4,0.6-0.7,0.8c-0.3,0.3-0.7,0.4-1.2,0.5s-0.9,0.1-1.5,0.1H830V13.9h5
				C836.4,13.9,837.3,14.3,837.8,15z M832.2,15.7V18h2.5c0.5,0,0.8-0.1,1.1-0.3c0.3-0.2,0.4-0.5,0.4-0.9c0-0.5-0.2-0.8-0.6-1
				c-0.3-0.1-0.7-0.2-1.2-0.2L832.2,15.7L832.2,15.7z M832.2,19.7v2.8h2.5c0.5,0,0.8-0.1,1.1-0.2c0.5-0.2,0.7-0.7,0.7-1.3
				c0-0.5-0.2-0.9-0.7-1.1c-0.2-0.1-0.6-0.2-1-0.2C834.8,19.7,832.2,19.7,832.2,19.7z"/>
		</g>
	</g>
	<g class="st16">
		<circle class="st9" cx="834.3" cy="-9.4" r="12"/>
		<g>
			<path class="st5" d="M838-13.3h-5.5v2.2h5v1.8h-5v2.7h5.8v1.9h-7.9v-10.4h7.6L838-13.3L838-13.3z"/>
		</g>
	</g>
</g>
</svg>
