<?xml version="1.0" encoding="utf-8"?>
<!-- Generator: Adobe Illustrator 23.0.2, SVG Export Plug-In . SVG Version: 6.00 Build 0)  -->
<svg version="1.1" id="Layer_1" xmlns="http://www.w3.org/2000/svg" xmlns:xlink="http://www.w3.org/1999/xlink" x="0px" y="0px"
	 viewBox="0 0 427 272" style="enable-background:new 0 0 427 272;" xml:space="preserve">
<style type="text/css">
	.st0{display:none;}
	.st1{display:inline;fill:#1E2D59;}
	.st2{opacity:0.7;fill:none;stroke:#999999;stroke-width:0.5;stroke-miterlimit:10;enable-background:new    ;}
	.st3{fill:#C4C4C4;}
	.st4{fill:#FFFFFF;}
	.st5{fill:#7C6D94;}
	.st6{fill:#B15452;}
	.st7{fill:#C89367;}
	.st8{fill:#618073;}
	.st9{fill:#C777A9;}
</style>
<g class="st0">
	<rect x="-21.7" y="-5.1" class="st1" width="974.5" height="280.7"/>
</g>
<g id="bg">
</g>
<g>
	<polyline class="st2" points="409.5,34.1 60.4,40.5 60.4,184.5 409.5,190.9 	"/>
	<line class="st2" x1="409.5" y1="65.9" x2="60.4" y2="70.9"/>
	<line class="st2" x1="409.5" y1="89.5" x2="60.4" y2="99.4"/>
	<line class="st2" x1="409.5" y1="126.3" x2="60.4" y2="127.5"/>
	<line class="st2" x1="409.5" y1="157.3" x2="60.4" y2="155.1"/>
	<polyline class="st2" points="14.4,29.5 53.4,39.5 53.4,185.5 14.4,197.5 	"/>
</g>
<line class="st2" x1="383.7" y1="34.6" x2="383.7" y2="190.4"/>
<line class="st2" x1="326.8" y1="35.7" x2="326.8" y2="189.4"/>
<line class="st2" x1="262.3" y1="36.8" x2="262.3" y2="188.2"/>
<line class="st2" x1="194.2" y1="38" x2="194.2" y2="188.2"/>
<line class="st2" x1="125.1" y1="39.3" x2="125.1" y2="185.8"/>
<g>
	<path class="st3" d="M354.3,229c0.1,0.4,0.2,0.8,0.5,1c0.2,0.2,0.6,0.4,1,0.4c0.5,0,0.9-0.2,1.1-0.5c0.3-0.3,0.4-0.8,0.4-1.3
		s-0.1-1-0.4-1.3c-0.2-0.4-0.6-0.5-1.1-0.5c-0.2,0-0.5,0-0.6,0.1c-0.3,0.1-0.5,0.3-0.7,0.6l-1.8-0.1l0.7-5.6h5.6v1.7h-4.2l-0.4,2.2
		c0.3-0.2,0.6-0.3,0.7-0.4c0.3-0.1,0.6-0.2,1.1-0.2c0.8,0,1.6,0.3,2.2,0.9c0.6,0.6,0.9,1.4,0.9,2.5c0,0.9-0.3,1.8-0.9,2.5
		s-1.5,1.1-2.7,1.1c-1,0-1.8-0.3-2.4-0.8s-1-1.3-1-2.2L354.3,229L354.3,229z"/>
</g>
<g>
	<path class="st3" d="M297.3,229.6h-1.2v2.2h-2v-2.2h-4v-1.8l3.7-6.2h2.2v6.4h1.2L297.3,229.6L297.3,229.6z M294.2,228v-4.4
		l-2.5,4.4H294.2z"/>
</g>
<g>
	<path class="st3" d="M227.2,228.6c0,0.4,0.1,0.7,0.2,1c0.2,0.5,0.7,0.7,1.3,0.7c0.4,0,0.7-0.1,1-0.4c0.3-0.3,0.4-0.7,0.4-1.2
		c0-0.7-0.3-1.1-0.8-1.3c-0.3-0.1-0.8-0.2-1.5-0.2v-1.4c0.6,0,1.1-0.1,1.4-0.2c0.4-0.2,0.7-0.6,0.7-1.2c0-0.4-0.1-0.7-0.3-0.9
		s-0.5-0.4-1-0.4s-0.8,0.2-1,0.5s-0.3,0.7-0.3,1.2h-1.9c0-0.5,0.1-1,0.3-1.4s0.4-0.8,0.8-1.1c0.3-0.2,0.6-0.4,0.9-0.5
		c0.4-0.1,0.8-0.2,1.3-0.2c1,0,1.8,0.3,2.4,0.8c0.6,0.5,0.9,1.2,0.9,2c0,0.6-0.2,1.1-0.5,1.5c-0.2,0.3-0.5,0.4-0.7,0.5
		c0.2,0,0.4,0.2,0.8,0.5c0.5,0.5,0.8,1.1,0.8,1.9c0,0.9-0.3,1.6-0.9,2.3c-0.6,0.7-1.5,1-2.7,1c-1.4,0-2.4-0.5-3-1.4
		c-0.3-0.5-0.5-1.2-0.5-2h1.9L227.2,228.6L227.2,228.6z"/>
</g>
<g>
	<path class="st3" d="M153.7,229.7c0.3-0.7,1-1.4,2-2.2c0.9-0.7,1.5-1.1,1.8-1.4c0.4-0.4,0.6-0.9,0.6-1.5c0-0.4-0.1-0.8-0.4-1.1
		c-0.2-0.3-0.6-0.4-1-0.4c-0.6,0-1,0.2-1.2,0.7c-0.1,0.3-0.2,0.7-0.2,1.3h-1.9c0-0.9,0.2-1.6,0.5-2.1c0.5-1,1.5-1.5,2.9-1.5
		c1.1,0,1.9,0.3,2.6,0.9c0.6,0.6,1,1.4,1,2.4c0,0.8-0.2,1.4-0.7,2c-0.3,0.4-0.8,0.8-1.5,1.3l-0.8,0.6c-0.5,0.4-0.8,0.6-1,0.8
		s-0.3,0.3-0.5,0.6h4.5v1.8h-7C153.3,231,153.4,230.4,153.7,229.7z"/>
</g>
<g>
	<path class="st3" d="M88.2,224.7v-1.4c0.6,0,1.1-0.1,1.3-0.1c0.4-0.1,0.7-0.3,1-0.5c0.2-0.2,0.3-0.4,0.4-0.7
		c0.1-0.2,0.1-0.3,0.1-0.4h1.7v10.2h-2.1v-7h-2.4V224.7z"/>
</g>
<g>
	<circle class="st4" cx="228.4" cy="250.5" r="2.4"/>
	<path class="st4" d="M228.4,248.2c1.2,0,2.2,1,2.2,2.2s-1,2.2-2.2,2.2s-2.2-1-2.2-2.2S227.1,248.2,228.4,248.2 M228.4,248
		c-1.4,0-2.5,1.1-2.5,2.5s1.1,2.5,2.5,2.5s2.5-1.1,2.5-2.5S229.8,248,228.4,248L228.4,248z"/>
</g>
<g>
	<circle class="st4" cx="356.4" cy="250.5" r="2.4"/>
	<path class="st4" d="M356.4,248.2c1.2,0,2.2,1,2.2,2.2s-1,2.2-2.2,2.2s-2.2-1-2.2-2.2S355.1,248.2,356.4,248.2 M356.4,248
		c-1.4,0-2.5,1.1-2.5,2.5s1.1,2.5,2.5,2.5s2.5-1.1,2.5-2.5S357.8,248,356.4,248L356.4,248z"/>
</g>
<g>
	<path class="st4" d="M78.1,149.6h2l3.1,8.6h-2l-0.6-1.8h-3.2l-0.6,1.8H75L78.1,149.6z M78,155h2.2l-1.1-3.4L78,155z"/>
	<path class="st4" d="M83.6,154.9h1.2l0.5-1.7h-1.2l0.3-1h1.2l0.6-2.4h1.2l-0.6,2.4h1l0.6-2.4h1.2l-0.6,2.4h1l-0.3,1h-1.2l-0.5,1.7
		h1.2l-0.3,1h-1.2l-0.6,2.3H86l0.6-2.3h-1l-0.6,2.3h-1.2l0.6-2.3h-1.2L83.6,154.9z M86.9,154.9l0.5-1.7h-1l-0.5,1.7H86.9z"/>
	<path class="st4" d="M100.7,150.5c0.3,0.4,0.4,0.8,0.4,1.3s-0.1,1-0.4,1.3c-0.1,0.2-0.4,0.3-0.7,0.5c0.4,0.2,0.8,0.4,1,0.8
		c0.2,0.3,0.3,0.8,0.3,1.3s-0.1,1-0.4,1.4c-0.2,0.3-0.4,0.5-0.6,0.7c-0.3,0.2-0.6,0.4-1,0.4c-0.4,0.1-0.8,0.1-1.2,0.1h-3.9v-8.6h4.2
		C99.5,149.6,100.3,149.9,100.7,150.5z M96,151.1v1.9h2.1c0.4,0,0.7-0.1,0.9-0.2c0.2-0.1,0.4-0.4,0.4-0.8c0-0.4-0.2-0.7-0.5-0.8
		s-0.6-0.1-1-0.1L96,151.1L96,151.1z M96,154.4v2.3h2.1c0.4,0,0.7-0.1,0.9-0.2c0.4-0.2,0.6-0.5,0.6-1.1c0-0.4-0.2-0.8-0.5-0.9
		c-0.2-0.1-0.5-0.1-0.9-0.1H96z"/>
	<path class="st4" d="M108.3,152.6c0.5,0.6,0.7,1.4,0.7,2.3c0,1-0.2,1.8-0.7,2.5s-1.1,1-2,1c-0.5,0-1-0.1-1.3-0.3
		c-0.2-0.1-0.4-0.3-0.6-0.7v0.8h-1.6v-8.6h1.7v3.1c0.2-0.3,0.4-0.5,0.7-0.7c0.3-0.2,0.7-0.3,1.2-0.3
		C107.1,151.7,107.8,152,108.3,152.6z M106.9,156.5c0.2-0.3,0.4-0.8,0.4-1.4c0-0.5-0.1-0.8-0.2-1.1c-0.2-0.6-0.6-0.8-1.2-0.8
		s-1,0.3-1.3,0.8c-0.1,0.3-0.2,0.7-0.2,1.1c0,0.5,0.1,1,0.4,1.4s0.6,0.5,1.1,0.5C106.3,157,106.6,156.9,106.9,156.5z"/>
</g>
<g>
	<path class="st4" d="M215.1,89.6h2l3.1,8.6h-2l-0.6-1.8h-3.2l-0.6,1.8H212L215.1,89.6z M214.9,95h2.2l-1.1-3.4L214.9,95z"/>
	<path class="st4" d="M220.6,94.9h1.2l0.5-1.7h-1.2l0.3-1h1.2l0.6-2.4h1.2l-0.6,2.4h1l0.6-2.4h1.2l-0.6,2.4h1.2l-0.3,1h-1.2
		l-0.5,1.7h1.2l-0.3,1h-1.2l-0.6,2.3H223l0.6-2.3h-1l-0.6,2.3h-1.2l0.6-2.3h-1.2L220.6,94.9z M223.9,94.9l0.5-1.7h-1l-0.5,1.7H223.9
		z"/>
	<path class="st4" d="M237.7,90.5c0.3,0.4,0.4,0.8,0.4,1.3s-0.1,1-0.4,1.3c-0.1,0.2-0.4,0.3-0.7,0.5c0.4,0.2,0.8,0.4,1,0.8
		c0.2,0.3,0.3,0.8,0.3,1.3s-0.1,1-0.4,1.4c-0.2,0.3-0.4,0.5-0.6,0.7c-0.3,0.2-0.6,0.4-1,0.4c-0.4,0.1-0.8,0.1-1.2,0.1h-3.9v-8.6h4.2
		C236.5,89.6,237.3,89.9,237.7,90.5z M233,91.1V93h2.1c0.4,0,0.7-0.1,0.9-0.2s0.4-0.4,0.4-0.8s-0.2-0.7-0.5-0.8
		c-0.3-0.1-0.6-0.1-1-0.1H233z M233,94.4v2.3h2.1c0.4,0,0.7-0.1,0.9-0.2c0.4-0.2,0.6-0.5,0.6-1.1c0-0.4-0.2-0.8-0.5-0.9
		c-0.2-0.1-0.5-0.1-0.9-0.1C235.2,94.4,233,94.4,233,94.4z"/>
	<path class="st4" d="M245.3,92.6c0.5,0.6,0.7,1.4,0.7,2.3c0,1-0.2,1.8-0.7,2.5s-1.1,1-2,1c-0.5,0-1-0.1-1.3-0.3
		c-0.2-0.1-0.4-0.3-0.6-0.7v0.8h-1.6v-8.6h1.7v3.1c0.2-0.3,0.4-0.5,0.7-0.7s0.7-0.3,1.2-0.3C244.1,91.7,244.8,92,245.3,92.6z
		 M243.9,96.5c0.2-0.3,0.4-0.8,0.4-1.4c0-0.5-0.1-0.8-0.2-1.1c-0.2-0.6-0.6-0.8-1.2-0.8c-0.6,0-1,0.3-1.3,0.8
		c-0.1,0.3-0.2,0.7-0.2,1.1c0,0.5,0.1,1,0.4,1.4s0.6,0.5,1.1,0.5C243.3,97,243.6,96.9,243.9,96.5z"/>
</g>
<g>
	<circle class="st5" cx="24.5" cy="188.6" r="12"/>
	<g>
		<path class="st4" d="M28.2,184.7h-5.5v2.2h5v1.8h-5v2.7h5.8v1.9h-7.9v-10.4h7.6V184.7z"/>
	</g>
</g>
<g>
	<circle class="st6" cx="24.5" cy="158.6" r="12"/>
	<g>
		<path class="st4" d="M23.3,152.9h2.5l3.7,10.4h-2.4l-0.7-2.1h-3.8l-0.7,2.1h-2.3L23.3,152.9z M23.2,159.4h2.7l-1.3-4.1L23.2,159.4
			z"/>
	</g>
</g>
<g>
	<circle class="st7" cx="24.5" cy="128.6" r="12"/>
	<g>
		<path class="st4" d="M26.6,123.1c0.7,0.2,1.3,0.7,1.8,1.3c0.4,0.5,0.6,1.1,0.7,1.7s0.2,1.2,0.2,1.7c0,1.4-0.3,2.6-0.8,3.5
			c-0.8,1.3-1.9,1.9-3.5,1.9h-4.5v-10.4H25C25.6,122.9,26.1,123,26.6,123.1z M22.6,124.7v6.8h2c1,0,1.7-0.5,2.1-1.5
			c0.2-0.6,0.3-1.2,0.3-2c0-1.1-0.2-1.9-0.5-2.4c-0.3-0.6-1-0.8-2-0.8L22.6,124.7L22.6,124.7z"/>
	</g>
</g>
<g>
	<circle class="st8" cx="24.5" cy="97.6" r="12"/>
	<g>
		<path class="st4" d="M27.2,95.1c-0.2-0.7-0.6-1.2-1.2-1.5c-0.4-0.2-0.8-0.2-1.2-0.2c-0.8,0-1.5,0.3-2.1,0.9
			c-0.5,0.6-0.8,1.6-0.8,2.8c0,1.3,0.3,2.2,0.9,2.7s1.2,0.8,2,0.8c0.7,0,1.3-0.2,1.8-0.6s0.8-1,0.9-1.6H25v-1.7h4.3v5.6h-1.4
			l-0.2-1.3c-0.4,0.5-0.8,0.8-1.1,1c-0.6,0.4-1.3,0.5-2.1,0.5c-1.4,0-2.5-0.5-3.4-1.4c-0.9-1-1.4-2.3-1.4-3.9c0-1.7,0.5-3,1.4-4
			s2.1-1.5,3.7-1.5c1.3,0,2.4,0.3,3.2,1c0.8,0.7,1.3,1.5,1.4,2.5h-2.2C27.2,95.2,27.2,95.1,27.2,95.1z"/>
	</g>
</g>
<g>
	<circle class="st9" cx="24.5" cy="65.6" r="12"/>
	<g>
		<path class="st4" d="M28,61c0.3,0.4,0.5,1,0.5,1.6s-0.2,1.1-0.5,1.5c-0.2,0.2-0.4,0.4-0.8,0.6c0.5,0.2,0.9,0.5,1.2,0.9
			c0.3,0.4,0.4,0.9,0.4,1.5s-0.2,1.2-0.5,1.7c-0.2,0.3-0.4,0.6-0.7,0.8c-0.3,0.3-0.7,0.4-1.2,0.5s-0.9,0.1-1.5,0.1h-4.7V59.9h5
			C26.6,59.9,27.5,60.3,28,61z M22.3,61.7V64h2.5c0.5,0,0.8-0.1,1.1-0.3c0.3-0.2,0.4-0.5,0.4-0.9c0-0.5-0.2-0.8-0.6-1
			c-0.3-0.1-0.7-0.2-1.2-0.2h-2.2C22.3,61.6,22.3,61.7,22.3,61.7z M22.3,65.7v2.8h2.5c0.5,0,0.8-0.1,1.1-0.2
			c0.5-0.2,0.7-0.7,0.7-1.3c0-0.5-0.2-0.9-0.7-1.1c-0.2-0.1-0.6-0.2-1-0.2C24.9,65.7,22.3,65.7,22.3,65.7z"/>
	</g>
</g>
<g>
	<circle class="st5" cx="24.5" cy="34.6" r="12"/>
	<g>
		<path class="st4" d="M28.2,30.7h-5.5V33h5v1.8h-5v2.7h5.8v1.9h-7.9V28.9h7.6V30.7z"/>
	</g>
</g>
<g>
	<circle class="st5" cx="159.8" cy="127.6" r="12"/>
	<g>
		<path class="st4" d="M163.5,123.7H158v2.2h5v1.8h-5v2.7h5.8v1.9h-7.9v-10.4h7.6L163.5,123.7L163.5,123.7z"/>
	</g>
</g>
<g>
	<circle class="st6" cx="159.8" cy="96.6" r="12"/>
	<g>
		<path class="st4" d="M158.6,90.9h2.5l3.7,10.4h-2.4l-0.7-2.1h-3.8l-0.7,2.1h-2.3L158.6,90.9z M158.4,97.4h2.7l-1.3-4.1L158.4,97.4
			z"/>
	</g>
</g>
<g>
	<circle class="st9" cx="159.8" cy="158.6" r="12"/>
	<g>
		<path class="st4" d="M163.3,154c0.3,0.4,0.5,1,0.5,1.6s-0.2,1.1-0.5,1.5c-0.2,0.2-0.4,0.4-0.8,0.6c0.5,0.2,0.9,0.5,1.2,0.9
			s0.4,0.9,0.4,1.5s-0.2,1.2-0.5,1.7c-0.2,0.3-0.4,0.6-0.7,0.8c-0.3,0.3-0.7,0.4-1.2,0.5s-0.9,0.1-1.5,0.1h-4.7v-10.4h5
			C161.8,152.9,162.7,153.3,163.3,154z M157.6,154.7v2.3h2.5c0.5,0,0.8-0.1,1.1-0.3s0.4-0.5,0.4-0.9c0-0.5-0.2-0.8-0.6-1
			c-0.3-0.1-0.7-0.2-1.2-0.2L157.6,154.7L157.6,154.7z M157.6,158.7v2.8h2.5c0.5,0,0.8-0.1,1.1-0.2c0.5-0.2,0.7-0.7,0.7-1.3
			c0-0.5-0.2-0.9-0.7-1.1c-0.2-0.1-0.6-0.2-1-0.2H157.6z"/>
	</g>
</g>
<g>
	<circle class="st7" cx="229.1" cy="67.6" r="12"/>
	<g>
		<path class="st4" d="M231.1,62.1c0.7,0.2,1.3,0.7,1.8,1.3c0.4,0.5,0.6,1.1,0.7,1.7c0.1,0.6,0.2,1.2,0.2,1.7c0,1.4-0.3,2.6-0.8,3.5
			c-0.8,1.3-1.9,1.9-3.5,1.9H225V61.9h4.5C230.2,61.9,230.7,62,231.1,62.1z M227.2,63.7v6.8h2c1,0,1.7-0.5,2.1-1.5
			c0.2-0.6,0.3-1.2,0.3-2c0-1.1-0.2-1.9-0.5-2.4c-0.3-0.6-1-0.8-2-0.8L227.2,63.7L227.2,63.7z"/>
	</g>
</g>
<g>
	<circle class="st8" cx="229.1" cy="36.6" r="12"/>
	<g>
		<path class="st4" d="M231.8,34.1c-0.2-0.7-0.6-1.2-1.2-1.5c-0.4-0.2-0.8-0.2-1.2-0.2c-0.8,0-1.5,0.3-2.1,0.9
			c-0.5,0.6-0.8,1.6-0.8,2.8c0,1.3,0.3,2.2,0.9,2.7c0.6,0.5,1.2,0.8,2,0.8c0.7,0,1.3-0.2,1.8-0.6c0.5-0.4,0.8-1,0.9-1.6h-2.4v-1.7
			h4.3v5.6h-1.4l-0.2-1.3c-0.4,0.5-0.8,0.8-1.1,1c-0.6,0.4-1.3,0.5-2.1,0.5c-1.4,0-2.5-0.5-3.4-1.4c-0.9-1-1.4-2.3-1.4-3.9
			c0-1.7,0.5-3,1.4-4s2.1-1.5,3.7-1.5c1.3,0,2.4,0.3,3.2,1s1.3,1.5,1.4,2.5L231.8,34.1L231.8,34.1z"/>
	</g>
</g>
<g>
	<circle class="st8" cx="229.1" cy="187.6" r="12"/>
	<g>
		<path class="st4" d="M231.8,185.1c-0.2-0.7-0.6-1.2-1.2-1.5c-0.4-0.2-0.8-0.2-1.2-0.2c-0.8,0-1.5,0.3-2.1,0.9
			c-0.5,0.6-0.8,1.6-0.8,2.8c0,1.3,0.3,2.2,0.9,2.7c0.6,0.5,1.2,0.8,2,0.8c0.7,0,1.3-0.2,1.8-0.6c0.5-0.4,0.8-1,0.9-1.6h-2.4v-1.7
			h4.3v5.6h-1.4l-0.2-1.3c-0.4,0.5-0.8,0.8-1.1,1c-0.6,0.4-1.3,0.5-2.1,0.5c-1.4,0-2.5-0.5-3.4-1.4c-0.9-1-1.4-2.3-1.4-3.9
			c0-1.7,0.5-3,1.4-4s2.1-1.5,3.7-1.5c1.3,0,2.4,0.3,3.2,1s1.3,1.5,1.4,2.5h-2.3L231.8,185.1L231.8,185.1z"/>
	</g>
</g>
<g>
	<circle class="st9" cx="294.6" cy="92.6" r="12"/>
	<g>
		<path class="st4" d="M298,88c0.3,0.4,0.5,1,0.5,1.6s-0.2,1.1-0.5,1.5c-0.2,0.2-0.4,0.4-0.8,0.6c0.5,0.2,0.9,0.5,1.2,0.9
			c0.3,0.4,0.4,0.9,0.4,1.5s-0.2,1.2-0.5,1.7c-0.2,0.3-0.4,0.6-0.7,0.8c-0.3,0.3-0.7,0.4-1.2,0.5s-0.9,0.1-1.5,0.1h-4.7V86.9h5
			C296.6,86.9,297.5,87.3,298,88z M292.4,88.7V91h2.5c0.5,0,0.8-0.1,1.1-0.3c0.3-0.2,0.4-0.5,0.4-0.9c0-0.5-0.2-0.8-0.6-1
			c-0.3-0.1-0.7-0.2-1.2-0.2L292.4,88.7L292.4,88.7z M292.4,92.7v2.8h2.5c0.5,0,0.8-0.1,1.1-0.2c0.5-0.2,0.7-0.7,0.7-1.3
			c0-0.5-0.2-0.9-0.7-1.1c-0.2-0.1-0.6-0.2-1-0.2C295,92.7,292.4,92.7,292.4,92.7z"/>
	</g>
</g>
<g>
	<circle class="st6" cx="356.5" cy="189.6" r="12"/>
	<g>
		<path class="st4" d="M355.2,183.9h2.5l3.7,10.4H359l-0.7-2.1h-3.8l-0.7,2.1h-2.3L355.2,183.9z M355.1,190.4h2.7l-1.3-4.1
			L355.1,190.4z"/>
	</g>
</g>
<g>
	<circle class="st7" cx="356.5" cy="157.6" r="12"/>
	<g>
		<path class="st4" d="M358.5,152.1c0.7,0.2,1.3,0.7,1.8,1.3c0.4,0.5,0.6,1.1,0.7,1.7c0.1,0.6,0.2,1.2,0.2,1.7
			c0,1.4-0.3,2.6-0.8,3.5c-0.8,1.3-1.9,1.9-3.5,1.9h-4.5v-10.4h4.5C357.5,151.9,358.1,152,358.5,152.1z M354.5,153.7v6.8h2
			c1,0,1.7-0.5,2.1-1.5c0.2-0.6,0.3-1.2,0.3-2c0-1.1-0.2-1.9-0.5-2.4c-0.3-0.6-1-0.8-2-0.8h-1.9V153.7z"/>
	</g>
</g>
<g>
	<circle class="st8" cx="356.5" cy="127.6" r="12"/>
	<g>
		<path class="st4" d="M359.1,125.1c-0.2-0.7-0.6-1.2-1.2-1.5c-0.4-0.2-0.8-0.2-1.2-0.2c-0.8,0-1.5,0.3-2.1,0.9
			c-0.5,0.6-0.8,1.6-0.8,2.8c0,1.3,0.3,2.2,0.9,2.7s1.2,0.8,2,0.8c0.7,0,1.3-0.2,1.8-0.6c0.5-0.4,0.8-1,0.9-1.6H357v-1.7h4.3v5.6
			h-1.4l-0.2-1.3c-0.4,0.5-0.8,0.8-1.1,1c-0.6,0.4-1.3,0.5-2.1,0.5c-1.4,0-2.5-0.5-3.4-1.4c-0.9-1-1.4-2.3-1.4-3.9
			c0-1.7,0.5-3,1.4-4s2.1-1.5,3.7-1.5c1.3,0,2.4,0.3,3.2,1c0.8,0.7,1.3,1.5,1.4,2.5h-2.3V125.1z"/>
	</g>
</g>
<g>
	<circle class="st5" cx="356.5" cy="65.6" r="12"/>
	<g>
		<path class="st4" d="M360.1,61.7h-5.5V64h5v1.8h-5v2.7h5.8v1.9h-7.9V59.9h7.6V61.7z"/>
	</g>
</g>
<g>
	<circle class="st6" cx="356.5" cy="33.6" r="12"/>
	<g>
		<path class="st4" d="M355.2,27.9h2.5l3.7,10.4H359l-0.7-2.1h-3.8l-0.7,2.1h-2.3L355.2,27.9z M355.1,34.4h2.7l-1.3-4.1L355.1,34.4z
			"/>
	</g>
</g>
</svg>
