<?xml version="1.0" encoding="utf-8"?>
<!-- Generator: Adobe Illustrator 28.0.0, SVG Export Plug-In . SVG Version: 6.00 Build 0)  -->
<svg version="1.1" xmlns="http://www.w3.org/2000/svg" xmlns:xlink="http://www.w3.org/1999/xlink" x="0px" y="0px"
	 viewBox="0 0 427 226.7" style="enable-background:new 0 0 427 226.7;" xml:space="preserve">
<style type="text/css">
	.st0{display:none;}
	.st1{display:inline;fill:#1E2D59;}
	.st2{opacity:0.7;fill:none;stroke:#999999;stroke-width:0.5;stroke-miterlimit:10;enable-background:new    ;}
	.st3{fill:#C4C4C4;}
	.st4{fill:#FFFFFF;}
	.st5{fill:#7C6D94;}
	.st6{fill:#B15452;}
	.st7{fill:#C89367;}
	.st8{fill:#618073;}
	.st9{fill:#C777A9;}
	.st10{fill:none;stroke:#C777A9;stroke-width:2.5;stroke-miterlimit:10;}
</style>
<g id="Layer_1">
	<g class="st0">
		<rect x="-21.7" y="-22.5" class="st1" width="974.5" height="280.7"/>
	</g>
	<g id="bg">
	</g>
	<g>
		<polyline class="st2" points="409.5,16.7 60.4,23.1 60.4,167.1 409.5,173.5 		"/>
		<line class="st2" x1="409.5" y1="48.5" x2="60.4" y2="53.5"/>
		<line class="st2" x1="409.5" y1="72.1" x2="60.4" y2="82"/>
		<line class="st2" x1="409.5" y1="108.9" x2="60.4" y2="110.1"/>
		<line class="st2" x1="409.5" y1="139.9" x2="60.4" y2="137.7"/>
		<polyline class="st2" points="14.4,12.1 53.4,22.1 53.4,168.1 14.4,180.1 		"/>
	</g>
	<line class="st2" x1="383.7" y1="17.2" x2="383.7" y2="173"/>
	<line class="st2" x1="326.8" y1="18.3" x2="326.8" y2="172"/>
	<line class="st2" x1="262.3" y1="19.4" x2="262.3" y2="170.8"/>
	<line class="st2" x1="194.2" y1="20.6" x2="194.2" y2="170.8"/>
	<line class="st2" x1="125.1" y1="21.9" x2="125.1" y2="168.4"/>
	<g>
		<path class="st3" d="M354.3,211.6c0.1,0.4,0.2,0.8,0.5,1c0.2,0.2,0.6,0.4,1,0.4c0.5,0,0.9-0.2,1.1-0.5c0.3-0.3,0.4-0.8,0.4-1.3
			s-0.1-1-0.4-1.3c-0.2-0.4-0.6-0.5-1.1-0.5c-0.2,0-0.5,0-0.6,0.1c-0.3,0.1-0.5,0.3-0.7,0.6l-1.8-0.1l0.7-5.6h5.6v1.7h-4.2l-0.4,2.2
			c0.3-0.2,0.6-0.3,0.7-0.4c0.3-0.1,0.6-0.2,1.1-0.2c0.8,0,1.6,0.3,2.2,0.9c0.6,0.6,0.9,1.4,0.9,2.5c0,0.9-0.3,1.8-0.9,2.5
			s-1.5,1.1-2.7,1.1c-1,0-1.8-0.3-2.4-0.8s-1-1.3-1-2.2L354.3,211.6L354.3,211.6z"/>
	</g>
	<g>
		<path class="st3" d="M297.3,212.2h-1.2v2.2h-2v-2.2h-4v-1.8l3.7-6.2h2.2v6.4h1.2L297.3,212.2L297.3,212.2z M294.2,210.6v-4.4
			l-2.5,4.4H294.2z"/>
	</g>
	<g>
		<path class="st3" d="M227.2,211.2c0,0.4,0.1,0.7,0.2,1c0.2,0.5,0.7,0.7,1.3,0.7c0.4,0,0.7-0.1,1-0.4c0.3-0.3,0.4-0.7,0.4-1.2
			c0-0.7-0.3-1.1-0.8-1.3c-0.3-0.1-0.8-0.2-1.5-0.2v-1.4c0.6,0,1.1-0.1,1.4-0.2c0.4-0.2,0.7-0.6,0.7-1.2c0-0.4-0.1-0.7-0.3-0.9
			s-0.5-0.4-1-0.4s-0.8,0.2-1,0.5s-0.3,0.7-0.3,1.2h-1.9c0-0.5,0.1-1,0.3-1.4s0.4-0.8,0.8-1.1c0.3-0.2,0.6-0.4,0.9-0.5
			c0.4-0.1,0.8-0.2,1.3-0.2c1,0,1.8,0.3,2.4,0.8c0.6,0.5,0.9,1.2,0.9,2c0,0.6-0.2,1.1-0.5,1.5c-0.2,0.3-0.5,0.4-0.7,0.5
			c0.2,0,0.4,0.2,0.8,0.5c0.5,0.5,0.8,1.1,0.8,1.9c0,0.9-0.3,1.6-0.9,2.3c-0.6,0.7-1.5,1-2.7,1c-1.4,0-2.4-0.5-3-1.4
			c-0.3-0.5-0.5-1.2-0.5-2h1.9L227.2,211.2L227.2,211.2z"/>
	</g>
	<g>
		<path class="st3" d="M153.7,212.3c0.3-0.7,1-1.4,2-2.2c0.9-0.7,1.5-1.1,1.8-1.4c0.4-0.4,0.6-0.9,0.6-1.5c0-0.4-0.1-0.8-0.4-1.1
			c-0.2-0.3-0.6-0.4-1-0.4c-0.6,0-1,0.2-1.2,0.7c-0.1,0.3-0.2,0.7-0.2,1.3h-1.9c0-0.9,0.2-1.6,0.5-2.1c0.5-1,1.5-1.5,2.9-1.5
			c1.1,0,1.9,0.3,2.6,0.9c0.6,0.6,1,1.4,1,2.4c0,0.8-0.2,1.4-0.7,2c-0.3,0.4-0.8,0.8-1.5,1.3l-0.8,0.6c-0.5,0.4-0.8,0.6-1,0.8
			s-0.3,0.3-0.5,0.6h4.5v1.8h-7C153.3,213.6,153.4,213,153.7,212.3z"/>
	</g>
	<g>
		<path class="st3" d="M88.2,207.3v-1.4c0.6,0,1.1-0.1,1.3-0.1c0.4-0.1,0.7-0.3,1-0.5c0.2-0.2,0.3-0.4,0.4-0.7
			c0.1-0.2,0.1-0.3,0.1-0.4h1.7v10.2h-2.1v-7h-2.4V207.3z"/>
	</g>
	<g>
		<circle class="st4" cx="228.4" cy="233.1" r="2.4"/>
		<path class="st4" d="M228.4,230.8c1.2,0,2.2,1,2.2,2.2s-1,2.2-2.2,2.2s-2.2-1-2.2-2.2S227.1,230.8,228.4,230.8 M228.4,230.6
			c-1.4,0-2.5,1.1-2.5,2.5s1.1,2.5,2.5,2.5s2.5-1.1,2.5-2.5S229.8,230.6,228.4,230.6L228.4,230.6z"/>
	</g>
	<g>
		<circle class="st4" cx="356.4" cy="233.1" r="2.4"/>
		<path class="st4" d="M356.4,230.8c1.2,0,2.2,1,2.2,2.2s-1,2.2-2.2,2.2s-2.2-1-2.2-2.2S355.1,230.8,356.4,230.8 M356.4,230.6
			c-1.4,0-2.5,1.1-2.5,2.5s1.1,2.5,2.5,2.5s2.5-1.1,2.5-2.5S357.8,230.6,356.4,230.6L356.4,230.6z"/>
	</g>
	<g>
		<circle class="st5" cx="24.5" cy="171.2" r="12"/>
		<g>
			<path class="st4" d="M28.2,167.3h-5.5v2.2h5v1.8h-5v2.7h5.8v1.9h-7.9v-10.4h7.6V167.3z"/>
		</g>
	</g>
	<g>
		<circle class="st6" cx="24.5" cy="141.2" r="12"/>
		<g>
			<path class="st4" d="M23.3,135.5h2.5l3.7,10.4h-2.4l-0.7-2.1h-3.8l-0.7,2.1h-2.3L23.3,135.5z M23.2,142h2.7l-1.3-4.1L23.2,142z"
				/>
		</g>
	</g>
	<g>
		<circle class="st7" cx="24.5" cy="111.2" r="12"/>
		<g>
			<path class="st4" d="M26.6,105.7c0.7,0.2,1.3,0.7,1.8,1.3c0.4,0.5,0.6,1.1,0.7,1.7s0.2,1.2,0.2,1.7c0,1.4-0.3,2.6-0.8,3.5
				c-0.8,1.3-1.9,1.9-3.5,1.9h-4.5v-10.4H25C25.6,105.5,26.1,105.6,26.6,105.7z M22.6,107.3v6.8h2c1,0,1.7-0.5,2.1-1.5
				c0.2-0.6,0.3-1.2,0.3-2c0-1.1-0.2-1.9-0.5-2.4c-0.3-0.6-1-0.8-2-0.8L22.6,107.3L22.6,107.3z"/>
		</g>
	</g>
	<g>
		<circle class="st8" cx="24.5" cy="80.2" r="12"/>
		<g>
			<path class="st4" d="M27.2,77.7C27,77,26.6,76.5,26,76.2C25.6,76,25.2,76,24.8,76c-0.8,0-1.5,0.3-2.1,0.9
				c-0.5,0.6-0.8,1.6-0.8,2.8c0,1.3,0.3,2.2,0.9,2.7s1.2,0.8,2,0.8c0.7,0,1.3-0.2,1.8-0.6s0.8-1,0.9-1.6H25v-1.7h4.3v5.6h-1.4
				l-0.2-1.3c-0.4,0.5-0.8,0.8-1.1,1c-0.6,0.4-1.3,0.5-2.1,0.5c-1.4,0-2.5-0.5-3.4-1.4c-0.9-1-1.4-2.3-1.4-3.9c0-1.7,0.5-3,1.4-4
				s2.1-1.5,3.7-1.5c1.3,0,2.4,0.3,3.2,1c0.8,0.7,1.3,1.5,1.4,2.5h-2.2C27.2,77.8,27.2,77.7,27.2,77.7z"/>
		</g>
	</g>
	<g>
		<circle class="st9" cx="24.5" cy="48.2" r="12"/>
		<g>
			<path class="st4" d="M28,43.6c0.3,0.4,0.5,1,0.5,1.6s-0.2,1.1-0.5,1.5c-0.2,0.2-0.4,0.4-0.8,0.6c0.5,0.2,0.9,0.5,1.2,0.9
				c0.3,0.4,0.4,0.9,0.4,1.5s-0.2,1.2-0.5,1.7c-0.2,0.3-0.4,0.6-0.7,0.8c-0.3,0.3-0.7,0.4-1.2,0.5s-0.9,0.1-1.5,0.1h-4.7V42.5h5
				C26.6,42.5,27.5,42.9,28,43.6z M22.3,44.3v2.3h2.5c0.5,0,0.8-0.1,1.1-0.3c0.3-0.2,0.4-0.5,0.4-0.9c0-0.5-0.2-0.8-0.6-1
				c-0.3-0.1-0.7-0.2-1.2-0.2h-2.2C22.3,44.2,22.3,44.3,22.3,44.3z M22.3,48.3v2.8h2.5c0.5,0,0.8-0.1,1.1-0.2
				c0.5-0.2,0.7-0.7,0.7-1.3c0-0.5-0.2-0.9-0.7-1.1c-0.2-0.1-0.6-0.2-1-0.2C24.9,48.3,22.3,48.3,22.3,48.3z"/>
		</g>
	</g>
	<g>
		<circle class="st5" cx="24.5" cy="17.2" r="12"/>
		<g>
			<path class="st4" d="M28.2,13.3h-5.5v2.3h5v1.8h-5v2.7h5.8V22h-7.9V11.5h7.6V13.3z"/>
		</g>
	</g>
	<g>
		<circle class="st5" cx="159.8" cy="110.2" r="12"/>
		<g>
			<path class="st4" d="M163.5,106.3H158v2.2h5v1.8h-5v2.7h5.8v1.9h-7.9v-10.4h7.6L163.5,106.3L163.5,106.3z"/>
		</g>
	</g>
	<g>
		<circle class="st6" cx="159.8" cy="79.2" r="12"/>
		<g>
			<path class="st4" d="M158.6,73.5h2.5l3.7,10.4h-2.4l-0.7-2.1h-3.8l-0.7,2.1h-2.3L158.6,73.5z M158.4,80h2.7l-1.3-4.1L158.4,80z"
				/>
		</g>
	</g>
	<g>
		<circle class="st9" cx="159.8" cy="141.2" r="12"/>
		<g>
			<path class="st4" d="M163.3,136.6c0.3,0.4,0.5,1,0.5,1.6s-0.2,1.1-0.5,1.5c-0.2,0.2-0.4,0.4-0.8,0.6c0.5,0.2,0.9,0.5,1.2,0.9
				s0.4,0.9,0.4,1.5s-0.2,1.2-0.5,1.7c-0.2,0.3-0.4,0.6-0.7,0.8c-0.3,0.3-0.7,0.4-1.2,0.5s-0.9,0.1-1.5,0.1h-4.7v-10.4h5
				C161.8,135.5,162.7,135.9,163.3,136.6z M157.6,137.3v2.3h2.5c0.5,0,0.8-0.1,1.1-0.3s0.4-0.5,0.4-0.9c0-0.5-0.2-0.8-0.6-1
				c-0.3-0.1-0.7-0.2-1.2-0.2L157.6,137.3L157.6,137.3z M157.6,141.3v2.8h2.5c0.5,0,0.8-0.1,1.1-0.2c0.5-0.2,0.7-0.7,0.7-1.3
				c0-0.5-0.2-0.9-0.7-1.1c-0.2-0.1-0.6-0.2-1-0.2H157.6z"/>
		</g>
	</g>
	<g>
		<circle class="st7" cx="229.1" cy="49.2" r="12"/>
		<g>
			<path class="st4" d="M231.1,43.7c0.7,0.2,1.3,0.7,1.8,1.3c0.4,0.5,0.6,1.1,0.7,1.7c0.1,0.6,0.2,1.2,0.2,1.7
				c0,1.4-0.3,2.6-0.8,3.5c-0.8,1.3-1.9,1.9-3.5,1.9H225V43.5h4.5C230.2,43.5,230.7,43.6,231.1,43.7z M227.2,45.3v6.8h2
				c1,0,1.7-0.5,2.1-1.5c0.2-0.6,0.3-1.2,0.3-2c0-1.1-0.2-1.9-0.5-2.4c-0.3-0.6-1-0.8-2-0.8L227.2,45.3L227.2,45.3z"/>
		</g>
	</g>
	<g>
		<circle class="st8" cx="229.1" cy="19.2" r="12"/>
		<g>
			<path class="st4" d="M231.8,16.7c-0.2-0.7-0.6-1.2-1.2-1.5c-0.4-0.2-0.8-0.2-1.2-0.2c-0.8,0-1.5,0.3-2.1,0.9
				c-0.5,0.6-0.8,1.6-0.8,2.8c0,1.3,0.3,2.2,0.9,2.7c0.6,0.5,1.2,0.8,2,0.8c0.7,0,1.3-0.2,1.8-0.6c0.5-0.4,0.8-1,0.9-1.6h-2.4v-1.7
				h4.3v5.6h-1.4l-0.2-1.3c-0.4,0.5-0.8,0.8-1.1,1c-0.6,0.4-1.3,0.5-2.1,0.5c-1.4,0-2.5-0.5-3.4-1.4c-0.9-1-1.4-2.3-1.4-3.9
				c0-1.7,0.5-3,1.4-4s2.1-1.5,3.7-1.5c1.3,0,2.4,0.3,3.2,1s1.3,1.5,1.4,2.5L231.8,16.7L231.8,16.7z"/>
		</g>
	</g>
	<g>
		<circle class="st8" cx="229.1" cy="170.2" r="12"/>
		<g>
			<path class="st4" d="M231.8,167.7c-0.2-0.7-0.6-1.2-1.2-1.5c-0.4-0.2-0.8-0.2-1.2-0.2c-0.8,0-1.5,0.3-2.1,0.9
				c-0.5,0.6-0.8,1.6-0.8,2.8c0,1.3,0.3,2.2,0.9,2.7c0.6,0.5,1.2,0.8,2,0.8c0.7,0,1.3-0.2,1.8-0.6c0.5-0.4,0.8-1,0.9-1.6h-2.4v-1.7
				h4.3v5.6h-1.4l-0.2-1.3c-0.4,0.5-0.8,0.8-1.1,1c-0.6,0.4-1.3,0.5-2.1,0.5c-1.4,0-2.5-0.5-3.4-1.4c-0.9-1-1.4-2.3-1.4-3.9
				c0-1.7,0.5-3,1.4-4s2.1-1.5,3.7-1.5c1.3,0,2.4,0.3,3.2,1s1.3,1.5,1.4,2.5h-2.3L231.8,167.7L231.8,167.7z"/>
		</g>
	</g>
	<g>
		<circle class="st9" cx="294.6" cy="75.2" r="12"/>
		<g>
			<path class="st4" d="M298,70.6c0.3,0.4,0.5,1,0.5,1.6s-0.2,1.1-0.5,1.5c-0.2,0.2-0.4,0.4-0.8,0.6c0.5,0.2,0.9,0.5,1.2,0.9
				c0.3,0.4,0.4,0.9,0.4,1.5s-0.2,1.2-0.5,1.7c-0.2,0.3-0.4,0.6-0.7,0.8c-0.3,0.3-0.7,0.4-1.2,0.5s-0.9,0.1-1.5,0.1h-4.7V69.5h5
				C296.6,69.5,297.5,69.9,298,70.6z M292.4,71.3v2.3h2.5c0.5,0,0.8-0.1,1.1-0.3c0.3-0.2,0.4-0.5,0.4-0.9c0-0.5-0.2-0.8-0.6-1
				c-0.3-0.1-0.7-0.2-1.2-0.2L292.4,71.3L292.4,71.3z M292.4,75.3v2.8h2.5c0.5,0,0.8-0.1,1.1-0.2c0.5-0.2,0.7-0.7,0.7-1.3
				c0-0.5-0.2-0.9-0.7-1.1c-0.2-0.1-0.6-0.2-1-0.2C295,75.3,292.4,75.3,292.4,75.3z"/>
		</g>
	</g>
	<g>
		<circle class="st6" cx="356.5" cy="172.2" r="12"/>
		<g>
			<path class="st4" d="M355.2,166.5h2.5l3.7,10.4H359l-0.7-2.1h-3.8l-0.7,2.1h-2.3L355.2,166.5z M355.1,173h2.7l-1.3-4.1L355.1,173
				z"/>
		</g>
	</g>
	<g>
		<circle class="st7" cx="356.5" cy="140.2" r="12"/>
		<g>
			<path class="st4" d="M358.5,134.7c0.7,0.2,1.3,0.7,1.8,1.3c0.4,0.5,0.6,1.1,0.7,1.7c0.1,0.6,0.2,1.2,0.2,1.7
				c0,1.4-0.3,2.6-0.8,3.5c-0.8,1.3-1.9,1.9-3.5,1.9h-4.5v-10.4h4.5C357.5,134.5,358.1,134.6,358.5,134.7z M354.5,136.3v6.8h2
				c1,0,1.7-0.5,2.1-1.5c0.2-0.6,0.3-1.2,0.3-2c0-1.1-0.2-1.9-0.5-2.4c-0.3-0.6-1-0.8-2-0.8h-1.9V136.3z"/>
		</g>
	</g>
	<g>
		<circle class="st8" cx="356.5" cy="110.2" r="12"/>
		<g>
			<path class="st4" d="M359.1,107.7c-0.2-0.7-0.6-1.2-1.2-1.5c-0.4-0.2-0.8-0.2-1.2-0.2c-0.8,0-1.5,0.3-2.1,0.9
				c-0.5,0.6-0.8,1.6-0.8,2.8c0,1.3,0.3,2.2,0.9,2.7s1.2,0.8,2,0.8c0.7,0,1.3-0.2,1.8-0.6c0.5-0.4,0.8-1,0.9-1.6H357v-1.7h4.3v5.6
				h-1.4l-0.2-1.3c-0.4,0.5-0.8,0.8-1.1,1c-0.6,0.4-1.3,0.5-2.1,0.5c-1.4,0-2.5-0.5-3.4-1.4c-0.9-1-1.4-2.3-1.4-3.9
				c0-1.7,0.5-3,1.4-4s2.1-1.5,3.7-1.5c1.3,0,2.4,0.3,3.2,1c0.8,0.7,1.3,1.5,1.4,2.5h-2.3V107.7z"/>
		</g>
	</g>
	<g>
		<circle class="st5" cx="356.5" cy="48.2" r="12"/>
		<g>
			<path class="st4" d="M360.1,44.3h-5.5v2.3h5v1.8h-5v2.7h5.8V53h-7.9V42.5h7.6V44.3z"/>
		</g>
	</g>
	<g>
		<circle class="st6" cx="356.5" cy="16.2" r="12"/>
		<g>
			<path class="st4" d="M355.2,10.5h2.5l3.7,10.4H359l-0.7-2.1h-3.8l-0.7,2.1h-2.3L355.2,10.5z M355.1,17h2.7l-1.3-4.1L355.1,17z"/>
		</g>
	</g>
</g>
<g id="Layer_3">
	<g>
		<path class="st4" d="M230.1,74.9c0.3,0.4,0.4,0.8,0.4,1.3s-0.1,1-0.4,1.3c-0.1,0.2-0.4,0.3-0.7,0.5c0.4,0.2,0.8,0.4,1,0.8
			c0.2,0.3,0.3,0.8,0.3,1.3s-0.1,1-0.4,1.4c-0.2,0.3-0.4,0.5-0.6,0.7c-0.3,0.2-0.6,0.4-1,0.4c-0.4,0.1-0.8,0.1-1.2,0.1h-3.9v-8.6
			h4.2C228.9,74,229.7,74.3,230.1,74.9z M225.4,75.5v1.9h2.1c0.4,0,0.7-0.1,0.9-0.2s0.4-0.4,0.4-0.8s-0.2-0.7-0.5-0.8
			c-0.3-0.1-0.6-0.1-1-0.1H225.4z M225.4,78.8v2.3h2.1c0.4,0,0.7-0.1,0.9-0.2c0.4-0.2,0.6-0.5,0.6-1.1c0-0.4-0.2-0.8-0.5-0.9
			c-0.2-0.1-0.5-0.1-0.9-0.1C227.6,78.8,225.4,78.8,225.4,78.8z"/>
	</g>
	<path class="st4" d="M234.9,78.3c-0.4-0.5-1-0.6-1.6-0.5c-0.3,0.1-0.6,0.2-0.9,0.3c0-1.4,0-2.8,0-4.2c-0.2,0-0.3,0-0.5,0
		c0,2.8,0,5.6,0,8.4c0,0,0.1,0,0.1,0c0.6-0.4,1.1-0.7,1.7-1.1c0.6-0.4,1-0.9,1.4-1.5C235.3,79.3,235.2,78.7,234.9,78.3z M233.7,80.1
		c-0.4,0.5-0.8,0.9-1.3,1.2c0-0.1,0-0.1,0-0.1c0-0.7,0-1.4,0-2.2c0-0.1,0-0.2,0.1-0.3c0.3-0.3,0.7-0.5,1.2-0.4
		c0.3,0.1,0.4,0.2,0.4,0.5C234.1,79.3,233.9,79.7,233.7,80.1z"/>
	<g>
		<circle class="st10" cx="229.4" cy="78.3" r="10.6"/>
	</g>
	<g>
		<path class="st4" d="M93.2,136.4c0.3,0.4,0.4,0.8,0.4,1.3s-0.1,1-0.4,1.3c-0.1,0.2-0.4,0.3-0.7,0.5c0.4,0.2,0.8,0.4,1,0.8
			c0.2,0.3,0.3,0.8,0.3,1.3s-0.1,1-0.4,1.4c-0.2,0.3-0.4,0.5-0.6,0.7c-0.3,0.2-0.6,0.4-1,0.4c-0.4,0.1-0.8,0.1-1.2,0.1h-3.9v-8.6
			h4.2C92,135.5,92.8,135.8,93.2,136.4z M88.5,137v1.9h2.1c0.4,0,0.7-0.1,0.9-0.2c0.2-0.1,0.4-0.4,0.4-0.8c0-0.4-0.2-0.7-0.5-0.8
			s-0.6-0.1-1-0.1H88.5z M88.5,140.3v2.3h2.1c0.4,0,0.7-0.1,0.9-0.2c0.4-0.2,0.6-0.5,0.6-1.1c0-0.4-0.2-0.8-0.5-0.9
			c-0.2-0.1-0.5-0.1-0.9-0.1C90.7,140.3,88.5,140.3,88.5,140.3z"/>
	</g>
	<path class="st4" d="M97.9,139.7c-0.4-0.5-1-0.6-1.6-0.5c-0.3,0.1-0.6,0.2-0.9,0.3c0-1.4,0-2.8,0-4.2c-0.2,0-0.3,0-0.5,0
		c0,2.8,0,5.6,0,8.4c0,0,0.1,0,0.1,0c0.6-0.4,1.1-0.7,1.7-1.1c0.6-0.4,1-0.9,1.4-1.5C98.3,140.7,98.3,140.2,97.9,139.7z M96.7,141.5
		c-0.4,0.5-0.8,0.9-1.3,1.2c0-0.1,0-0.1,0-0.1c0-0.7,0-1.4,0-2.2c0-0.1,0-0.2,0.1-0.3c0.3-0.3,0.7-0.5,1.2-0.4
		c0.3,0.1,0.4,0.2,0.4,0.5C97.1,140.8,97,141.2,96.7,141.5z"/>
	<g>
		<circle class="st10" cx="92.4" cy="139.8" r="10.6"/>
	</g>
</g>
</svg>
