<?xml version="1.0" encoding="utf-8"?>
<!-- Generator: Adobe Illustrator 23.0.2, SVG Export Plug-In . SVG Version: 6.00 Build 0)  -->
<svg version="1.1" id="Layer_1" xmlns="http://www.w3.org/2000/svg" xmlns:xlink="http://www.w3.org/1999/xlink" x="0px" y="0px"
	 viewBox="0 0 946 272" style="enable-background:new 0 0 946 272;" xml:space="preserve">
<style type="text/css">
	.st0{opacity:0.7;fill:none;stroke:#999999;stroke-width:0.5;stroke-miterlimit:10;enable-background:new    ;}
	.st1{fill:#C4C4C4;}
	.st2{fill:#FFFFFF;}
	.st3{fill:#7C6D94;}
	.st4{fill:#B15452;}
	.st5{fill:#C89367;}
	.st6{fill:#618073;}
	.st7{fill:#C777A9;}
</style>
<g id="bg">
</g>
<g>
	<polyline class="st0" points="939.4,24.5 60.4,40.5 60.4,184.5 934.4,200.5 	"/>
	<line class="st0" x1="933.4" y1="58.5" x2="60.4" y2="70.9"/>
	<line class="st0" x1="933.4" y1="89.5" x2="60.4" y2="99.4"/>
	<line class="st0" x1="933.4" y1="124.5" x2="60.4" y2="127.5"/>
	<line class="st0" x1="933.4" y1="160.5" x2="60.4" y2="155.1"/>
	<polyline class="st0" points="14.4,29.5 53.4,39.5 53.4,185.5 14.4,197.5 	"/>
</g>
<g>
	<line class="st0" x1="909.6" y1="200" x2="909.6" y2="25"/>
	<line class="st0" x1="859" y1="26" x2="859" y2="199"/>
	<line class="st0" x1="807.8" y1="26.9" x2="807.8" y2="198.2"/>
	<line class="st0" x1="760.3" y1="27.8" x2="760.3" y2="197.3"/>
	<line class="st0" x1="707.9" y1="28.7" x2="707.9" y2="196.4"/>
	<line class="st0" x1="658.8" y1="29.6" x2="658.8" y2="195.5"/>
	<line class="st0" x1="607.1" y1="30.5" x2="607.1" y2="194.5"/>
	<line class="st0" x1="553.4" y1="31.5" x2="553.4" y2="193.5"/>
	<line class="st0" x1="496.9" y1="32.6" x2="496.9" y2="192.5"/>
	<line class="st0" x1="444.6" y1="33.5" x2="444.6" y2="191.6"/>
	<line class="st0" x1="383.7" y1="34.6" x2="383.7" y2="190.4"/>
	<line class="st0" x1="326.8" y1="35.7" x2="326.8" y2="189.4"/>
	<line class="st0" x1="262.3" y1="36.8" x2="262.3" y2="188.2"/>
	<line class="st0" x1="194.2" y1="38" x2="194.2" y2="188.2"/>
	<line class="st0" x1="125.1" y1="39.3" x2="125.1" y2="185.8"/>
	<g>
		<path class="st1" d="M876.3,224.7v-1.4c0.6,0,1.1-0.1,1.3-0.1c0.4-0.1,0.7-0.3,1-0.5c0.2-0.2,0.3-0.4,0.4-0.7
			c0.1-0.2,0.1-0.3,0.1-0.4h1.7v10.2h-2.1v-7h-2.4V224.7z"/>
		<path class="st1" d="M885.6,229c0.1,0.4,0.2,0.8,0.5,1c0.2,0.2,0.6,0.4,1,0.4c0.5,0,0.9-0.2,1.1-0.5c0.3-0.3,0.4-0.8,0.4-1.3
			s-0.1-1-0.4-1.3c-0.2-0.4-0.6-0.5-1.1-0.5c-0.2,0-0.5,0-0.6,0.1c-0.3,0.1-0.5,0.3-0.7,0.6l-1.8-0.1l0.7-5.6h5.6v1.7h-4.2l-0.4,2.2
			c0.3-0.2,0.5-0.3,0.7-0.4c0.3-0.1,0.6-0.2,1.1-0.2c0.8,0,1.6,0.3,2.2,0.9s0.9,1.4,0.9,2.5c0,0.9-0.3,1.8-0.9,2.5
			c-0.6,0.7-1.5,1.1-2.7,1.1c-1,0-1.8-0.3-2.4-0.8c-0.6-0.5-1-1.3-1-2.2L885.6,229L885.6,229z"/>
	</g>
	<g>
		<path class="st1" d="M826.1,224.7v-1.4c0.6,0,1.1-0.1,1.3-0.1c0.4-0.1,0.7-0.3,1-0.5c0.2-0.2,0.3-0.4,0.4-0.7
			c0.1-0.2,0.1-0.3,0.1-0.4h1.7v10.2h-2.1v-7h-2.4V224.7z"/>
		<path class="st1" d="M840.7,229.6h-1.2v2.2h-2v-2.2h-4v-1.8l3.7-6.2h2.2v6.4h1.2L840.7,229.6L840.7,229.6z M837.6,228v-4.4
			L835,228H837.6z"/>
	</g>
	<g>
		<path class="st1" d="M776.3,224.7v-1.4c0.6,0,1.1-0.1,1.3-0.1c0.4-0.1,0.7-0.3,1-0.5c0.2-0.2,0.3-0.4,0.4-0.7
			c0.1-0.2,0.1-0.3,0.1-0.4h1.7v10.2h-2.1v-7h-2.4V224.7z"/>
		<path class="st1" d="M785.6,228.6c0,0.4,0.1,0.7,0.2,1c0.2,0.5,0.7,0.7,1.3,0.7c0.4,0,0.7-0.1,1-0.4c0.3-0.3,0.4-0.7,0.4-1.2
			c0-0.7-0.3-1.1-0.8-1.3c-0.3-0.1-0.8-0.2-1.5-0.2v-1.4c0.6,0,1.1-0.1,1.4-0.2c0.4-0.2,0.7-0.6,0.7-1.2c0-0.4-0.1-0.7-0.3-0.9
			s-0.5-0.4-1-0.4s-0.8,0.2-1,0.5s-0.3,0.7-0.3,1.2h-1.9c0-0.5,0.1-1,0.3-1.4s0.4-0.8,0.8-1.1c0.3-0.2,0.6-0.4,0.9-0.5
			c0.4-0.1,0.8-0.2,1.3-0.2c1,0,1.8,0.3,2.4,0.8c0.6,0.5,0.9,1.2,0.9,2c0,0.6-0.2,1.1-0.5,1.5c-0.2,0.3-0.5,0.4-0.7,0.5
			c0.2,0,0.4,0.2,0.8,0.5c0.5,0.5,0.8,1.1,0.8,1.9c0,0.9-0.3,1.6-0.9,2.3c-0.6,0.7-1.5,1-2.7,1c-1.4,0-2.4-0.5-3-1.4
			c-0.3-0.5-0.5-1.2-0.5-2h1.9V228.6z"/>
	</g>
	<g>
		<path class="st1" d="M726.2,224.7v-1.4c0.6,0,1.1-0.1,1.3-0.1c0.4-0.1,0.7-0.3,1-0.5c0.2-0.2,0.3-0.4,0.4-0.7
			c0.1-0.2,0.1-0.3,0.1-0.4h1.7v10.2h-2.1v-7h-2.4V224.7z"/>
		<path class="st1" d="M734.2,229.7c0.3-0.7,1-1.4,2-2.2c0.9-0.7,1.5-1.1,1.8-1.4c0.4-0.4,0.6-0.9,0.6-1.5c0-0.4-0.1-0.8-0.4-1.1
			c-0.2-0.3-0.6-0.4-1-0.4c-0.6,0-1,0.2-1.2,0.7c-0.1,0.3-0.2,0.7-0.2,1.3h-1.9c0-0.9,0.2-1.6,0.5-2.1c0.5-1,1.5-1.5,2.9-1.5
			c1.1,0,1.9,0.3,2.6,0.9c0.6,0.6,1,1.4,1,2.4c0,0.8-0.2,1.4-0.7,2c-0.3,0.4-0.8,0.8-1.5,1.3l-0.8,0.6c-0.5,0.4-0.8,0.6-1,0.8
			s-0.3,0.3-0.5,0.6h4.5v1.8h-7C733.7,231,733.9,230.4,734.2,229.7z"/>
	</g>
	<g>
		<path class="st1" d="M678,224.7v-1.4c0.6,0,1.1-0.1,1.3-0.1c0.4-0.1,0.7-0.3,1-0.5c0.2-0.2,0.3-0.4,0.4-0.7
			c0.1-0.2,0.1-0.3,0.1-0.4h1.7v10.2h-2.1v-7H678V224.7z"/>
		<path class="st1" d="M685.2,224.7v-1.4c0.6,0,1.1-0.1,1.3-0.1c0.4-0.1,0.7-0.3,1-0.5c0.2-0.2,0.3-0.4,0.4-0.7
			c0.1-0.2,0.1-0.3,0.1-0.4h1.7v10.2h-2.1v-7h-2.4V224.7z"/>
	</g>
	<g>
		<path class="st1" d="M625.2,224.7v-1.4c0.6,0,1.1-0.1,1.3-0.1c0.4-0.1,0.7-0.3,1-0.5c0.2-0.2,0.3-0.4,0.4-0.7
			c0.1-0.2,0.1-0.3,0.1-0.4h1.7v10.2h-2.1v-7h-2.4V224.7z"/>
		<path class="st1" d="M638.9,222.9c0.5,0.9,0.8,2.2,0.8,3.9s-0.3,3-0.8,3.9s-1.4,1.4-2.7,1.4s-2.2-0.5-2.7-1.4s-0.8-2.2-0.8-3.9
			s0.3-3,0.8-3.9s1.4-1.4,2.7-1.4S638.4,221.9,638.9,222.9z M635,229.4c0.2,0.6,0.6,0.9,1.2,0.9c0.6,0,1-0.3,1.2-0.9
			c0.2-0.6,0.3-1.5,0.3-2.7s-0.1-2.1-0.3-2.7c-0.2-0.6-0.6-0.9-1.2-0.9c-0.6,0-1,0.3-1.2,0.9s-0.3,1.5-0.3,2.7
			S634.8,228.8,635,229.4z"/>
	</g>
	<g>
		<path class="st1" d="M576.1,222.5c0.6-0.7,1.5-1,2.5-1c1.6,0,2.6,0.7,3.2,2.1c0.3,0.8,0.5,1.8,0.5,3.1c0,1.2-0.2,2.3-0.5,3.1
			c-0.6,1.6-1.7,2.4-3.3,2.4c-0.8,0-1.5-0.2-2.1-0.7s-1-1.1-1-2h2c0,0.3,0.2,0.5,0.4,0.7s0.5,0.3,0.8,0.3c0.7,0,1.1-0.4,1.4-1.1
			c0.1-0.4,0.2-1,0.3-1.8c-0.2,0.2-0.4,0.4-0.6,0.5c-0.4,0.2-0.8,0.3-1.4,0.3c-0.8,0-1.5-0.3-2.2-0.8c-0.6-0.6-0.9-1.4-0.9-2.4
			C575.2,224,575.5,223.2,576.1,222.5z M579.5,226.5c0.5-0.3,0.7-0.8,0.7-1.5c0-0.6-0.1-1-0.4-1.4c-0.3-0.3-0.6-0.5-1.1-0.5
			c-0.3,0-0.6,0.1-0.9,0.3c-0.4,0.3-0.6,0.8-0.6,1.5c0,0.6,0.1,1.1,0.4,1.4s0.6,0.5,1.1,0.5C579,226.8,579.2,226.7,579.5,226.5z"/>
	</g>
	<g>
		<path class="st1" d="M521.6,227.4c0.3-0.5,0.6-0.8,1.1-1c-0.5-0.3-0.8-0.7-1-1.1s-0.2-0.7-0.2-1.1c0-0.7,0.3-1.4,0.8-1.9
			c0.6-0.5,1.3-0.8,2.4-0.8s1.8,0.3,2.4,0.8c0.6,0.5,0.8,1.2,0.8,1.9c0,0.3-0.1,0.7-0.2,1.1s-0.5,0.7-1,1c0.5,0.3,0.9,0.7,1.1,1.1
			c0.3,0.5,0.4,1,0.4,1.6c0,0.9-0.3,1.6-1,2.2c-0.6,0.6-1.5,0.9-2.7,0.9s-2-0.3-2.6-0.9c-0.6-0.6-0.9-1.3-0.9-2.2
			C521.2,228.4,521.4,227.8,521.6,227.4z M523.7,230c0.3,0.3,0.6,0.4,1.1,0.4s0.8-0.1,1.1-0.4s0.4-0.7,0.4-1.2s-0.1-0.9-0.4-1.2
			c-0.3-0.3-0.6-0.4-1.1-0.4s-0.8,0.1-1.1,0.4c-0.3,0.3-0.4,0.7-0.4,1.2S523.4,229.7,523.7,230z M523.8,225.3
			c0.2,0.2,0.5,0.4,0.9,0.4s0.7-0.1,0.9-0.4c0.2-0.2,0.3-0.5,0.3-0.9s-0.1-0.7-0.3-0.9s-0.5-0.3-0.9-0.3s-0.7,0.1-0.9,0.3
			s-0.3,0.5-0.3,0.9S523.6,225.1,523.8,225.3z"/>
	</g>
	<g>
		<path class="st1" d="M476.3,223.3c-0.3,0.3-0.7,0.8-1.3,1.6c-0.5,0.8-1,1.5-1.3,2.3c-0.3,0.6-0.5,1.4-0.8,2.3s-0.3,1.7-0.3,2.2
			h-2.1c0.1-1.8,0.7-3.7,1.8-5.7c0.7-1.2,1.4-2.1,1.9-2.6h-5.1v-1.8h7.2L476.3,223.3L476.3,223.3z"/>
	</g>
	<g>
		<path class="st1" d="M415,224.1c0-0.2-0.1-0.3-0.2-0.5c-0.2-0.3-0.5-0.5-1-0.5c-0.7,0-1.1,0.4-1.4,1.1c-0.2,0.4-0.3,1-0.3,1.8
			c0.2-0.3,0.5-0.5,0.9-0.6c0.3-0.1,0.7-0.2,1.1-0.2c0.9,0,1.6,0.3,2.2,0.9s0.9,1.4,0.9,2.4s-0.3,1.8-0.9,2.5s-1.4,1.1-2.6,1.1
			c-1.3,0-2.2-0.5-2.8-1.6c-0.5-0.8-0.7-1.9-0.7-3.2c0-0.8,0-1.4,0.1-1.9c0.1-0.9,0.3-1.6,0.7-2.2c0.3-0.5,0.7-0.9,1.1-1.2
			s1-0.5,1.7-0.5c0.9,0,1.7,0.2,2.3,0.7c0.6,0.5,0.9,1.1,0.9,1.9H415z M412.6,229.9c0.3,0.3,0.7,0.5,1.1,0.5s0.8-0.2,1.1-0.5
			c0.3-0.3,0.4-0.8,0.4-1.3c0-0.6-0.1-1.1-0.4-1.4s-0.6-0.5-1.1-0.5c-0.3,0-0.6,0.1-0.9,0.3c-0.4,0.3-0.6,0.8-0.6,1.5
			C412.2,229.1,412.4,229.5,412.6,229.9z"/>
	</g>
	<g>
		<path class="st1" d="M354.3,229c0.1,0.4,0.2,0.8,0.5,1c0.2,0.2,0.6,0.4,1,0.4c0.5,0,0.9-0.2,1.1-0.5c0.3-0.3,0.4-0.8,0.4-1.3
			s-0.1-1-0.4-1.3c-0.2-0.4-0.6-0.5-1.1-0.5c-0.2,0-0.5,0-0.6,0.1c-0.3,0.1-0.5,0.3-0.7,0.6l-1.8-0.1l0.7-5.6h5.6v1.7h-4.2l-0.4,2.2
			c0.3-0.2,0.6-0.3,0.7-0.4c0.3-0.1,0.6-0.2,1.1-0.2c0.8,0,1.6,0.3,2.2,0.9c0.6,0.6,0.9,1.4,0.9,2.5c0,0.9-0.3,1.8-0.9,2.5
			s-1.5,1.1-2.7,1.1c-1,0-1.8-0.3-2.4-0.8s-1-1.3-1-2.2L354.3,229L354.3,229z"/>
	</g>
	<g>
		<path class="st1" d="M297.3,229.6h-1.2v2.2h-2v-2.2h-4v-1.8l3.7-6.2h2.2v6.4h1.2L297.3,229.6L297.3,229.6z M294.2,228v-4.4
			l-2.5,4.4H294.2z"/>
	</g>
	<g>
		<path class="st1" d="M227.2,228.6c0,0.4,0.1,0.7,0.2,1c0.2,0.5,0.7,0.7,1.3,0.7c0.4,0,0.7-0.1,1-0.4c0.3-0.3,0.4-0.7,0.4-1.2
			c0-0.7-0.3-1.1-0.8-1.3c-0.3-0.1-0.8-0.2-1.5-0.2v-1.4c0.6,0,1.1-0.1,1.4-0.2c0.4-0.2,0.7-0.6,0.7-1.2c0-0.4-0.1-0.7-0.3-0.9
			s-0.5-0.4-1-0.4s-0.8,0.2-1,0.5s-0.3,0.7-0.3,1.2h-1.9c0-0.5,0.1-1,0.3-1.4s0.4-0.8,0.8-1.1c0.3-0.2,0.6-0.4,0.9-0.5
			c0.4-0.1,0.8-0.2,1.3-0.2c1,0,1.8,0.3,2.4,0.8c0.6,0.5,0.9,1.2,0.9,2c0,0.6-0.2,1.1-0.5,1.5c-0.2,0.3-0.5,0.4-0.7,0.5
			c0.2,0,0.4,0.2,0.8,0.5c0.5,0.5,0.8,1.1,0.8,1.9c0,0.9-0.3,1.6-0.9,2.3c-0.6,0.7-1.5,1-2.7,1c-1.4,0-2.4-0.5-3-1.4
			c-0.3-0.5-0.5-1.2-0.5-2h1.9V228.6z"/>
	</g>
	<g>
		<path class="st1" d="M153.7,229.7c0.3-0.7,1-1.4,2-2.2c0.9-0.7,1.5-1.1,1.8-1.4c0.4-0.4,0.6-0.9,0.6-1.5c0-0.4-0.1-0.8-0.4-1.1
			c-0.2-0.3-0.6-0.4-1-0.4c-0.6,0-1,0.2-1.2,0.7c-0.1,0.3-0.2,0.7-0.2,1.3h-1.9c0-0.9,0.2-1.6,0.5-2.1c0.5-1,1.5-1.5,2.9-1.5
			c1.1,0,1.9,0.3,2.6,0.9c0.6,0.6,1,1.4,1,2.4c0,0.8-0.2,1.4-0.7,2c-0.3,0.4-0.8,0.8-1.5,1.3l-0.8,0.6c-0.5,0.4-0.8,0.6-1,0.8
			s-0.3,0.3-0.5,0.6h4.5v1.8h-7C153.3,231,153.4,230.4,153.7,229.7z"/>
	</g>
	<g>
		<path class="st1" d="M88.2,224.7v-1.4c0.6,0,1.1-0.1,1.3-0.1c0.4-0.1,0.7-0.3,1-0.5c0.2-0.2,0.3-0.4,0.4-0.7
			c0.1-0.2,0.1-0.3,0.1-0.4h1.7v10.2h-2.1v-7h-2.4V224.7z"/>
	</g>
	<g>
		<circle class="st2" cx="228.4" cy="250.5" r="2.4"/>
		<path class="st2" d="M228.4,248.2c1.2,0,2.2,1,2.2,2.2s-1,2.2-2.2,2.2s-2.2-1-2.2-2.2S227.1,248.2,228.4,248.2 M228.4,248
			c-1.4,0-2.5,1.1-2.5,2.5s1.1,2.5,2.5,2.5s2.5-1.1,2.5-2.5S229.8,248,228.4,248L228.4,248z"/>
	</g>
	<g>
		<circle class="st2" cx="356.4" cy="250.5" r="2.4"/>
		<path class="st2" d="M356.4,248.2c1.2,0,2.2,1,2.2,2.2s-1,2.2-2.2,2.2s-2.2-1-2.2-2.2S355.1,248.2,356.4,248.2 M356.4,248
			c-1.4,0-2.5,1.1-2.5,2.5s1.1,2.5,2.5,2.5s2.5-1.1,2.5-2.5S357.8,248,356.4,248L356.4,248z"/>
	</g>
	<g>
		<circle class="st2" cx="472.4" cy="250.5" r="2.4"/>
		<path class="st2" d="M472.4,248.2c1.2,0,2.2,1,2.2,2.2s-1,2.2-2.2,2.2s-2.2-1-2.2-2.2S471.1,248.2,472.4,248.2 M472.4,248
			c-1.4,0-2.5,1.1-2.5,2.5s1.1,2.5,2.5,2.5s2.5-1.1,2.5-2.5S473.8,248,472.4,248L472.4,248z"/>
	</g>
	<g>
		<circle class="st2" cx="579.4" cy="250.5" r="2.4"/>
		<path class="st2" d="M579.4,248.2c1.2,0,2.2,1,2.2,2.2s-1,2.2-2.2,2.2s-2.2-1-2.2-2.2S578.1,248.2,579.4,248.2 M579.4,248
			c-1.4,0-2.5,1.1-2.5,2.5s1.1,2.5,2.5,2.5s2.5-1.1,2.5-2.5S580.8,248,579.4,248L579.4,248z"/>
	</g>
	<g>
		<circle class="st2" cx="733.4" cy="246.5" r="2.4"/>
		<path class="st2" d="M733.4,244.2c1.2,0,2.2,1,2.2,2.2s-1,2.2-2.2,2.2s-2.2-1-2.2-2.2S732.1,244.2,733.4,244.2 M733.4,244
			c-1.4,0-2.5,1.1-2.5,2.5s1.1,2.5,2.5,2.5s2.5-1.1,2.5-2.5S734.8,244,733.4,244L733.4,244z"/>
	</g>
	<g>
		<circle class="st2" cx="733.4" cy="256.5" r="2.4"/>
		<path class="st2" d="M733.4,254.2c1.2,0,2.2,1,2.2,2.2c0,1.2-1,2.2-2.2,2.2s-2.2-1-2.2-2.2S732.1,254.2,733.4,254.2 M733.4,254
			c-1.4,0-2.5,1.1-2.5,2.5s1.1,2.5,2.5,2.5s2.5-1.1,2.5-2.5S734.8,254,733.4,254L733.4,254z"/>
	</g>
	<g>
		<circle class="st2" cx="882.4" cy="250.5" r="2.4"/>
		<path class="st2" d="M882.4,248.2c1.2,0,2.2,1,2.2,2.2s-1,2.2-2.2,2.2s-2.2-1-2.2-2.2S881.1,248.2,882.4,248.2 M882.4,248
			c-1.4,0-2.5,1.1-2.5,2.5s1.1,2.5,2.5,2.5s2.5-1.1,2.5-2.5S883.8,248,882.4,248L882.4,248z"/>
	</g>
</g>
<g>
	<path class="st2" d="M78.1,150.6h2l3.1,8.6h-2l-0.6-1.8h-3.2l-0.6,1.8H75L78.1,150.6z M78,156h2.2l-1.1-3.4L78,156z"/>
	<path class="st2" d="M83.6,155.9h1.2l0.5-1.7h-1.2l0.3-1h1.2l0.6-2.4h1.2l-0.6,2.4h1l0.6-2.4h1.2l-0.6,2.4h1l-0.3,1h-1.2l-0.5,1.7
		h1.2l-0.3,1h-1.2l-0.6,2.3H86l0.6-2.3h-1l-0.6,2.3h-1.2l0.6-2.3h-1.2L83.6,155.9z M86.9,155.9l0.5-1.7h-1l-0.5,1.7H86.9z"/>
	<path class="st2" d="M100.7,151.5c0.3,0.4,0.4,0.8,0.4,1.3s-0.1,1-0.4,1.3c-0.1,0.2-0.4,0.3-0.7,0.5c0.4,0.2,0.8,0.4,1,0.8
		c0.2,0.3,0.3,0.8,0.3,1.3s-0.1,1-0.4,1.4c-0.2,0.3-0.4,0.5-0.6,0.7c-0.3,0.2-0.6,0.4-1,0.4c-0.4,0.1-0.8,0.1-1.2,0.1h-3.9v-8.6h4.2
		C99.5,150.6,100.3,150.9,100.7,151.5z M96,152.1v1.9h2.1c0.4,0,0.7-0.1,0.9-0.2c0.2-0.1,0.4-0.4,0.4-0.8c0-0.4-0.2-0.7-0.5-0.8
		s-0.6-0.1-1-0.1L96,152.1L96,152.1z M96,155.4v2.3h2.1c0.4,0,0.7-0.1,0.9-0.2c0.4-0.2,0.6-0.5,0.6-1.1c0-0.4-0.2-0.8-0.5-0.9
		c-0.2-0.1-0.5-0.1-0.9-0.1H96z"/>
	<path class="st2" d="M108.3,153.6c0.5,0.6,0.7,1.4,0.7,2.3c0,1-0.2,1.8-0.7,2.5s-1.1,1-2,1c-0.5,0-1-0.1-1.3-0.3
		c-0.2-0.1-0.4-0.3-0.6-0.7v0.8h-1.6v-8.6h1.7v3.1c0.2-0.3,0.4-0.5,0.7-0.7c0.3-0.2,0.7-0.3,1.2-0.3
		C107.1,152.7,107.8,153,108.3,153.6z M106.9,157.5c0.2-0.3,0.4-0.8,0.4-1.4c0-0.5-0.1-0.8-0.2-1.1c-0.2-0.6-0.6-0.8-1.2-0.8
		s-1,0.3-1.3,0.8c-0.1,0.3-0.2,0.7-0.2,1.1c0,0.5,0.1,1,0.4,1.4s0.6,0.5,1.1,0.5C106.3,158,106.6,157.9,106.9,157.5z"/>
</g>
<g>
	<path class="st2" d="M215.1,93.6h2l3.1,8.6h-2l-0.6-1.8h-3.2l-0.6,1.8H212L215.1,93.6z M214.9,99h2.2l-1.1-3.4L214.9,99z"/>
	<path class="st2" d="M220.6,98.9h1.2l0.5-1.7h-1.2l0.3-1h1.2l0.6-2.4h1.2l-0.6,2.4h1l0.6-2.4h1.2l-0.6,2.4h1.2l-0.3,1h-1.2
		l-0.5,1.7h1.2l-0.3,1h-1.2l-0.6,2.3H223l0.6-2.3h-1l-0.6,2.3h-1.2l0.6-2.3h-1.2L220.6,98.9z M223.9,98.9l0.5-1.7h-1l-0.5,1.7H223.9
		z"/>
	<path class="st2" d="M237.7,94.5c0.3,0.4,0.4,0.8,0.4,1.3s-0.1,1-0.4,1.3c-0.1,0.2-0.4,0.3-0.7,0.5c0.4,0.2,0.8,0.4,1,0.8
		c0.2,0.3,0.3,0.8,0.3,1.3s-0.1,1-0.4,1.4c-0.2,0.3-0.4,0.5-0.6,0.7c-0.3,0.2-0.6,0.4-1,0.4c-0.4,0.1-0.8,0.1-1.2,0.1h-3.9v-8.6h4.2
		C236.5,93.6,237.3,93.9,237.7,94.5z M233,95.1V97h2.1c0.4,0,0.7-0.1,0.9-0.2s0.4-0.4,0.4-0.8s-0.2-0.7-0.5-0.8
		c-0.3-0.1-0.6-0.1-1-0.1H233z M233,98.4v2.3h2.1c0.4,0,0.7-0.1,0.9-0.2c0.4-0.2,0.6-0.5,0.6-1.1c0-0.4-0.2-0.8-0.5-0.9
		c-0.2-0.1-0.5-0.1-0.9-0.1C235.2,98.4,233,98.4,233,98.4z"/>
	<path class="st2" d="M245.3,96.6c0.5,0.6,0.7,1.4,0.7,2.3c0,1-0.2,1.8-0.7,2.5s-1.1,1-2,1c-0.5,0-1-0.1-1.3-0.3
		c-0.2-0.1-0.4-0.3-0.6-0.7v0.8h-1.6v-8.6h1.7v3.1c0.2-0.3,0.4-0.5,0.7-0.7s0.7-0.3,1.2-0.3C244.1,95.7,244.8,96,245.3,96.6z
		 M243.9,100.5c0.2-0.3,0.4-0.8,0.4-1.4c0-0.5-0.1-0.8-0.2-1.1c-0.2-0.6-0.6-0.8-1.2-0.8c-0.6,0-1,0.3-1.3,0.8
		c-0.1,0.3-0.2,0.7-0.2,1.1c0,0.5,0.1,1,0.4,1.4s0.6,0.5,1.1,0.5C243.3,101,243.6,100.9,243.9,100.5z"/>
</g>
<g>
	<path class="st2" d="M400.6,28.6h2l3.1,8.6h-2l-0.6-1.8H400l-0.6,1.8h-1.9L400.6,28.6z M400.5,34h2.2l-1.1-3.4L400.5,34z"/>
	<path class="st2" d="M406.2,33.9h1.2l0.5-1.7h-1.2l0.3-1h1.2l0.6-2.4h1.2l-0.6,2.4h1l0.6-2.4h1.2l-0.6,2.4h1.2l-0.3,1h-1.2
		l-0.5,1.7h1.2l-0.3,1h-1.2l-0.6,2.3h-1.2l0.6-2.3h-1l-0.6,2.3h-1.2l0.6-2.3h-1.2L406.2,33.9z M409.5,33.9l0.5-1.7h-1l-0.5,1.7
		H409.5z"/>
	<path class="st2" d="M423.3,29.5c0.3,0.4,0.4,0.8,0.4,1.3s-0.1,1-0.4,1.3c-0.1,0.2-0.4,0.3-0.7,0.5c0.4,0.2,0.8,0.4,1,0.8
		c0.2,0.3,0.3,0.8,0.3,1.3s-0.1,1-0.4,1.4c-0.2,0.3-0.4,0.5-0.6,0.7c-0.3,0.2-0.6,0.4-1,0.4c-0.4,0.1-0.8,0.1-1.2,0.1h-3.9v-8.6h4.2
		C422.1,28.6,422.8,28.9,423.3,29.5z M418.6,30.1V32h2.1c0.4,0,0.7-0.1,0.9-0.2c0.2-0.1,0.4-0.4,0.4-0.8s-0.2-0.7-0.5-0.8
		c-0.3-0.1-0.6-0.1-1-0.1H418.6z M418.6,33.4v2.3h2.1c0.4,0,0.7-0.1,0.9-0.2c0.4-0.2,0.6-0.5,0.6-1.1c0-0.4-0.2-0.8-0.5-0.9
		c-0.2-0.1-0.5-0.1-0.9-0.1H418.6z"/>
	<path class="st2" d="M430.8,31.6c0.5,0.6,0.7,1.4,0.7,2.3c0,1-0.2,1.8-0.7,2.5s-1.1,1-2,1c-0.5,0-1-0.1-1.3-0.3
		c-0.2-0.1-0.4-0.3-0.6-0.7v0.8h-1.6v-8.6h1.7v3.1c0.2-0.3,0.4-0.5,0.7-0.7c0.3-0.2,0.7-0.3,1.2-0.3C429.7,30.7,430.3,31,430.8,31.6
		z M429.4,35.5c0.2-0.3,0.4-0.8,0.4-1.4c0-0.5-0.1-0.8-0.2-1.1c-0.2-0.6-0.6-0.8-1.2-0.8s-1,0.3-1.3,0.8c-0.1,0.3-0.2,0.7-0.2,1.1
		c0,0.5,0.1,1,0.4,1.4s0.6,0.5,1.1,0.5C428.8,36,429.2,35.9,429.4,35.5z"/>
</g>
<g>
	<path class="st2" d="M400.6,185.6h2l3.1,8.6h-2l-0.6-1.8H400l-0.6,1.8h-1.9L400.6,185.6z M400.5,191h2.2l-1.1-3.4L400.5,191z"/>
	<path class="st2" d="M406.2,190.9h1.2l0.5-1.7h-1.2l0.3-1h1.2l0.6-2.4h1.2l-0.6,2.4h1l0.6-2.4h1.2l-0.6,2.4h1.2l-0.3,1h-1.2
		l-0.5,1.7h1.2l-0.3,1h-1.2l-0.6,2.3h-1.2l0.6-2.3h-1l-0.6,2.3h-1.2l0.6-2.3h-1.2L406.2,190.9z M409.5,190.9l0.5-1.7h-1l-0.5,1.7
		H409.5z"/>
	<path class="st2" d="M423.3,186.5c0.3,0.4,0.4,0.8,0.4,1.3s-0.1,1-0.4,1.3c-0.1,0.2-0.4,0.3-0.7,0.5c0.4,0.2,0.8,0.4,1,0.8
		c0.2,0.3,0.3,0.8,0.3,1.3s-0.1,1-0.4,1.4c-0.2,0.3-0.4,0.5-0.6,0.7c-0.3,0.2-0.6,0.4-1,0.4c-0.4,0.1-0.8,0.1-1.2,0.1h-3.9v-8.6h4.2
		C422.1,185.6,422.8,185.9,423.3,186.5z M418.6,187.1v1.9h2.1c0.4,0,0.7-0.1,0.9-0.2c0.2-0.1,0.4-0.4,0.4-0.8c0-0.4-0.2-0.7-0.5-0.8
		s-0.6-0.1-1-0.1L418.6,187.1L418.6,187.1z M418.6,190.4v2.3h2.1c0.4,0,0.7-0.1,0.9-0.2c0.4-0.2,0.6-0.5,0.6-1.1
		c0-0.4-0.2-0.8-0.5-0.9c-0.2-0.1-0.5-0.1-0.9-0.1H418.6z"/>
	<path class="st2" d="M430.8,188.6c0.5,0.6,0.7,1.4,0.7,2.3c0,1-0.2,1.8-0.7,2.5s-1.1,1-2,1c-0.5,0-1-0.1-1.3-0.3
		c-0.2-0.1-0.4-0.3-0.6-0.7v0.8h-1.6v-8.6h1.7v3.1c0.2-0.3,0.4-0.5,0.7-0.7c0.3-0.2,0.7-0.3,1.2-0.3
		C429.7,187.7,430.3,188,430.8,188.6z M429.4,192.5c0.2-0.3,0.4-0.8,0.4-1.4c0-0.5-0.1-0.8-0.2-1.1c-0.2-0.6-0.6-0.8-1.2-0.8
		s-1,0.3-1.3,0.8c-0.1,0.3-0.2,0.7-0.2,1.1c0,0.5,0.1,1,0.4,1.4s0.6,0.5,1.1,0.5C428.8,193,429.2,192.9,429.4,192.5z"/>
</g>
<g>
	<path class="st2" d="M510.5,120.6h2l3.1,8.6h-2l-0.6-1.8h-3.2l-0.6,1.8h-1.9L510.5,120.6z M510.4,126h2.2l-1.1-3.4L510.4,126z"/>
	<path class="st2" d="M516,125.9h1.2l0.5-1.7h-1.2l0.3-1h1.2l0.6-2.4h1.2l-0.6,2.4h1l0.6-2.4h1.2l-0.6,2.4h1.2l-0.3,1H521l-0.5,1.7
		h1.2l-0.3,1h-1.2l-0.6,2.3h-1.2l0.6-2.3h-1l-0.6,2.3h-1.2l0.6-2.3h-1.2L516,125.9z M519.4,125.9l0.5-1.7h-1l-0.5,1.7H519.4z"/>
	<path class="st2" d="M533.1,121.5c0.3,0.4,0.4,0.8,0.4,1.3s-0.1,1-0.4,1.3c-0.1,0.2-0.4,0.3-0.7,0.5c0.4,0.2,0.8,0.4,1,0.8
		c0.2,0.3,0.3,0.8,0.3,1.3s-0.1,1-0.4,1.4c-0.2,0.3-0.4,0.5-0.6,0.7c-0.3,0.2-0.6,0.4-1,0.4c-0.4,0.1-0.8,0.1-1.2,0.1h-3.9v-8.6h4.2
		C532,120.6,532.7,120.9,533.1,121.5z M528.4,122.1v1.9h2.1c0.4,0,0.7-0.1,0.9-0.2s0.4-0.4,0.4-0.8s-0.2-0.7-0.5-0.8
		c-0.3-0.1-0.6-0.1-1-0.1H528.4z M528.4,125.4v2.3h2.1c0.4,0,0.7-0.1,0.9-0.2c0.4-0.2,0.6-0.5,0.6-1.1c0-0.4-0.2-0.8-0.5-0.9
		c-0.2-0.1-0.5-0.1-0.9-0.1H528.4z"/>
	<path class="st2" d="M540.7,123.6c0.5,0.6,0.7,1.4,0.7,2.3c0,1-0.2,1.8-0.7,2.5c-0.5,0.7-1.1,1-2,1c-0.5,0-1-0.1-1.3-0.3
		c-0.2-0.1-0.4-0.3-0.6-0.7v0.8h-1.6v-8.6h1.7v3.1c0.2-0.3,0.4-0.5,0.7-0.7s0.7-0.3,1.2-0.3C539.5,122.7,540.2,123,540.7,123.6z
		 M539.3,127.5c0.2-0.3,0.4-0.8,0.4-1.4c0-0.5-0.1-0.8-0.2-1.1c-0.2-0.6-0.6-0.8-1.2-0.8c-0.6,0-1,0.3-1.3,0.8
		c-0.1,0.3-0.2,0.7-0.2,1.1c0,0.5,0.1,1,0.4,1.4s0.6,0.5,1.1,0.5C538.7,128,539,127.9,539.3,127.5z"/>
</g>
<g>
	<path class="st2" d="M669.3,56.6h2l3.1,8.6h-2l-0.6-1.8h-3.2l-0.6,1.8h-1.9L669.3,56.6z M669.2,62h2.2l-1.1-3.4L669.2,62z"/>
	<path class="st2" d="M674.9,61.9h1.2l0.5-1.7h-1.2l0.3-1h1.2l0.6-2.4h1.2l-0.6,2.4h1l0.6-2.4h1.2l-0.6,2.4h1.2l-0.3,1H680l-0.5,1.7
		h1.2l-0.3,1h-1.2l-0.6,2.3h-1.2l0.6-2.3h-1l-0.6,2.3h-1.2l0.6-2.3h-1.2L674.9,61.9z M678.2,61.9l0.5-1.7h-1l-0.5,1.7H678.2z"/>
	<path class="st2" d="M692,57.5c0.3,0.4,0.4,0.8,0.4,1.3s-0.1,1-0.4,1.3c-0.1,0.2-0.4,0.3-0.7,0.5c0.4,0.2,0.8,0.4,1,0.8
		c0.2,0.3,0.3,0.8,0.3,1.3s-0.1,1-0.4,1.4c-0.2,0.3-0.4,0.5-0.6,0.7c-0.3,0.2-0.6,0.4-1,0.4c-0.4,0.1-0.8,0.1-1.2,0.1h-3.9v-8.6h4.2
		C690.8,56.6,691.5,56.9,692,57.5z M687.3,58.1V60h2.1c0.4,0,0.7-0.1,0.9-0.2c0.2-0.1,0.4-0.4,0.4-0.8c0-0.4-0.2-0.7-0.5-0.8
		s-0.6-0.1-1-0.1C689.2,58.1,687.3,58.1,687.3,58.1z M687.3,61.4v2.3h2.1c0.4,0,0.7-0.1,0.9-0.2c0.4-0.2,0.6-0.5,0.6-1.1
		c0-0.4-0.2-0.8-0.5-0.9c-0.2-0.1-0.5-0.1-0.9-0.1H687.3z"/>
	<path class="st2" d="M699.5,59.6c0.5,0.6,0.7,1.4,0.7,2.3c0,1-0.2,1.8-0.7,2.5c-0.5,0.7-1.1,1-2,1c-0.5,0-1-0.1-1.3-0.3
		c-0.2-0.1-0.4-0.3-0.6-0.7v0.8H694v-8.6h1.7v3.1c0.2-0.3,0.4-0.5,0.7-0.7s0.7-0.3,1.2-0.3C698.4,58.7,699,59,699.5,59.6z
		 M698.1,63.5c0.2-0.3,0.4-0.8,0.4-1.4c0-0.5-0.1-0.8-0.2-1.1c-0.2-0.6-0.6-0.8-1.2-0.8c-0.6,0-1,0.3-1.3,0.8
		c-0.1,0.3-0.2,0.7-0.2,1.1c0,0.5,0.1,1,0.4,1.4s0.6,0.5,1.1,0.5C697.5,64,697.9,63.9,698.1,63.5z"/>
</g>
<g>
	<path class="st2" d="M770.1,154.6h2l3.1,8.6h-2l-0.6-1.8h-3.2l-0.6,1.8H767L770.1,154.6z M770,160h2.2l-1.1-3.4L770,160z"/>
	<path class="st2" d="M775.6,159.9h1.2l0.5-1.7h-1.2l0.3-1h1.2l0.6-2.4h1.2l-0.6,2.4h1l0.6-2.4h1.2l-0.6,2.4h1.2l-0.3,1h-1.2
		l-0.5,1.7h1.2l-0.3,1h-1.2l-0.6,2.3H778l0.6-2.3h-1l-0.6,2.3h-1.2l0.6-2.3h-1.2L775.6,159.9z M778.9,159.9l0.5-1.7h-1l-0.5,1.7
		H778.9z"/>
	<path class="st2" d="M792.7,155.5c0.3,0.4,0.4,0.8,0.4,1.3s-0.1,1-0.4,1.3c-0.1,0.2-0.4,0.3-0.7,0.5c0.4,0.2,0.8,0.4,1,0.8
		c0.2,0.3,0.3,0.8,0.3,1.3s-0.1,1-0.4,1.4c-0.2,0.3-0.4,0.5-0.6,0.7c-0.3,0.2-0.6,0.4-1,0.4c-0.4,0.1-0.8,0.1-1.2,0.1h-3.9v-8.6h4.2
		C791.5,154.6,792.3,154.9,792.7,155.5z M788,156.1v1.9h2.1c0.4,0,0.7-0.1,0.9-0.2c0.2-0.1,0.4-0.4,0.4-0.8c0-0.4-0.2-0.7-0.5-0.8
		s-0.6-0.1-1-0.1L788,156.1L788,156.1z M788,159.4v2.3h2.1c0.4,0,0.7-0.1,0.9-0.2c0.4-0.2,0.6-0.5,0.6-1.1c0-0.4-0.2-0.8-0.5-0.9
		c-0.2-0.1-0.5-0.1-0.9-0.1H788z"/>
	<path class="st2" d="M800.3,157.6c0.5,0.6,0.7,1.4,0.7,2.3c0,1-0.2,1.8-0.7,2.5s-1.1,1-2,1c-0.5,0-1-0.1-1.3-0.3
		c-0.2-0.1-0.4-0.3-0.6-0.7v0.8h-1.6v-8.6h1.7v3.1c0.2-0.3,0.4-0.5,0.7-0.7s0.7-0.3,1.2-0.3C799.1,156.7,799.8,157,800.3,157.6z
		 M798.9,161.5c0.2-0.3,0.4-0.8,0.4-1.4c0-0.5-0.1-0.8-0.2-1.1c-0.2-0.6-0.6-0.8-1.2-0.8c-0.6,0-1,0.3-1.3,0.8
		c-0.1,0.3-0.2,0.7-0.2,1.1c0,0.5,0.1,1,0.4,1.4s0.6,0.5,1.1,0.5C798.3,162,798.6,161.9,798.9,161.5z"/>
</g>
<g>
	<circle class="st3" cx="24.5" cy="188.6" r="12"/>
	<g>
		<path class="st2" d="M28.2,184.7h-5.5v2.2h5v1.8h-5v2.7h5.8v1.9h-7.9v-10.4h7.6V184.7z"/>
	</g>
</g>
<g>
	<circle class="st4" cx="24.5" cy="158.6" r="12"/>
	<g>
		<path class="st2" d="M23.3,152.9h2.5l3.7,10.4h-2.4l-0.7-2.1h-3.8l-0.7,2.1h-2.3L23.3,152.9z M23.2,159.4h2.7l-1.3-4.1L23.2,159.4
			z"/>
	</g>
</g>
<g>
	<circle class="st5" cx="24.5" cy="128.6" r="12"/>
	<g>
		<path class="st2" d="M26.6,123.1c0.7,0.2,1.3,0.7,1.8,1.3c0.4,0.5,0.6,1.1,0.7,1.7s0.2,1.2,0.2,1.7c0,1.4-0.3,2.6-0.8,3.5
			c-0.8,1.3-1.9,1.9-3.5,1.9h-4.5v-10.4H25C25.6,122.9,26.1,123,26.6,123.1z M22.6,124.7v6.8h2c1,0,1.7-0.5,2.1-1.5
			c0.2-0.6,0.3-1.2,0.3-2c0-1.1-0.2-1.9-0.5-2.4c-0.3-0.6-1-0.8-2-0.8L22.6,124.7L22.6,124.7z"/>
	</g>
</g>
<g>
	<circle class="st6" cx="24.5" cy="97.6" r="12"/>
	<g>
		<path class="st2" d="M27.2,95.1c-0.2-0.7-0.6-1.2-1.2-1.5c-0.4-0.2-0.8-0.2-1.2-0.2c-0.8,0-1.5,0.3-2.1,0.9
			c-0.5,0.6-0.8,1.6-0.8,2.8c0,1.3,0.3,2.2,0.9,2.7s1.2,0.8,2,0.8c0.7,0,1.3-0.2,1.8-0.6s0.8-1,0.9-1.6H25v-1.7h4.3v5.6h-1.4
			l-0.2-1.3c-0.4,0.5-0.8,0.8-1.1,1c-0.6,0.4-1.3,0.5-2.1,0.5c-1.4,0-2.5-0.5-3.4-1.4c-0.9-1-1.4-2.3-1.4-3.9c0-1.7,0.5-3,1.4-4
			s2.1-1.5,3.7-1.5c1.3,0,2.4,0.3,3.2,1c0.8,0.7,1.3,1.5,1.4,2.5h-2.2V95.1z"/>
	</g>
</g>
<g>
	<circle class="st7" cx="24.5" cy="65.6" r="12"/>
	<g>
		<path class="st2" d="M28,61c0.3,0.4,0.5,1,0.5,1.6s-0.2,1.1-0.5,1.5c-0.2,0.2-0.4,0.4-0.8,0.6c0.5,0.2,0.9,0.5,1.2,0.9
			c0.3,0.4,0.4,0.9,0.4,1.5s-0.2,1.2-0.5,1.7c-0.2,0.3-0.4,0.6-0.7,0.8c-0.3,0.3-0.7,0.4-1.2,0.5s-0.9,0.1-1.5,0.1h-4.7V59.9h5
			C26.6,59.9,27.5,60.3,28,61z M22.3,61.7V64h2.5c0.5,0,0.8-0.1,1.1-0.3c0.3-0.2,0.4-0.5,0.4-0.9c0-0.5-0.2-0.8-0.6-1
			c-0.3-0.1-0.7-0.2-1.2-0.2h-2.2V61.7z M22.3,65.7v2.8h2.5c0.5,0,0.8-0.1,1.1-0.2c0.5-0.2,0.7-0.7,0.7-1.3c0-0.5-0.2-0.9-0.7-1.1
			c-0.2-0.1-0.6-0.2-1-0.2C24.9,65.7,22.3,65.7,22.3,65.7z"/>
	</g>
</g>
<g>
	<circle class="st3" cx="24.5" cy="34.6" r="12"/>
	<g>
		<path class="st2" d="M28.2,30.7h-5.5V33h5v1.8h-5v2.7h5.8v1.9h-7.9V28.9h7.6V30.7z"/>
	</g>
</g>
<g>
	<circle class="st3" cx="159.8" cy="127.6" r="12"/>
	<g>
		<path class="st2" d="M163.5,123.7H158v2.2h5v1.8h-5v2.7h5.8v1.9h-7.9v-10.4h7.6L163.5,123.7L163.5,123.7z"/>
	</g>
</g>
<g>
	<circle class="st4" cx="159.8" cy="96.6" r="12"/>
	<g>
		<path class="st2" d="M158.6,90.9h2.5l3.7,10.4h-2.4l-0.7-2.1h-3.8l-0.7,2.1h-2.3L158.6,90.9z M158.4,97.4h2.7l-1.3-4.1L158.4,97.4
			z"/>
	</g>
</g>
<g>
	<circle class="st7" cx="159.8" cy="158.6" r="12"/>
	<g>
		<path class="st2" d="M163.3,154c0.3,0.4,0.5,1,0.5,1.6s-0.2,1.1-0.5,1.5c-0.2,0.2-0.4,0.4-0.8,0.6c0.5,0.2,0.9,0.5,1.2,0.9
			s0.4,0.9,0.4,1.5s-0.2,1.2-0.5,1.7c-0.2,0.3-0.4,0.6-0.7,0.8c-0.3,0.3-0.7,0.4-1.2,0.5s-0.9,0.1-1.5,0.1h-4.7v-10.4h5
			C161.8,152.9,162.7,153.3,163.3,154z M157.6,154.7v2.3h2.5c0.5,0,0.8-0.1,1.1-0.3s0.4-0.5,0.4-0.9c0-0.5-0.2-0.8-0.6-1
			c-0.3-0.1-0.7-0.2-1.2-0.2L157.6,154.7L157.6,154.7z M157.6,158.7v2.8h2.5c0.5,0,0.8-0.1,1.1-0.2c0.5-0.2,0.7-0.7,0.7-1.3
			c0-0.5-0.2-0.9-0.7-1.1c-0.2-0.1-0.6-0.2-1-0.2H157.6z"/>
	</g>
</g>
<g>
	<circle class="st5" cx="229.1" cy="66.6" r="12"/>
	<g>
		<path class="st2" d="M231.1,61.1c0.7,0.2,1.3,0.7,1.8,1.3c0.4,0.5,0.6,1.1,0.7,1.7c0.1,0.6,0.2,1.2,0.2,1.7c0,1.4-0.3,2.6-0.8,3.5
			c-0.8,1.3-1.9,1.9-3.5,1.9H225V60.9h4.5C230.2,60.9,230.7,61,231.1,61.1z M227.2,62.7v6.8h2c1,0,1.7-0.5,2.1-1.5
			c0.2-0.6,0.3-1.2,0.3-2c0-1.1-0.2-1.9-0.5-2.4c-0.3-0.6-1-0.8-2-0.8L227.2,62.7L227.2,62.7z"/>
	</g>
</g>
<g>
	<circle class="st6" cx="229.1" cy="35.6" r="12"/>
	<g>
		<path class="st2" d="M231.8,33.1c-0.2-0.7-0.6-1.2-1.2-1.5c-0.4-0.2-0.8-0.2-1.2-0.2c-0.8,0-1.5,0.3-2.1,0.9
			c-0.5,0.6-0.8,1.6-0.8,2.8c0,1.3,0.3,2.2,0.9,2.7c0.6,0.5,1.2,0.8,2,0.8c0.7,0,1.3-0.2,1.8-0.6c0.5-0.4,0.8-1,0.9-1.6h-2.4v-1.7
			h4.3v5.6h-1.4l-0.2-1.3c-0.4,0.5-0.8,0.8-1.1,1c-0.6,0.4-1.3,0.5-2.1,0.5c-1.4,0-2.5-0.5-3.4-1.4c-0.9-1-1.4-2.3-1.4-3.9
			c0-1.7,0.5-3,1.4-4s2.1-1.5,3.7-1.5c1.3,0,2.4,0.3,3.2,1s1.3,1.5,1.4,2.5L231.8,33.1L231.8,33.1z"/>
	</g>
</g>
<g>
	<circle class="st6" cx="229.1" cy="189.6" r="12"/>
	<g>
		<path class="st2" d="M231.8,187.1c-0.2-0.7-0.6-1.2-1.2-1.5c-0.4-0.2-0.8-0.2-1.2-0.2c-0.8,0-1.5,0.3-2.1,0.9
			c-0.5,0.6-0.8,1.6-0.8,2.8c0,1.3,0.3,2.2,0.9,2.7c0.6,0.5,1.2,0.8,2,0.8c0.7,0,1.3-0.2,1.8-0.6c0.5-0.4,0.8-1,0.9-1.6h-2.4v-1.7
			h4.3v5.6h-1.4l-0.2-1.3c-0.4,0.5-0.8,0.8-1.1,1c-0.6,0.4-1.3,0.5-2.1,0.5c-1.4,0-2.5-0.5-3.4-1.4c-0.9-1-1.4-2.3-1.4-3.9
			c0-1.7,0.5-3,1.4-4s2.1-1.5,3.7-1.5c1.3,0,2.4,0.3,3.2,1s1.3,1.5,1.4,2.5h-2.3V187.1z"/>
	</g>
</g>
<g>
	<circle class="st7" cx="294.6" cy="96.6" r="12"/>
	<g>
		<path class="st2" d="M298,92c0.3,0.4,0.5,1,0.5,1.6s-0.2,1.1-0.5,1.5c-0.2,0.2-0.4,0.4-0.8,0.6c0.5,0.2,0.9,0.5,1.2,0.9
			c0.3,0.4,0.4,0.9,0.4,1.5s-0.2,1.2-0.5,1.7c-0.2,0.3-0.4,0.6-0.7,0.8c-0.3,0.3-0.7,0.4-1.2,0.5s-0.9,0.1-1.5,0.1h-4.7V90.9h5
			C296.6,90.9,297.5,91.3,298,92z M292.4,92.7V95h2.5c0.5,0,0.8-0.1,1.1-0.3c0.3-0.2,0.4-0.5,0.4-0.9c0-0.5-0.2-0.8-0.6-1
			c-0.3-0.1-0.7-0.2-1.2-0.2L292.4,92.7L292.4,92.7z M292.4,96.7v2.8h2.5c0.5,0,0.8-0.1,1.1-0.2c0.5-0.2,0.7-0.7,0.7-1.3
			c0-0.5-0.2-0.9-0.7-1.1c-0.2-0.1-0.6-0.2-1-0.2C295,96.7,292.4,96.7,292.4,96.7z"/>
	</g>
</g>
<g>
	<circle class="st4" cx="356.5" cy="189.6" r="12"/>
	<g>
		<path class="st2" d="M355.2,183.9h2.5l3.7,10.4H359l-0.7-2.1h-3.8l-0.7,2.1h-2.3L355.2,183.9z M355.1,190.4h2.7l-1.3-4.1
			L355.1,190.4z"/>
	</g>
</g>
<g>
	<circle class="st5" cx="356.5" cy="157.6" r="12"/>
	<g>
		<path class="st2" d="M358.5,152.1c0.7,0.2,1.3,0.7,1.8,1.3c0.4,0.5,0.6,1.1,0.7,1.7c0.1,0.6,0.2,1.2,0.2,1.7
			c0,1.4-0.3,2.6-0.8,3.5c-0.8,1.3-1.9,1.9-3.5,1.9h-4.5v-10.4h4.5C357.5,151.9,358.1,152,358.5,152.1z M354.5,153.7v6.8h2
			c1,0,1.7-0.5,2.1-1.5c0.2-0.6,0.3-1.2,0.3-2c0-1.1-0.2-1.9-0.5-2.4c-0.3-0.6-1-0.8-2-0.8h-1.9V153.7z"/>
	</g>
</g>
<g>
	<circle class="st6" cx="356.5" cy="127.6" r="12"/>
	<g>
		<path class="st2" d="M359.1,125.1c-0.2-0.7-0.6-1.2-1.2-1.5c-0.4-0.2-0.8-0.2-1.2-0.2c-0.8,0-1.5,0.3-2.1,0.9
			c-0.5,0.6-0.8,1.6-0.8,2.8c0,1.3,0.3,2.2,0.9,2.7s1.2,0.8,2,0.8c0.7,0,1.3-0.2,1.8-0.6c0.5-0.4,0.8-1,0.9-1.6H357v-1.7h4.3v5.6
			h-1.4l-0.2-1.3c-0.4,0.5-0.8,0.8-1.1,1c-0.6,0.4-1.3,0.5-2.1,0.5c-1.4,0-2.5-0.5-3.4-1.4c-0.9-1-1.4-2.3-1.4-3.9
			c0-1.7,0.5-3,1.4-4s2.1-1.5,3.7-1.5c1.3,0,2.4,0.3,3.2,1c0.8,0.7,1.3,1.5,1.4,2.5h-2.3V125.1z"/>
	</g>
</g>
<g>
	<circle class="st3" cx="356.5" cy="65.6" r="12"/>
	<g>
		<path class="st2" d="M360.1,61.7h-5.5V64h5v1.8h-5v2.7h5.8v1.9h-7.9V59.9h7.6V61.7z"/>
	</g>
</g>
<g>
	<circle class="st4" cx="356.5" cy="33.6" r="12"/>
	<g>
		<path class="st2" d="M355.2,27.9h2.5l3.7,10.4H359l-0.7-2.1h-3.8l-0.7,2.1h-2.3L355.2,27.9z M355.1,34.4h2.7l-1.3-4.1L355.1,34.4z
			"/>
	</g>
</g>
<g>
	<circle class="st3" cx="472.3" cy="157.6" r="12"/>
	<g>
		<path class="st2" d="M475.9,153.7h-5.5v2.2h5v1.8h-5v2.7h5.8v1.9h-7.9v-10.4h7.6V153.7z"/>
	</g>
</g>
<g>
	<circle class="st4" cx="472.3" cy="126.6" r="12"/>
	<g>
		<path class="st2" d="M471,120.9h2.5l3.7,10.4h-2.4l-0.7-2.1h-3.8l-0.7,2.1h-2.3L471,120.9z M470.9,127.4h2.7l-1.3-4.1L470.9,127.4
			z"/>
	</g>
</g>
<g>
	<circle class="st7" cx="472.3" cy="190.6" r="12"/>
	<g>
		<path class="st2" d="M475.7,186c0.3,0.4,0.5,1,0.5,1.6s-0.2,1.1-0.5,1.5c-0.2,0.2-0.4,0.4-0.8,0.6c0.5,0.2,0.9,0.5,1.2,0.9
			c0.3,0.4,0.4,0.9,0.4,1.5s-0.2,1.2-0.5,1.7c-0.2,0.3-0.4,0.6-0.7,0.8c-0.3,0.3-0.7,0.4-1.2,0.5s-0.9,0.1-1.5,0.1H468v-10.4h5
			C474.3,184.9,475.2,185.3,475.7,186z M470.1,186.7v2.3h2.5c0.5,0,0.8-0.1,1.1-0.3c0.3-0.2,0.4-0.5,0.4-0.9c0-0.5-0.2-0.8-0.6-1
			c-0.3-0.1-0.7-0.2-1.2-0.2L470.1,186.7L470.1,186.7z M470.1,190.7v2.8h2.5c0.5,0,0.8-0.1,1.1-0.2c0.5-0.2,0.7-0.7,0.7-1.3
			c0-0.5-0.2-0.9-0.7-1.1c-0.2-0.1-0.6-0.2-1-0.2H470.1z"/>
	</g>
</g>
<g>
	<circle class="st5" cx="472.3" cy="94.6" r="12"/>
	<g>
		<path class="st2" d="M474.3,89.1c0.7,0.2,1.3,0.7,1.8,1.3c0.4,0.5,0.6,1.1,0.7,1.7s0.2,1.2,0.2,1.7c0,1.4-0.3,2.6-0.8,3.5
			c-0.8,1.3-1.9,1.9-3.5,1.9h-4.5V88.9h4.5C473.3,88.9,473.9,89,474.3,89.1z M470.3,90.7v6.8h2c1,0,1.7-0.5,2.1-1.5
			c0.2-0.6,0.3-1.2,0.3-2c0-1.1-0.2-1.9-0.5-2.4s-1-0.8-2-0.8L470.3,90.7L470.3,90.7z"/>
	</g>
</g>
<g>
	<circle class="st7" cx="472.3" cy="31.6" r="12"/>
	<g>
		<path class="st2" d="M475.7,27c0.3,0.4,0.5,1,0.5,1.6s-0.2,1.1-0.5,1.5c-0.2,0.2-0.4,0.4-0.8,0.6c0.5,0.2,0.9,0.5,1.2,0.9
			c0.3,0.4,0.4,0.9,0.4,1.5s-0.2,1.2-0.5,1.7c-0.2,0.3-0.4,0.6-0.7,0.8c-0.3,0.3-0.7,0.4-1.2,0.5s-0.9,0.1-1.5,0.1H468V25.9h5
			C474.3,25.9,475.2,26.3,475.7,27z M470.1,27.7V30h2.5c0.5,0,0.8-0.1,1.1-0.3c0.3-0.2,0.4-0.5,0.4-0.9c0-0.5-0.2-0.8-0.6-1
			c-0.3-0.1-0.7-0.2-1.2-0.2h-2.2V27.7z M470.1,31.7v2.8h2.5c0.5,0,0.8-0.1,1.1-0.2c0.5-0.2,0.7-0.7,0.7-1.3c0-0.5-0.2-0.9-0.7-1.1
			c-0.2-0.1-0.6-0.2-1-0.2C472.7,31.7,470.1,31.7,470.1,31.7z"/>
	</g>
</g>
<g>
	<circle class="st6" cx="524.5" cy="61.6" r="12"/>
	<g>
		<path class="st2" d="M527.2,59.1c-0.2-0.7-0.6-1.2-1.2-1.5c-0.4-0.2-0.8-0.2-1.2-0.2c-0.8,0-1.5,0.3-2.1,0.9
			c-0.5,0.6-0.8,1.6-0.8,2.8c0,1.3,0.3,2.2,0.9,2.7c0.6,0.5,1.2,0.8,2,0.8c0.7,0,1.3-0.2,1.8-0.6s0.8-1,0.9-1.6H525v-1.7h4.3v5.6
			h-1.4l-0.2-1.3c-0.4,0.5-0.8,0.8-1.1,1c-0.6,0.4-1.3,0.5-2.1,0.5c-1.4,0-2.5-0.5-3.4-1.4c-0.9-1-1.4-2.3-1.4-3.9
			c0-1.7,0.5-3,1.4-4s2.1-1.5,3.7-1.5c1.3,0,2.4,0.3,3.2,1s1.3,1.5,1.4,2.5L527.2,59.1L527.2,59.1z"/>
	</g>
</g>
<g>
	<circle class="st3" cx="580.7" cy="95.6" r="12"/>
	<g>
		<path class="st2" d="M584.3,91.7h-5.5V94h5v1.8h-5v2.7h5.8v1.9h-7.9V89.9h7.6L584.3,91.7L584.3,91.7z"/>
	</g>
</g>
<g>
	<circle class="st7" cx="580.7" cy="128.6" r="12"/>
	<g>
		<path class="st2" d="M584.1,124c0.3,0.4,0.5,1,0.5,1.6s-0.2,1.1-0.5,1.5c-0.2,0.2-0.4,0.4-0.8,0.6c0.5,0.2,0.9,0.5,1.2,0.9
			s0.4,0.9,0.4,1.5s-0.2,1.2-0.5,1.7c-0.2,0.3-0.4,0.6-0.7,0.8c-0.3,0.3-0.7,0.4-1.2,0.5s-0.9,0.1-1.5,0.1h-4.7v-10.4h5
			C582.7,122.9,583.6,123.3,584.1,124z M578.5,124.7v2.3h2.5c0.5,0,0.8-0.1,1.1-0.3c0.3-0.2,0.4-0.5,0.4-0.9c0-0.5-0.2-0.8-0.6-1
			c-0.3-0.1-0.7-0.2-1.2-0.2L578.5,124.7L578.5,124.7z M578.5,128.7v2.8h2.5c0.5,0,0.8-0.1,1.1-0.2c0.5-0.2,0.7-0.7,0.7-1.3
			c0-0.5-0.2-0.9-0.7-1.1c-0.2-0.1-0.6-0.2-1-0.2H578.5z"/>
	</g>
</g>
<g>
	<circle class="st3" cx="733.5" cy="195.6" r="12"/>
	<g>
		<path class="st2" d="M737.2,191.7h-5.5v2.2h5v1.8h-5v2.7h5.8v1.9h-7.9v-10.4h7.6L737.2,191.7L737.2,191.7z"/>
	</g>
</g>
<g>
	<circle class="st4" cx="733.5" cy="162.6" r="12"/>
	<g>
		<path class="st2" d="M732.3,156.9h2.5l3.7,10.4h-2.4l-0.7-2.1h-3.8l-0.7,2.1h-2.3L732.3,156.9z M732.2,163.4h2.7l-1.3-4.1
			L732.2,163.4z"/>
	</g>
</g>
<g>
	<circle class="st5" cx="733.5" cy="126.6" r="12"/>
	<g>
		<path class="st2" d="M735.6,121.1c0.7,0.2,1.3,0.7,1.8,1.3c0.4,0.5,0.6,1.1,0.7,1.7c0.1,0.6,0.2,1.2,0.2,1.7
			c0,1.4-0.3,2.6-0.8,3.5c-0.8,1.3-1.9,1.9-3.5,1.9h-4.5v-10.4h4.5C734.6,120.9,735.1,121,735.6,121.1z M731.6,122.7v6.8h2
			c1,0,1.7-0.5,2.1-1.5c0.2-0.6,0.3-1.2,0.3-2c0-1.1-0.2-1.9-0.5-2.4c-0.3-0.6-1-0.8-2-0.8L731.6,122.7L731.6,122.7z"/>
	</g>
</g>
<g>
	<circle class="st6" cx="733.5" cy="92.6" r="12"/>
	<g>
		<path class="st2" d="M736.2,90.1c-0.2-0.7-0.6-1.2-1.2-1.5c-0.4-0.2-0.8-0.2-1.2-0.2c-0.8,0-1.5,0.3-2.1,0.9
			c-0.5,0.6-0.8,1.6-0.8,2.8c0,1.3,0.3,2.2,0.9,2.7c0.6,0.5,1.2,0.8,2,0.8c0.7,0,1.3-0.2,1.8-0.6s0.8-1,0.9-1.6H734v-1.7h4.3v5.6
			h-1.4l-0.2-1.3c-0.4,0.5-0.8,0.8-1.1,1c-0.6,0.4-1.3,0.5-2.1,0.5c-1.4,0-2.5-0.5-3.4-1.4c-0.9-1-1.4-2.3-1.4-3.9
			c0-1.7,0.5-3,1.4-4s2.1-1.5,3.7-1.5c1.3,0,2.4,0.3,3.2,1s1.3,1.5,1.4,2.5h-2.2V90.1z"/>
	</g>
</g>
<g>
	<circle class="st7" cx="733.5" cy="61.6" r="12"/>
	<g>
		<path class="st2" d="M737,57c0.3,0.4,0.5,1,0.5,1.6s-0.2,1.1-0.5,1.5c-0.2,0.2-0.4,0.4-0.8,0.6c0.5,0.2,0.9,0.5,1.2,0.9
			s0.4,0.9,0.4,1.5s-0.2,1.2-0.5,1.7c-0.2,0.3-0.4,0.6-0.7,0.8c-0.3,0.3-0.7,0.4-1.2,0.5s-0.9,0.1-1.5,0.1h-4.7V55.9h5
			C735.6,55.9,736.5,56.3,737,57z M731.3,57.7V60h2.5c0.5,0,0.8-0.1,1.1-0.3s0.4-0.5,0.4-0.9c0-0.5-0.2-0.8-0.6-1
			c-0.3-0.1-0.7-0.2-1.2-0.2h-2.2V57.7z M731.3,61.7v2.8h2.5c0.5,0,0.8-0.1,1.1-0.2c0.5-0.2,0.7-0.7,0.7-1.3c0-0.5-0.2-0.9-0.7-1.1
			c-0.2-0.1-0.6-0.2-1-0.2C733.9,61.7,731.3,61.7,731.3,61.7z"/>
	</g>
</g>
<g>
	<circle class="st3" cx="733.5" cy="28.6" r="12"/>
	<g>
		<path class="st2" d="M737.2,24.7h-5.5V27h5v1.8h-5v2.7h5.8v1.9h-7.9V22.9h7.6L737.2,24.7L737.2,24.7z"/>
	</g>
</g>
<g>
	<circle class="st5" cx="632.3" cy="195.6" r="12"/>
	<g>
		<path class="st2" d="M634.4,190.1c0.7,0.2,1.3,0.7,1.8,1.3c0.4,0.5,0.6,1.1,0.7,1.7c0.1,0.6,0.2,1.2,0.2,1.7
			c0,1.4-0.3,2.6-0.8,3.5c-0.8,1.3-1.9,1.9-3.5,1.9h-4.5v-10.4h4.5C633.4,189.9,633.9,190,634.4,190.1z M630.4,191.7v6.8h2
			c1,0,1.7-0.5,2.1-1.5c0.2-0.6,0.3-1.2,0.3-2c0-1.1-0.2-1.9-0.5-2.4c-0.3-0.6-1-0.8-2-0.8h-1.9V191.7z"/>
	</g>
</g>
<g>
	<circle class="st6" cx="632.3" cy="161.6" r="12"/>
	<g>
		<path class="st2" d="M635,159.1c-0.2-0.7-0.6-1.2-1.2-1.5c-0.4-0.2-0.8-0.2-1.2-0.2c-0.8,0-1.5,0.3-2.1,0.9
			c-0.5,0.6-0.8,1.6-0.8,2.8c0,1.3,0.3,2.2,0.9,2.7c0.6,0.5,1.2,0.8,2,0.8c0.7,0,1.3-0.2,1.8-0.6c0.5-0.4,0.8-1,0.9-1.6h-2.4v-1.7
			h4.3v5.6h-1.4l-0.2-1.3c-0.4,0.5-0.8,0.8-1.1,1c-0.6,0.4-1.3,0.5-2.1,0.5c-1.4,0-2.5-0.5-3.4-1.4c-0.9-1-1.4-2.3-1.4-3.9
			c0-1.7,0.5-3,1.4-4s2.1-1.5,3.7-1.5c1.3,0,2.4,0.3,3.2,1s1.3,1.5,1.4,2.5H635V159.1z"/>
	</g>
</g>
<g>
	<circle class="st4" cx="632.3" cy="62.6" r="12"/>
	<g>
		<path class="st2" d="M631.1,56.9h2.5l3.7,10.4h-2.4l-0.7-2.1h-3.8l-0.7,2.1h-2.3L631.1,56.9z M631,63.4h2.7l-1.3-4.1L631,63.4z"/>
	</g>
</g>
<g>
	<circle class="st5" cx="632.3" cy="30.6" r="12"/>
	<g>
		<path class="st2" d="M634.4,25.1c0.7,0.2,1.3,0.7,1.8,1.3c0.4,0.5,0.6,1.1,0.7,1.7c0.1,0.6,0.2,1.2,0.2,1.7c0,1.4-0.3,2.6-0.8,3.5
			c-0.8,1.3-1.9,1.9-3.5,1.9h-4.5V24.9h4.5C633.4,24.9,633.9,25,634.4,25.1z M630.4,26.7v6.8h2c1,0,1.7-0.5,2.1-1.5
			c0.2-0.6,0.3-1.2,0.3-2c0-1.1-0.2-1.9-0.5-2.4c-0.3-0.6-1-0.8-2-0.8h-1.9V26.7z"/>
	</g>
</g>
<g>
	<circle class="st3" cx="835.3" cy="125.6" r="12"/>
	<g>
		<path class="st2" d="M839,121.7h-5.5v2.2h5v1.8h-5v2.7h5.8v1.9h-7.9v-10.4h7.6L839,121.7L839,121.7z"/>
	</g>
</g>
<g>
	<circle class="st4" cx="835.3" cy="90.6" r="12"/>
	<g>
		<path class="st2" d="M834.1,84.9h2.5l3.7,10.4h-2.4l-0.7-2.1h-3.8l-0.7,2.1h-2.3L834.1,84.9z M833.9,91.4h2.7l-1.3-4.1L833.9,91.4
			z"/>
	</g>
</g>
<g>
	<circle class="st7" cx="835.3" cy="160.6" r="12"/>
	<g>
		<path class="st2" d="M838.8,156c0.3,0.4,0.5,1,0.5,1.6s-0.2,1.1-0.5,1.5c-0.2,0.2-0.4,0.4-0.8,0.6c0.5,0.2,0.9,0.5,1.2,0.9
			s0.4,0.9,0.4,1.5s-0.2,1.2-0.5,1.7c-0.2,0.3-0.4,0.6-0.7,0.8c-0.3,0.3-0.7,0.4-1.2,0.5s-0.9,0.1-1.5,0.1H831v-10.4h5
			C837.3,154.9,838.2,155.3,838.8,156z M833.1,156.7v2.3h2.5c0.5,0,0.8-0.1,1.1-0.3s0.4-0.5,0.4-0.9c0-0.5-0.2-0.8-0.6-1
			c-0.3-0.1-0.7-0.2-1.2-0.2L833.1,156.7L833.1,156.7z M833.1,160.7v2.8h2.5c0.5,0,0.8-0.1,1.1-0.2c0.5-0.2,0.7-0.7,0.7-1.3
			c0-0.5-0.2-0.9-0.7-1.1c-0.2-0.1-0.6-0.2-1-0.2H833.1z"/>
	</g>
</g>
<g>
	<path class="st2" d="M870.2,85.6h2l3.1,8.6h-2l-0.6-1.8h-3.2l-0.6,1.8H867L870.2,85.6z M870.1,91h2.2l-1.1-3.4L870.1,91z"/>
	<path class="st2" d="M875.8,90.9h1.2l0.5-1.7h-1.2l0.3-1h1.2l0.6-2.4h1.2l-0.6,2.4h1l0.6-2.4h1.2l-0.6,2.4h1.2l-0.3,1h-1.2
		l-0.5,1.7h1.2l-0.3,1H880l-0.6,2.3h-1.2l0.6-2.3h-1l-0.6,2.3H876l0.6-2.3h-1.2L875.8,90.9z M879.1,90.9l0.5-1.7h-1l-0.5,1.7H879.1z
		"/>
	<path class="st2" d="M892.9,86.5c0.3,0.4,0.4,0.8,0.4,1.3s-0.1,1-0.4,1.3c-0.1,0.2-0.4,0.3-0.7,0.5c0.4,0.2,0.8,0.4,1,0.8
		c0.2,0.3,0.3,0.8,0.3,1.3s-0.1,1-0.4,1.4c-0.2,0.3-0.4,0.5-0.6,0.7c-0.3,0.2-0.6,0.4-1,0.4c-0.4,0.1-0.8,0.1-1.2,0.1h-3.9v-8.6h4.2
		C891.7,85.6,892.4,85.9,892.9,86.5z M888.2,87.1V89h2.1c0.4,0,0.7-0.1,0.9-0.2s0.4-0.4,0.4-0.8s-0.2-0.7-0.5-0.8
		c-0.3-0.1-0.6-0.1-1-0.1H888.2z M888.2,90.4v2.3h2.1c0.4,0,0.7-0.1,0.9-0.2c0.4-0.2,0.6-0.5,0.6-1.1c0-0.4-0.2-0.8-0.5-0.9
		c-0.2-0.1-0.5-0.1-0.9-0.1C890.4,90.4,888.2,90.4,888.2,90.4z"/>
	<path class="st2" d="M900.4,88.6c0.5,0.6,0.7,1.4,0.7,2.3c0,1-0.2,1.8-0.7,2.5s-1.1,1-2,1c-0.5,0-1-0.1-1.3-0.3
		c-0.2-0.1-0.4-0.3-0.6-0.7v0.8h-1.6v-8.6h1.7v3.1c0.2-0.3,0.4-0.5,0.7-0.7s0.7-0.3,1.2-0.3C899.3,87.7,899.9,88,900.4,88.6z
		 M899,92.5c0.2-0.3,0.4-0.8,0.4-1.4c0-0.5-0.1-0.8-0.2-1.1c-0.2-0.6-0.6-0.8-1.2-0.8c-0.6,0-1,0.3-1.3,0.8
		c-0.1,0.3-0.2,0.7-0.2,1.1c0,0.5,0.1,1,0.4,1.4s0.6,0.5,1.1,0.5C898.4,93,898.8,92.9,899,92.5z"/>
</g>
<g>
	<circle class="st5" cx="884.3" cy="59.6" r="12"/>
	<g>
		<path class="st2" d="M886.3,54.1c0.7,0.2,1.3,0.7,1.8,1.3c0.4,0.5,0.6,1.1,0.7,1.7c0.1,0.6,0.2,1.2,0.2,1.7c0,1.4-0.3,2.6-0.8,3.5
			c-0.8,1.3-1.9,1.9-3.5,1.9h-4.5V53.9h4.5C885.4,53.9,885.9,54,886.3,54.1z M882.3,55.7v6.8h2c1,0,1.7-0.5,2.1-1.5
			c0.2-0.6,0.3-1.2,0.3-2c0-1.1-0.2-1.9-0.5-2.4c-0.3-0.6-1-0.8-2-0.8L882.3,55.7L882.3,55.7z"/>
	</g>
</g>
<g>
	<circle class="st6" cx="884.3" cy="26.6" r="12"/>
	<g>
		<path class="st2" d="M886.9,24.1c-0.2-0.7-0.6-1.2-1.2-1.5c-0.4-0.2-0.8-0.2-1.2-0.2c-0.8,0-1.5,0.3-2.1,0.9
			c-0.5,0.6-0.8,1.6-0.8,2.8c0,1.3,0.3,2.2,0.9,2.7c0.6,0.5,1.2,0.8,2,0.8c0.7,0,1.3-0.2,1.8-0.6s0.8-1,0.9-1.6h-2.4v-1.7h4.3v5.6
			h-1.4l-0.2-1.3c-0.4,0.5-0.8,0.8-1.1,1c-0.6,0.4-1.3,0.5-2.1,0.5c-1.4,0-2.5-0.5-3.4-1.4c-0.9-1-1.4-2.3-1.4-3.9
			c0-1.7,0.5-3,1.4-4s2.1-1.5,3.7-1.5c1.3,0,2.4,0.3,3.2,1s1.3,1.5,1.4,2.5L886.9,24.1L886.9,24.1z"/>
	</g>
</g>
<g>
	<circle class="st6" cx="884.3" cy="196.6" r="12"/>
	<g>
		<path class="st2" d="M886.9,194.1c-0.2-0.7-0.6-1.2-1.2-1.5c-0.4-0.2-0.8-0.2-1.2-0.2c-0.8,0-1.5,0.3-2.1,0.9
			c-0.5,0.6-0.8,1.6-0.8,2.8c0,1.3,0.3,2.2,0.9,2.7c0.6,0.5,1.2,0.8,2,0.8c0.7,0,1.3-0.2,1.8-0.6c0.5-0.4,0.8-1,0.9-1.6h-2.4v-1.7
			h4.3v5.6h-1.4l-0.2-1.3c-0.4,0.5-0.8,0.8-1.1,1c-0.6,0.4-1.3,0.5-2.1,0.5c-1.4,0-2.5-0.5-3.4-1.4c-0.9-1-1.4-2.3-1.4-3.9
			c0-1.7,0.5-3,1.4-4s2.1-1.5,3.7-1.5c1.3,0,2.4,0.3,3.2,1s1.3,1.5,1.4,2.5h-2.3V194.1z"/>
	</g>
</g>
</svg>
